<svg xmlns="http://www.w3.org/2000/svg" viewBox="0 0 500 500"><g id="freepik--background-complete--inject-17"><path d="M137.1,95.67a6.38,6.38,0,0,1-.57-1.1,9.75,9.75,0,0,1-.77-3.45,11.3,11.3,0,0,1,1.1-5.48,9.93,9.93,0,0,1,5.35-5,11.4,11.4,0,0,1,8.88.21,8.81,8.81,0,0,1,3.85,3.28,6.54,6.54,0,0,1,.93,2.53,4.1,4.1,0,0,1-.57,2.74,4.75,4.75,0,0,1-5.21,1.8,8.55,8.55,0,0,1-4.67-3.55,11.87,11.87,0,0,1-.81-11.89,11.7,11.7,0,0,1,10.24-6.08,10.06,10.06,0,0,1,5.66,1.6,6.27,6.27,0,0,1,2,2.12,4.86,4.86,0,0,1,.57,2.81,4,4,0,0,1-1.21,2.52,4.08,4.08,0,0,1-2.54,1,6.09,6.09,0,0,1-4.62-2,8,8,0,0,1-2-4.26,8.2,8.2,0,0,1,.56-4.32,11.85,11.85,0,0,1,4.9-5.52,17.81,17.81,0,0,1,5.24-2,23.19,23.19,0,0,1,4.73-.56l-.31.05-.91.11a31.89,31.89,0,0,0-3.47.61,17.54,17.54,0,0,0-5.12,2,11.49,11.49,0,0,0-4.7,5.39,7.88,7.88,0,0,0-.5,4.11,7.53,7.53,0,0,0,2,4,5.56,5.56,0,0,0,4.26,1.83,3.49,3.49,0,0,0,2.23-.87,3.36,3.36,0,0,0,1-2.2,4.26,4.26,0,0,0-.51-2.51,5.62,5.62,0,0,0-1.83-1.93,9.5,9.5,0,0,0-5.35-1.5A11.17,11.17,0,0,0,145.1,76a11.36,11.36,0,0,0,.76,11.33,8,8,0,0,0,4.36,3.35,4.24,4.24,0,0,0,4.65-1.56,3.64,3.64,0,0,0,.51-2.41,6,6,0,0,0-.86-2.33,8.15,8.15,0,0,0-3.62-3.12,11,11,0,0,0-8.55-.27,9.63,9.63,0,0,0-5.21,4.81A11.28,11.28,0,0,0,136,91.11a10.08,10.08,0,0,0,.67,3.42C136.92,95.28,137.13,95.65,137.1,95.67Z" style="fill:#e0e0e0"></path><path d="M456.91,79a6.89,6.89,0,0,1-1.18.34,9.63,9.63,0,0,1-3.54.08A11.33,11.33,0,0,1,447,77.21,9.94,9.94,0,0,1,443.17,71a11.34,11.34,0,0,1,2-8.66,8.64,8.64,0,0,1,4-3.12,6.3,6.3,0,0,1,2.67-.41,4.08,4.08,0,0,1,2.57,1.09,4.77,4.77,0,0,1,.72,5.47,8.44,8.44,0,0,1-4.4,3.87,11.86,11.86,0,0,1-11.81-1.56,11.67,11.67,0,0,1-3.93-11.24,10,10,0,0,1,2.69-5.23,6.28,6.28,0,0,1,2.47-1.52,4.73,4.73,0,0,1,2.86,0,3.89,3.89,0,0,1,2.23,1.68,4.06,4.06,0,0,1,.47,2.69,6,6,0,0,1-2.88,4.13,8,8,0,0,1-4.58,1.16,8.32,8.32,0,0,1-4.12-1.41,11.79,11.79,0,0,1-4.43-5.9,17.38,17.38,0,0,1-.92-5.52,22.78,22.78,0,0,1,.38-4.75,1.11,1.11,0,0,1,0,.32c0,.23,0,.53-.07.91a31.77,31.77,0,0,0-.08,3.51,17.28,17.28,0,0,0,1,5.43,11.47,11.47,0,0,0,4.36,5.68,7.93,7.93,0,0,0,3.92,1.31,7.68,7.68,0,0,0,4.32-1.13A5.57,5.57,0,0,0,445.17,54a3.59,3.59,0,0,0-.41-2.36,3.46,3.46,0,0,0-2-1.46,4.27,4.27,0,0,0-2.55,0A5.64,5.64,0,0,0,438,51.56a9.58,9.58,0,0,0-2.52,4.95,11.17,11.17,0,0,0,3.74,10.71,11.36,11.36,0,0,0,11.26,1.5,8,8,0,0,0,4.14-3.61,4.25,4.25,0,0,0-.6-4.87,3.62,3.62,0,0,0-2.26-1,6,6,0,0,0-2.46.37,8.25,8.25,0,0,0-3.78,2.94,11,11,0,0,0-1.95,8.32A9.65,9.65,0,0,0,447.23,77a11.32,11.32,0,0,0,5,2.2,10.3,10.3,0,0,0,3.48,0C456.5,79.06,456.91,78.93,456.91,79Z" style="fill:#e0e0e0"></path><path d="M455.52,449.89a6.18,6.18,0,0,1-1.09-.59,9.52,9.52,0,0,1-2.57-2.43,11.37,11.37,0,0,1-2.14-5.16,10,10,0,0,1,1.64-7.16,11.36,11.36,0,0,1,7.49-4.78,8.68,8.68,0,0,1,5,.58,6.59,6.59,0,0,1,2.18,1.58,4.07,4.07,0,0,1,1.06,2.59,4.76,4.76,0,0,1-3.32,4.4,8.52,8.52,0,0,1-5.86-.34,11.89,11.89,0,0,1-7.3-9.43,11.69,11.69,0,0,1,5.11-10.75,10,10,0,0,1,5.59-1.82,6.18,6.18,0,0,1,2.83.65,4.86,4.86,0,0,1,2,2,3.88,3.88,0,0,1,.4,2.77,4,4,0,0,1-1.55,2.24,6.07,6.07,0,0,1-5,.91,8,8,0,0,1-4.06-2.39,8.38,8.38,0,0,1-1.95-3.9,11.79,11.79,0,0,1,1-7.31A17.51,17.51,0,0,1,458.3,407a22.83,22.83,0,0,1,3.61-3.1,1.4,1.4,0,0,1-.22.21l-.7.6a31.89,31.89,0,0,0-2.53,2.44,17.55,17.55,0,0,0-3.11,4.56,11.56,11.56,0,0,0-.9,7.1,8,8,0,0,0,1.88,3.69,7.61,7.61,0,0,0,3.85,2.24,5.62,5.62,0,0,0,4.57-.86,3.55,3.55,0,0,0,1.36-2,3.37,3.37,0,0,0-.37-2.41,4.25,4.25,0,0,0-1.82-1.79,5.71,5.71,0,0,0-2.6-.59,9.62,9.62,0,0,0-5.28,1.74,11.18,11.18,0,0,0-4.86,10.25,11.32,11.32,0,0,0,6.95,9,8,8,0,0,0,5.48.35,4.25,4.25,0,0,0,3-3.89,3.63,3.63,0,0,0-.93-2.27,5.94,5.94,0,0,0-2-1.47,8.22,8.22,0,0,0-4.75-.57,11,11,0,0,0-7.24,4.55,9.65,9.65,0,0,0-1.65,6.9,11.28,11.28,0,0,0,2,5.08,10,10,0,0,0,2.45,2.46C455.15,449.67,455.53,449.86,455.52,449.89Z" style="fill:#e0e0e0"></path><path d="M94.62,391c-1.8-8.64-6.18-17-13.3-22.2s-19.08-6.8-28.06-2.57C37.58,373.6,32.87,386.41,36.49,402c3.39,14.59,13.08,27.69,26.81,33.67,7.62,3.32,17.25,4.39,23.63-.93,5-4.14,6.61-11,7.57-17.38C95.82,408.6,96.41,399.63,94.62,391Z" style="fill:#f5f5f5"></path><path d="M80.61,437.68a17.58,17.58,0,0,0-.82,5.39,1.84,1.84,0,0,0,.63,1.55,1.33,1.33,0,0,0,1.68-.46,3.81,3.81,0,0,0,.59-1.81,14.72,14.72,0,0,0,3.17.28,1.65,1.65,0,0,0,1.32-.45,1.12,1.12,0,0,0,.1-1.09c-.14-.36,0-1.46-.3-1.74-1.13-1.21-2.77-1.47-4.15-2.37" style="fill:#f5f5f5"></path><path d="M82.38,441.77c-.11.08-.73-.73-1-1.94a3.1,3.1,0,0,1,.12-2.17,14.17,14.17,0,0,1,.36,2.07A15.51,15.51,0,0,1,82.38,441.77Z" style="fill:#e0e0e0"></path><path d="M83.39,440c-.08.11-.72-.26-1.23-1s-.66-1.44-.54-1.48.46.54.93,1.2S83.47,439.91,83.39,440Z" style="fill:#e0e0e0"></path><path d="M316.55,250.7l-118.11-1.14-35.8-.17-9.73,0-2.53,0a5.32,5.32,0,0,0-.87,0,4.73,4.73,0,0,0,.86.06l2.54.06,9.73.12,35.79.2,118.13.07c46.1,0,87.85.06,118.07.28,15.11.11,27.34.25,35.8.42,4.22.08,7.5.16,9.73.25a17.34,17.34,0,0,1,3.39.26,19.15,19.15,0,0,1-3.4.22c-2.22.06-5.5.11-9.73.15-8.45.08-20.68.1-35.8,0C404.4,251.54,362.65,251.18,316.55,250.7Z" style="fill:#ebebeb"></path><path d="M315.63,261.11l-116.5-19.49-35.34-5.73-9.61-1.49-2.51-.36a5.08,5.08,0,0,0-.86-.08,5.24,5.24,0,0,0,.84.19l2.49.45,9.6,1.64L199.07,242l116.68,18.42c45.54,7.15,86.77,13.69,116.6,18.61,14.91,2.46,27,4.5,35.29,6,4.16.73,7.39,1.33,9.57,1.76a17,17,0,0,1,3.31.79,18.61,18.61,0,0,1-3.39-.31c-2.2-.28-5.45-.74-9.64-1.35-8.36-1.24-20.44-3.12-35.36-5.52C402.28,275.6,361.1,268.75,315.63,261.11Z" style="fill:#ebebeb"></path><path d="M313.1,271.24l-112-37.6-34-11.22-9.26-3-2.42-.75a6.93,6.93,0,0,0-.84-.22,5.26,5.26,0,0,0,.81.33l2.38.84,9.22,3.13L201,234l112.33,36.56c43.85,14.23,83.53,27.18,112.21,36.74,14.34,4.77,25.92,8.69,33.91,11.46,4,1.38,7.09,2.48,9.18,3.25a16.91,16.91,0,0,1,3.14,1.3,17.94,17.94,0,0,1-3.3-.83c-2.13-.63-5.27-1.59-9.3-2.86-8.07-2.54-19.71-6.3-34.06-11C396.38,299.21,356.79,286,313.1,271.24Z" style="fill:#ebebeb"></path><path d="M309,280.84,204.32,226.1l-31.8-16.43-8.68-4.41-2.27-1.12a7.32,7.32,0,0,0-.79-.35,4.42,4.42,0,0,0,.74.45l2.23,1.2c2,1.06,4.89,2.58,8.61,4.54l31.79,16.46,105.16,53.79c41.07,21,78.22,40,105,53.94,13.4,7,24.23,12.66,31.68,16.65,3.73,2,6.61,3.57,8.55,4.66a17.22,17.22,0,0,1,2.91,1.77,17.88,17.88,0,0,1-3.13-1.35c-2-.95-5-2.4-8.74-4.28-7.56-3.78-18.46-9.33-31.9-16.24C386.84,321.55,349.83,302.24,309,280.84Z" style="fill:#ebebeb"></path><path d="M303.44,289.68l-94.83-70.43-28.84-21.2-7.89-5.71-2.06-1.46a6.73,6.73,0,0,0-.73-.47,4.93,4.93,0,0,0,.66.56c.48.36,1.15.87,2,1.54l7.8,5.82,28.83,21.23,95.46,69.56c37.28,27.12,71,51.73,95.31,69.7,12.16,9,22,16.29,28.7,21.4,3.36,2.55,6,4.55,7.71,5.93a17.16,17.16,0,0,1,2.59,2.21,17.29,17.29,0,0,1-2.87-1.82c-1.84-1.25-4.53-3.14-8-5.6-6.88-4.91-16.78-12.09-29-21C374,342.06,340.43,317.2,303.44,289.68Z" style="fill:#ebebeb"></path><path d="M296.58,297.55l-82.73-84.33-25.19-25.43-6.9-6.86L180,179.16a6.18,6.18,0,0,0-.65-.57,6.18,6.18,0,0,0,.57.65l1.75,1.83,6.79,7,25.18,25.45,83.48,83.57c32.61,32.59,62.09,62.15,83.31,83.67,10.61,10.76,19.15,19.51,25,25.6,2.94,3.05,5.19,5.43,6.71,7.07a17.18,17.18,0,0,1,2.21,2.58,18.2,18.2,0,0,1-2.56-2.24c-1.62-1.53-4-3.82-7-6.78-6-5.92-14.7-14.55-25.35-25.27C358.1,360.26,328.84,330.48,296.58,297.55Z" style="fill:#ebebeb"></path><path d="M288.57,304.25c-26.78-37.55-51-71.54-68.6-96.17L199,179l-5.75-7.85-1.51-2a5.31,5.31,0,0,0-.55-.67,5,5,0,0,0,.46.73l1.44,2.08,5.63,7.94c5,6.89,12.09,16.8,20.91,29.05l69.47,95.54c27.14,37.26,51.67,71.05,69.28,95.61,8.8,12.28,15.89,22.26,20.73,29.19,2.42,3.46,4.28,6.16,5.52,8a18.41,18.41,0,0,1,1.79,2.9,17.29,17.29,0,0,1-2.18-2.61c-1.37-1.76-3.34-4.39-5.86-7.78-5-6.79-12.25-16.67-21.11-28.91C339.59,375.77,315.32,341.8,288.57,304.25Z" style="fill:#ebebeb"></path><path d="M279.62,309.62,226.91,203.91c-6.81-13.47-12.31-24.38-16.14-31.95l-4.45-8.66-1.18-2.24a4.1,4.1,0,0,0-.44-.74,5,5,0,0,0,.34.79l1.1,2.28,4.31,8.73,16.11,32c13.75,26.95,32.72,64.14,53.69,105.22s39.92,78.26,53.48,105.27c6.77,13.51,12.21,24.47,15.91,32.07,1.85,3.8,3.26,6.76,4.2,8.78a18.37,18.37,0,0,1,1.31,3.14,17,17,0,0,1-1.75-2.92c-1.07-1.95-2.61-4.85-4.57-8.6-3.91-7.49-9.49-18.37-16.33-31.85C318.83,388.24,300.17,350.89,279.62,309.62Z" style="fill:#ebebeb"></path><path d="M269.94,313.52c-13.83-44-26.35-83.82-35.43-112.69-4.59-14.37-8.32-26-10.9-34.09-1.31-4-2.33-7.1-3-9.25l-.81-2.4a4.41,4.41,0,0,0-.32-.8,5.61,5.61,0,0,0,.21.84c.17.57.41,1.38.73,2.42.67,2.16,1.64,5.28,2.88,9.3,2.58,8.08,6.3,19.72,10.88,34.1l36.47,112.36c14.26,43.84,27.12,83.56,36.25,112.37,4.57,14.4,8.21,26.08,10.67,34.17,1.23,4,2.16,7.19,2.76,9.33a16.89,16.89,0,0,1,.8,3.31,18.08,18.08,0,0,1-1.26-3.16c-.75-2.1-1.82-5.2-3.16-9.21-2.69-8-6.49-19.64-11.12-34C296.29,397.33,283.74,357.51,269.94,313.52Z" style="fill:#ebebeb"></path><path d="M259.76,315.85C253,270.22,246.93,228.92,242.51,199c-2.28-14.92-4.13-27-5.41-35.39-.67-4.15-1.18-7.38-1.54-9.61l-.43-2.49a6.85,6.85,0,0,0-.18-.85,5.59,5.59,0,0,0,.07.87c.08.59.19,1.42.34,2.5.32,2.24.79,5.48,1.39,9.64,1.27,8.39,3.11,20.47,5.38,35.39,4.69,29.89,11.17,71.12,18.32,116.69s13.64,86.79,18.12,116.68c2.25,14.94,4,27.05,5.16,35.42.58,4.19,1,7.44,1.26,9.65a16.87,16.87,0,0,1,.27,3.39,17.8,17.8,0,0,1-.75-3.31c-.41-2.19-1-5.43-1.67-9.59-1.39-8.34-3.31-20.42-5.62-35.36C272.6,402.76,266.46,361.46,259.76,315.85Z" style="fill:#ebebeb"></path><path d="M249.35,316.55c.41-46.12.79-87.86,1.06-118.12.06-15.09.11-27.31.15-35.79,0-4.2,0-7.48,0-9.73,0-1.09,0-1.93,0-2.53a5.73,5.73,0,0,0-.05-.87,4.73,4.73,0,0,0-.06.86c0,.61,0,1.45-.06,2.54,0,2.25-.06,5.52-.11,9.73,0,8.48-.1,20.7-.17,35.79,0,30.26,0,72,0,118.13s0,87.85-.2,118.07c-.1,15.11-.24,27.34-.4,35.8-.08,4.22-.16,7.5-.25,9.73a18,18,0,0,1-.25,3.39,17.93,17.93,0,0,1-.22-3.39c-.07-2.23-.12-5.51-.16-9.74-.08-8.45-.11-20.68-.07-35.79C248.55,404.4,248.9,362.65,249.35,316.55Z" style="fill:#ebebeb"></path><path d="M238.94,315.64c7.58-45.5,14.44-86.67,19.41-116.52,2.41-14.9,4.36-27,5.71-35.33.64-4.16,1.14-7.39,1.48-9.62.15-1.08.27-1.91.36-2.51a5.08,5.08,0,0,0,.08-.86,5.24,5.24,0,0,0-.19.84c-.11.6-.26,1.42-.45,2.49-.38,2.23-.93,5.45-1.63,9.6L258,199.06c-4.7,29.89-11.18,71.13-18.35,116.69S226,402.54,221.08,432.36c-2.44,14.92-4.48,27-6,35.3-.73,4.16-1.33,7.39-1.76,9.58a18.22,18.22,0,0,1-.78,3.31,17.82,17.82,0,0,1,.3-3.39c.28-2.21.74-5.46,1.35-9.64,1.23-8.37,3.11-20.45,5.49-35.38C224.5,402.3,231.32,361.11,238.94,315.64Z" style="fill:#ebebeb"></path><path d="M228.8,313.11c14.65-43.74,27.91-83.32,37.53-112,4.72-14.33,8.54-25.94,11.2-34,1.28-4,2.28-7.12,3-9.27l.75-2.42a6.93,6.93,0,0,0,.22-.84,4.8,4.8,0,0,0-.32.81l-.84,2.38c-.73,2.14-1.78,5.24-3.13,9.22-2.66,8.06-6.49,19.66-11.23,34-9.34,28.78-22.24,68.48-36.48,112.35s-27.14,83.56-36.67,112.24c-4.77,14.34-8.68,25.93-11.44,33.91-1.39,4-2.48,7.09-3.25,9.18a17.71,17.71,0,0,1-1.3,3.15,17.94,17.94,0,0,1,.83-3.3c.63-2.14,1.59-5.28,2.85-9.31,2.54-8.07,6.29-19.71,11-34.07C200.89,396.41,214.12,356.81,228.8,313.11Z" style="fill:#ebebeb"></path><path d="M219.2,309l54.67-104.71,16.42-31.82c1.9-3.74,3.37-6.66,4.39-8.68.49-1,.86-1.73,1.12-2.27a4.27,4.27,0,0,0,.35-.79,4.1,4.1,0,0,0-.44.74l-1.21,2.23L290,172.33l-16.44,31.8-53.72,105.2c-20.93,41.08-39.95,78.25-53.88,105.07-7,13.41-12.64,24.24-16.63,31.7-2,3.72-3.56,6.61-4.65,8.55a16.52,16.52,0,0,1-1.77,2.9,18.77,18.77,0,0,1,1.34-3.12c1-2,2.4-5,4.29-8.74,3.77-7.57,9.31-18.47,16.22-31.92C178.53,386.89,197.83,349.87,219.2,309Z" style="fill:#ebebeb"></path><path d="M210.35,303.47l70.38-94.88,21.18-28.85,5.7-7.89,1.46-2.07a6.73,6.73,0,0,0,.47-.73,5.19,5.19,0,0,0-.55.67l-1.54,2-5.83,7.8-21.2,28.84-69.5,95.51c-27.1,37.3-51.7,71-69.65,95.35-9,12.16-16.28,22-21.38,28.71-2.55,3.37-4.55,6-5.93,7.72a16.85,16.85,0,0,1-2.2,2.59,17.82,17.82,0,0,1,1.81-2.88c1.26-1.84,3.15-4.52,5.6-8,4.91-6.89,12.08-16.79,21-29C158,374,182.86,340.47,210.35,303.47Z" style="fill:#ebebeb"></path><path d="M202.49,296.61c32.9-32.33,62.68-61.58,84.27-82.78l25.41-25.21,6.86-6.9,1.76-1.82a5.33,5.33,0,0,0,.58-.64,4.92,4.92,0,0,0-.65.57l-1.83,1.74-7,6.8-25.43,25.19L203,297.1c-32.57,32.63-62.12,62.13-83.63,83.36-10.75,10.62-19.5,19.17-25.59,25-3,2.93-5.42,5.2-7.05,6.71a18.45,18.45,0,0,1-2.58,2.22,17.37,17.37,0,0,1,2.24-2.56c1.52-1.62,3.81-4,6.77-7,5.91-6,14.54-14.71,25.25-25.37C139.81,358.17,169.57,328.89,202.49,296.61Z" style="fill:#ebebeb"></path><path d="M195.78,288.61,291.9,220l29-20.95,7.85-5.76,2-1.51a6.52,6.52,0,0,0,.67-.55,4.43,4.43,0,0,0-.73.46l-2.08,1.44-7.94,5.63-29,20.93-95.49,69.53c-37.25,27.17-71,51.72-95.58,69.34-12.27,8.82-22.24,15.9-29.16,20.75-3.47,2.42-6.17,4.29-8,5.53a17.06,17.06,0,0,1-2.89,1.78,18.92,18.92,0,0,1,2.61-2.18c1.76-1.36,4.38-3.34,7.77-5.86,6.79-5,16.66-12.26,28.9-21.12C124.29,339.67,158.24,315.38,195.78,288.61Z" style="fill:#ebebeb"></path><path d="M190.4,279.66l105.68-52.78L328,210.72l8.65-4.45,2.24-1.19a5.19,5.19,0,0,0,.75-.44,5.72,5.72,0,0,0-.8.35l-2.28,1.09-8.72,4.32-32,16.13L190.72,280.28c-41,21-78.23,40-105.24,53.55C72,340.62,61,346.06,53.43,349.76c-3.8,1.85-6.76,3.27-8.78,4.21a19.19,19.19,0,0,1-3.14,1.31,16.46,16.46,0,0,1,2.92-1.75c2-1.07,4.85-2.61,8.59-4.57,7.49-3.92,18.37-9.51,31.84-16.35C111.81,318.92,149.14,300.23,190.4,279.66Z" style="fill:#ebebeb"></path><path d="M186.5,270l112.66-35.5,34.09-10.92,9.24-3.05,2.4-.81a4,4,0,0,0,.8-.32,6,6,0,0,0-.84.21l-2.42.73-9.29,2.89L299,234.11,186.71,270.65C142.88,284.94,103.16,297.82,74.36,307,60,311.55,48.28,315.2,40.2,317.66c-4.05,1.23-7.19,2.16-9.34,2.77a17.1,17.1,0,0,1-3.3.8A17.63,17.63,0,0,1,30.72,320c2.09-.76,5.2-1.82,9.2-3.17,8-2.69,19.64-6.5,34-11.14C102.7,296.38,142.51,283.8,186.5,270Z" style="fill:#ebebeb"></path><path d="M184.16,259.81,301,242.47l35.38-5.42L346,235.5l2.49-.43a5.63,5.63,0,0,0,.85-.19,6.66,6.66,0,0,0-.86.08l-2.51.34-9.63,1.39L301,242.09l-116.68,18.4c-45.54,7.22-86.78,13.69-116.67,18.2-14.94,2.25-27,4-35.42,5.18-4.18.58-7.44,1-9.65,1.27a17.89,17.89,0,0,1-3.39.27,18.09,18.09,0,0,1,3.32-.75c2.18-.42,5.42-1,9.59-1.68,8.33-1.4,20.41-3.33,35.34-5.65C97.26,272.69,138.55,266.53,184.16,259.81Z" style="fill:#ebebeb"></path><path d="M183.45,249.39l118.12,1,35.79.13,9.74,0,2.53,0a7,7,0,0,0,.86,0,4.73,4.73,0,0,0-.86-.06l-2.53-.06-9.74-.11L301.57,250l-118.13.07c-46.1.07-87.85.06-118.07-.13-15.11-.09-27.34-.22-35.79-.37-4.23-.08-7.51-.16-9.74-.24a18,18,0,0,1-3.39-.25,17.26,17.26,0,0,1,3.39-.23c2.23-.07,5.51-.12,9.74-.16,8.45-.09,20.68-.12,35.79-.1C95.6,248.65,137.35,249,183.45,249.39Z" style="fill:#ebebeb"></path><path d="M184.35,239l116.53,19.34L336.22,264l9.62,1.48,2.51.35a4.67,4.67,0,0,0,.86.09,5.24,5.24,0,0,0-.84-.19l-2.49-.45-9.6-1.63-35.34-5.71-116.7-18.27c-45.55-7.1-86.79-13.59-116.62-18.47-14.91-2.44-27-4.46-35.3-5.93-4.16-.73-7.39-1.32-9.58-1.75a18.22,18.22,0,0,1-3.31-.78,16.85,16.85,0,0,1,3.39.3c2.21.28,5.46.73,9.64,1.34,8.37,1.23,20.45,3.09,35.38,5.47C97.69,224.59,138.88,231.4,184.35,239Z" style="fill:#ebebeb"></path><path d="M186.88,228.84l112,37.45,34,11.18,9.27,3,2.42.75a6.93,6.93,0,0,0,.84.22,4.88,4.88,0,0,0-.8-.32l-2.39-.84L333,277.13l-34-11.21L186.66,229.51c-43.87-14.18-83.57-27.09-112.26-36.6-14.35-4.76-25.94-8.66-33.93-11.42-4-1.38-7.09-2.47-9.18-3.24a16.08,16.08,0,0,1-3.14-1.3,18.16,18.16,0,0,1,3.3.83c2.13.63,5.27,1.58,9.31,2.85,8.06,2.52,19.71,6.27,34.07,11C103.56,201,143.17,214.19,186.88,228.84Z" style="fill:#ebebeb"></path><path d="M191,219.24l104.74,54.6,31.82,16.4,8.69,4.39,2.27,1.12a4.56,4.56,0,0,0,.79.34,6.48,6.48,0,0,0-.74-.44l-2.23-1.2-8.62-4.53L295.88,273.5,190.65,219.85C149.56,198.94,112.38,180,85.55,166c-13.42-6.95-24.25-12.63-31.71-16.61-3.73-2-6.61-3.56-8.56-4.65a16.52,16.52,0,0,1-2.9-1.77,18.27,18.27,0,0,1,3.13,1.35c2,.95,5,2.39,8.74,4.27,7.57,3.77,18.48,9.3,31.92,16.2C113.07,178.62,150.1,197.89,191,219.24Z" style="fill:#ebebeb"></path><path d="M196.51,210.39l94.92,70.31,28.87,21.17,7.89,5.69,2.07,1.46a5.71,5.71,0,0,0,.73.47,5.67,5.67,0,0,0-.67-.56l-2-1.53-7.8-5.82-28.86-21.19L196.1,211c-37.32-27.07-71.07-51.65-95.4-69.58-12.16-9-22-16.27-28.72-21.36-3.37-2.55-6-4.55-7.72-5.93a18.14,18.14,0,0,1-2.6-2.2,17.82,17.82,0,0,1,2.88,1.81c1.84,1.26,4.53,3.14,8,5.59,6.89,4.91,16.8,12.08,29,21C125.92,158.09,159.49,182.92,196.51,210.39Z" style="fill:#ebebeb"></path><path d="M203.37,202.52l82.82,84.21,25.23,25.4,6.91,6.86,1.81,1.76a4.92,4.92,0,0,0,.65.57,6.18,6.18,0,0,0-.57-.65l-1.75-1.83-6.8-7-25.21-25.41L202.87,203c-32.65-32.55-62.17-62.08-83.41-83.58-10.62-10.74-19.18-19.48-25-25.57-2.93-3-5.2-5.42-6.71-7a17.77,17.77,0,0,1-2.22-2.58A17.37,17.37,0,0,1,88,86.47c1.62,1.53,4,3.81,7,6.76,6,5.92,14.72,14.54,25.39,25.24C141.76,139.88,171.06,169.62,203.37,202.52Z" style="fill:#ebebeb"></path><path d="M211.36,195.8l68.72,96.08,21,29c2.48,3.39,4.42,6,5.76,7.85l1.52,2a4.89,4.89,0,0,0,.54.67,4.43,4.43,0,0,0-.46-.73L307,328.62c-1.31-1.84-3.2-4.51-5.64-7.93l-20.94-29-69.6-95.45C183.6,159,159,125.23,141.4,100.68c-8.83-12.27-15.92-22.23-20.77-29.15-2.43-3.46-4.29-6.16-5.53-8a17.46,17.46,0,0,1-1.79-2.9,17.29,17.29,0,0,1,2.18,2.61c1.36,1.76,3.34,4.38,5.87,7.77,5,6.79,12.27,16.65,21.14,28.89C160.25,124.35,184.57,158.29,211.36,195.8Z" style="fill:#ebebeb"></path><path d="M220.3,190.42c20.64,41.25,39.32,78.58,52.85,105.64,6.82,13.47,12.34,24.37,16.18,31.94l4.46,8.65c.51,1,.9,1.7,1.19,2.23a6.69,6.69,0,0,0,.43.75,4.8,4.8,0,0,0-.34-.8c-.26-.54-.62-1.3-1.1-2.28l-4.32-8.72L273.5,295.89C259.71,269,240.69,231.8,219.68,190.74s-40-78.21-53.61-105.21c-6.8-13.49-12.25-24.44-16-32-1.85-3.8-3.27-6.76-4.21-8.78a17.36,17.36,0,0,1-1.31-3.14,18.45,18.45,0,0,1,1.75,2.92c1.07,1.95,2.62,4.85,4.58,8.59,3.92,7.49,9.52,18.37,16.37,31.84C181,111.85,199.71,149.17,220.3,190.42Z" style="fill:#ebebeb"></path><path d="M230,186.51l35.57,112.64c4.62,14.37,8.35,26,10.95,34.08,1.32,4,2.34,7.1,3.05,9.24.35,1,.62,1.83.82,2.4a4.58,4.58,0,0,0,.31.8,4.39,4.39,0,0,0-.21-.83c-.17-.58-.41-1.39-.73-2.43-.67-2.16-1.64-5.28-2.9-9.29-2.59-8.08-6.31-19.72-10.92-34.09L229.31,186.72C215,142.9,202.09,103.2,192.92,74.4c-4.59-14.4-8.25-26.07-10.71-34.16-1.24-4-2.17-7.19-2.78-9.33a16.89,16.89,0,0,1-.8-3.31,18.48,18.48,0,0,1,1.27,3.16c.75,2.1,1.82,5.2,3.17,9.2,2.7,8,6.51,19.64,11.16,34C203.53,102.73,216.13,142.53,230,186.51Z" style="fill:#ebebeb"></path><path d="M240.15,184.17C247,229.79,253.1,271.08,257.56,301c2.3,14.92,4.16,27,5.45,35.38l1.55,9.61c.19,1.07.33,1.9.44,2.49a5.09,5.09,0,0,0,.18.85,4.94,4.94,0,0,0-.08-.86c-.08-.6-.19-1.43-.33-2.51-.33-2.24-.8-5.47-1.41-9.63-1.28-8.39-3.13-20.47-5.42-35.39-4.73-29.88-11.26-71.11-18.48-116.67S225.72,97.5,221.2,67.62c-2.26-14.94-4-27-5.21-35.42-.58-4.18-1-7.44-1.27-9.65a16.87,16.87,0,0,1-.27-3.39,18.09,18.09,0,0,1,.75,3.32c.41,2.19,1,5.42,1.68,9.59,1.41,8.33,3.35,20.41,5.67,35.34C227.21,97.27,233.4,138.56,240.15,184.17Z" style="fill:#ebebeb"></path><path d="M250.57,183.45c-.36,46.12-.68,87.86-.91,118.12,0,15.09-.09,27.31-.11,35.79,0,4.21,0,7.48,0,9.74,0,1.09,0,1.92,0,2.53a4.35,4.35,0,0,0,.05.86,5.65,5.65,0,0,0,0-.86c0-.6,0-1.44.06-2.53,0-2.26.06-5.53.1-9.74,0-8.48.08-20.7.13-35.79,0-30.26-.09-72-.15-118.13s-.1-87.85.06-118.07c.08-15.11.2-27.34.35-35.79.07-4.23.15-7.51.24-9.74a17,17,0,0,1,.25-3.39,17.93,17.93,0,0,1,.22,3.39c.07,2.23.13,5.51.18,9.74.09,8.45.13,20.68.11,35.79C251.25,95.6,251,137.35,250.57,183.45Z" style="fill:#ebebeb"></path><path d="M261,184.35c-7.52,45.5-14.33,86.69-19.26,116.54-2.39,14.9-4.33,27-5.67,35.34-.63,4.16-1.13,7.39-1.47,9.62-.15,1.08-.26,1.92-.35,2.51a5.08,5.08,0,0,0-.08.86,5.24,5.24,0,0,0,.19-.84q.15-.88.45-2.49c.37-2.23.92-5.45,1.62-9.6,1.34-8.38,3.29-20.44,5.68-35.34,4.67-29.9,11.1-71.14,18.2-116.71S273.82,97.43,278.68,67.6c2.43-14.91,4.45-27,5.91-35.3.73-4.17,1.32-7.4,1.75-9.58a16.67,16.67,0,0,1,.78-3.31,17.87,17.87,0,0,1-.3,3.39c-.28,2.21-.73,5.46-1.34,9.64-1.22,8.36-3.08,20.45-5.45,35.38C275.31,97.67,268.53,138.87,261,184.35Z" style="fill:#ebebeb"></path><path d="M271.12,186.87c-14.6,43.75-27.81,83.35-37.38,112.05-4.71,14.34-8.51,25.95-11.16,34-1.28,4-2.28,7.12-3,9.27-.32,1-.57,1.85-.75,2.42a4.35,4.35,0,0,0-.21.84s.12-.27.32-.8.47-1.36.84-2.39c.72-2.14,1.76-5.24,3.11-9.23,2.65-8.06,6.46-19.66,11.18-34l36.34-112.39c14.15-43.88,27-83.59,36.53-112.29,4.74-14.34,8.64-25.94,11.39-33.93,1.38-4,2.47-7.09,3.24-9.18a17.85,17.85,0,0,1,1.29-3.15,17.25,17.25,0,0,1-.82,3.3c-.62,2.14-1.58,5.28-2.84,9.31-2.52,8.07-6.26,19.72-10.95,34.08C298.93,103.53,285.75,143.14,271.12,186.87Z" style="fill:#ebebeb"></path><path d="M280.73,191c-21.3,40.91-40.57,77.94-54.54,104.78l-16.38,31.83-4.38,8.69-1.12,2.27a4.56,4.56,0,0,0-.34.79,6.48,6.48,0,0,0,.44-.74l1.2-2.23,4.52-8.62,16.4-31.82,53.58-105.27C301,149.53,320,112.34,333.86,85.5c6.94-13.43,12.61-24.26,16.59-31.72,2-3.73,3.55-6.62,4.63-8.56a18.09,18.09,0,0,1,1.77-2.91,16.64,16.64,0,0,1-1.34,3.13c-.95,2-2.39,5-4.27,8.75-3.76,7.57-9.28,18.48-16.17,31.93C321.29,113,302.05,150.07,280.73,191Z" style="fill:#ebebeb"></path><path d="M289.58,196.49c-27.43,37.08-52.26,70.63-70.25,95l-21.15,28.88-5.69,7.9L191,330.3a4.7,4.7,0,0,0-.46.72,5.56,5.56,0,0,0,.55-.66l1.53-2,5.82-7.81,21.16-28.87c17.78-24.48,42.29-58.27,69.39-95.6s51.6-71.1,69.52-95.44c8.95-12.17,16.25-22,21.34-28.73,2.55-3.37,4.54-6,5.92-7.73a18.14,18.14,0,0,1,2.2-2.6,17.57,17.57,0,0,1-1.81,2.89c-1.25,1.84-3.14,4.52-5.59,8-4.89,6.89-12.06,16.8-21,29C341.83,125.86,317,159.44,289.58,196.49Z" style="fill:#ebebeb"></path><path d="M297.46,203.33l-84.17,82.89-25.38,25.24-6.85,6.91-1.76,1.82a5.33,5.33,0,0,0-.58.64,4.92,4.92,0,0,0,.65-.57c.44-.41,1-1,1.83-1.75l7-6.8,25.4-25.23L297,202.84c32.52-32.67,62-62.21,83.51-83.46C391.23,108.75,400,100.18,406,94.31c3-2.94,5.42-5.2,7-6.71a17.55,17.55,0,0,1,2.58-2.23,18.72,18.72,0,0,1-2.24,2.57c-1.53,1.62-3.81,4-6.76,7-5.91,6-14.53,14.73-25.23,25.4C360.05,141.69,330.33,171,297.46,203.33Z" style="fill:#ebebeb"></path><path d="M304.17,211.32l-96,68.79-29,21-7.84,5.77-2,1.52a4.39,4.39,0,0,0-.67.55,5.17,5.17,0,0,0,.73-.47l2.08-1.44,7.93-5.64,29-21,95.4-69.65c37.22-27.21,71-51.8,95.49-69.46,12.26-8.83,22.22-15.93,29.14-20.79,3.46-2.42,6.16-4.29,8-5.53a17.7,17.7,0,0,1,2.89-1.79,18.92,18.92,0,0,1-2.61,2.18c-1.76,1.37-4.38,3.35-7.77,5.87-6.77,5.05-16.64,12.28-28.86,21.17C375.6,160.17,341.67,184.51,304.17,211.32Z" style="fill:#ebebeb"></path><path d="M309.56,220.26,204,273.18,172,289.38l-8.65,4.47L161.15,295c-.5.28-.75.43-.75.44a4.8,4.8,0,0,0,.8-.34l2.28-1.1,8.71-4.33,31.94-16.17,105.12-53.89c41-21.06,78.17-40.08,105.16-53.68,13.5-6.8,24.44-12.26,32-16,3.79-1.86,6.75-3.28,8.77-4.22a16.45,16.45,0,0,1,3.14-1.31,18.78,18.78,0,0,1-2.92,1.75c-1.95,1.07-4.84,2.62-8.59,4.58-7.48,3.93-18.35,9.53-31.82,16.39C388.1,180.91,350.79,199.64,309.56,220.26Z" style="fill:#ebebeb"></path><path d="M313.48,229.94,200.86,265.58l-34.07,11-9.24,3.06-2.4.82a6.78,6.78,0,0,0-.8.31,4.56,4.56,0,0,0,.84-.21l2.42-.73,9.29-2.9L201,266l112.29-36.68c43.81-14.35,83.51-27.28,112.3-36.46,14.39-4.6,26.06-8.27,34.15-10.74,4-1.23,7.18-2.17,9.33-2.78a17.79,17.79,0,0,1,3.3-.81,17.12,17.12,0,0,1-3.15,1.27c-2.1.76-5.2,1.83-9.21,3.18-8,2.7-19.62,6.53-34,11.18C397.24,203.43,357.44,216.06,313.48,229.94Z" style="fill:#ebebeb"></path><path d="M315.83,240.11,199,257.59l-35.37,5.48L154,264.63l-2.49.43a6.85,6.85,0,0,0-.85.18,4.23,4.23,0,0,0,.86-.07l2.51-.34,9.63-1.41L199.06,258l116.66-18.55c45.53-7.27,86.76-13.8,116.64-18.34,14.94-2.27,27-4.06,35.42-5.22,4.18-.59,7.43-1,9.65-1.29a16.84,16.84,0,0,1,3.39-.27,18.5,18.5,0,0,1-3.32.76c-2.19.41-5.42,1-9.59,1.68-8.33,1.41-20.41,3.36-35.34,5.69C402.71,227.11,361.43,233.32,315.83,240.11Z" style="fill:#ebebeb"></path><path d="M65.67,310.59a6.23,6.23,0,0,1-1.18.35A9.69,9.69,0,0,1,61,311a11.3,11.3,0,0,1-5.15-2.16,10,10,0,0,1-3.87-6.24,11.38,11.38,0,0,1,2-8.67,8.77,8.77,0,0,1,4-3.12,6.62,6.62,0,0,1,2.67-.41,4.17,4.17,0,0,1,2.57,1.1,4.76,4.76,0,0,1,.72,5.46,8.46,8.46,0,0,1-4.4,3.88,11.86,11.86,0,0,1-11.82-1.57A11.68,11.68,0,0,1,43.69,288a10,10,0,0,1,2.69-5.22,6.3,6.3,0,0,1,2.47-1.53,4.89,4.89,0,0,1,2.86,0A4,4,0,0,1,53.94,283a4,4,0,0,1,.47,2.69,6.06,6.06,0,0,1-2.88,4.13A8.1,8.1,0,0,1,47,291a8.39,8.39,0,0,1-4.12-1.41,11.73,11.73,0,0,1-4.43-5.9,17.38,17.38,0,0,1-.92-5.52,22.78,22.78,0,0,1,.38-4.75,1,1,0,0,1,0,.31c0,.24,0,.54-.07.92a31.27,31.27,0,0,0-.09,3.51,17.61,17.61,0,0,0,1,5.43A11.44,11.44,0,0,0,43,289.22,7.9,7.9,0,0,0,47,290.53a7.59,7.59,0,0,0,4.32-1.12,5.57,5.57,0,0,0,2.64-3.82,3.55,3.55,0,0,0-.41-2.35,3.46,3.46,0,0,0-2-1.46,4.35,4.35,0,0,0-2.55,0,5.77,5.77,0,0,0-2.27,1.42,9.51,9.51,0,0,0-2.52,4.95A11.17,11.17,0,0,0,48,298.86a11.33,11.33,0,0,0,11.26,1.49,8,8,0,0,0,4.14-3.61,4.26,4.26,0,0,0-.6-4.87,3.61,3.61,0,0,0-2.26-1,6,6,0,0,0-2.46.37,8.29,8.29,0,0,0-3.78,2.93,11,11,0,0,0-1.95,8.33A9.6,9.6,0,0,0,56,308.6a11.09,11.09,0,0,0,5,2.2,10.09,10.09,0,0,0,3.48,0C65.26,310.7,65.67,310.56,65.67,310.59Z" style="fill:#e0e0e0"></path><path d="M60.39,120c-11.43-6-21-18.23-27.56-29.4S24,65.45,28.44,53.3s16.1-21.82,29-22.16C71.31,30.76,84.06,41,89.1,53.92s.87,29.9-6.72,41.49c-8.56,13.08-10.93,17.39-22,24.58" style="fill:#e0e0e0"></path><path d="M65.34,122.36a13.05,13.05,0,0,1-3.68-5.82l-1.21,1.3c-1.39,1.33-2.54,5-2.9,6.89-.11.55-.1,1.24.39,1.51s1.16-.15,1.48-.65a4.17,4.17,0,0,1,1-1.43A4.49,4.49,0,0,0,60.7,126a1.28,1.28,0,0,0,2.5-.51,4.2,4.2,0,0,0-.5-1.81,4.42,4.42,0,0,0,1.73,1.52,1.5,1.5,0,0,0,1.94-.75C66.6,123.66,65.93,122.93,65.34,122.36Z" style="fill:#e0e0e0"></path><path d="M62.87,118.31c.18.12-.42,1-1.67,1.31s-2.18-.33-2.07-.52.93,0,1.9-.27S62.7,118.15,62.87,118.31Z" style="fill:#ebebeb"></path><path d="M86,67.57a9.34,9.34,0,0,1-.1,2,52,52,0,0,1-.77,5.26,71.35,71.35,0,0,1-5.47,16.69,72.09,72.09,0,0,1-9.39,14.84c-1.44,1.73-2.67,3.07-3.57,4a9.24,9.24,0,0,1-1.45,1.31c-.1-.1,1.83-2.09,4.57-5.62a81.06,81.06,0,0,0,9.1-14.83,80.18,80.18,0,0,0,5.64-16.45C85.54,70.32,85.85,67.56,86,67.57Z" style="fill:#f5f5f5"></path><path d="M84,53c.22,0,.79,1.77,1.27,4s.7,4.17.48,4.21-.79-1.76-1.27-4S83.74,53,84,53Z" style="fill:#f5f5f5"></path><path d="M93.7,275.58a2.2,2.2,0,0,1-.27-.37c-.19-.3-.43-.68-.74-1.15a19.07,19.07,0,0,1-1.82-4.91c-1-4.45-.47-11.38,3.09-18.75a81.57,81.57,0,0,1,7-11.29,113.75,113.75,0,0,0,8.24-12.71c5-9.36,6.27-21.88,2.38-33.54a52.2,52.2,0,0,0-21-26.67c-4.47-2.9-9.06-5.15-13.07-7.78a31.63,31.63,0,0,1-9.65-9.12,34.17,34.17,0,0,1-4.38-10.06,58.41,58.41,0,0,1-1.54-8.13c-.27-2.26-.38-4-.46-5.21q0-.83-.06-1.35a1.53,1.53,0,0,1,0-.47,2.19,2.19,0,0,1,.07.46c0,.35.08.8.14,1.35.13,1.19.29,2.94.62,5.18a60.76,60.76,0,0,0,1.65,8.05A34.3,34.3,0,0,0,68.33,149a31,31,0,0,0,9.54,8.88c4,2.57,8.57,4.79,13.1,7.71a52.7,52.7,0,0,1,21.39,27.05c4,11.86,2.66,24.62-2.49,34.13a112.24,112.24,0,0,1-8.35,12.76,81.38,81.38,0,0,0-7,11.15c-3.58,7.24-4.2,14-3.3,18.44A20.82,20.82,0,0,0,93.7,275.58Z" style="fill:#e0e0e0"></path><path d="M420.78,277.3c11.79-1.44,24-8.77,33.26-16.23S469.8,242.35,470,230.48s-6.7-24-17.68-28.5c-11.77-4.84-26.06-.19-34.6,9.24s-10.5,25.39-7.77,37.81c3.08,14,3.71,18.5,10.85,28.27" style="fill:#e0e0e0"></path><path d="M415.76,277.73a11.88,11.88,0,0,0,5.06-3.8l.61,1.52c.77,1.59.56,5.11.25,6.86-.09.5-.32,1.09-.83,1.16s-.94-.5-1.06-1a3.73,3.73,0,0,0-.42-1.56,3.86,3.86,0,0,1-.81,1.49,1.18,1.18,0,0,1-2-1.25,3.86,3.86,0,0,1,1-1.39,4,4,0,0,1-2,.73c-.71,0-1.47-.56-1.42-1.27S415.07,278,415.76,277.73Z" style="fill:#e0e0e0"></path><path d="M419.2,275.05c-.19.05,0,1.05,1,1.68s2,.42,1.94.23-.77-.35-1.53-.86S419.4,275,419.2,275.05Z" style="fill:#ebebeb"></path><path d="M415.91,224a9.07,9.07,0,0,0-.56,1.71,48.8,48.8,0,0,0-1.05,4.78,65.33,65.33,0,0,0,2.47,31.91c.67,1.95,1.28,3.51,1.77,4.56a7.91,7.91,0,0,0,.82,1.6c.12-.06-.89-2.4-2.09-6.32a72.53,72.53,0,0,1-2.45-31.67C415.41,226.46,416,224,415.91,224Z" style="fill:#f5f5f5"></path><path d="M422.43,212.07c-.17-.12-1.25,1.25-2.41,3.05s-2,3.35-1.79,3.46,1.25-1.25,2.41-3.05S422.6,212.18,422.43,212.07Z" style="fill:#f5f5f5"></path><path d="M341.41,400a2.41,2.41,0,0,0,.35-.24l1-.74a17.31,17.31,0,0,0,3.16-3.62c2.33-3.49,4.12-9.62,3.47-17.11a74.09,74.09,0,0,0-2.33-12,104.59,104.59,0,0,1-2.92-13.6c-1.26-9.67,1.75-20.83,8.9-29.57a47.89,47.89,0,0,1,26.75-16c4.78-1,9.46-1.47,13.76-2.42A29.08,29.08,0,0,0,404.82,300a32,32,0,0,0,7.05-7.2,54.64,54.64,0,0,0,4-6.49c1-1.84,1.64-3.32,2.09-4.31.21-.47.37-.85.5-1.15a2.17,2.17,0,0,0,.14-.4,2.42,2.42,0,0,0-.21.37L417.8,282c-.5,1-1.21,2.43-2.22,4.24a55,55,0,0,1-4.05,6.38,31.65,31.65,0,0,1-7,7,28.88,28.88,0,0,1-11.09,4.51c-4.26.91-8.93,1.32-13.77,2.34a48.43,48.43,0,0,0-27.19,16.24c-7.28,8.89-10.32,20.27-9,30.12a100.91,100.91,0,0,0,3,13.68,74.34,74.34,0,0,1,2.4,11.87c.71,7.38-1,13.42-3.18,16.9A19.61,19.61,0,0,1,341.41,400Z" style="fill:#e0e0e0"></path><path d="M444.43,358.39c.4-.32,1.1-.59,1.51-.29s.65.9.42,1.25a2.5,2.5,0,0,1-1,.78,1.18,1.18,0,0,1,1.24.29,1,1,0,0,1,.12,1.24.91.91,0,0,1-.66.37,3,3,0,0,1,.87.31,1.39,1.39,0,0,1,.75,1.16,1.34,1.34,0,0,1-1.31,1.16,2.84,2.84,0,0,1-1.76-.66,14.22,14.22,0,0,0-1.53-1.15,1.57,1.57,0,0,0-1.88.43l-.82-1.45C442.16,361.69,443.2,359.38,444.43,358.39Z" style="fill:#ebebeb"></path><path d="M444.43,358.39s-.36.39-.92,1.16a17.13,17.13,0,0,1-1.09,1.34,3.32,3.32,0,0,1-2,1.15l.17-.32.83,1.45-.39,0a1.91,1.91,0,0,1,1.25-.67,1.71,1.71,0,0,1,.77.08,3.39,3.39,0,0,1,.63.38,6.41,6.41,0,0,0,2.3,1.45c.7.19,1.5-.33,1.46-.94a1.16,1.16,0,0,0-.48-.79,2.39,2.39,0,0,0-.93-.37l-1.8-.4,1.82-.08a.7.7,0,0,0,.54-1,1,1,0,0,0-1.14-.44l-.16-.35c.57-.29,1.14-.63,1-1.09s-.42-.81-.76-.79a2.86,2.86,0,0,0-1.07.31s.05-.1.22-.22a1.68,1.68,0,0,1,.85-.31.85.85,0,0,1,.66.24,1.57,1.57,0,0,1,.41.7,1.05,1.05,0,0,1,0,.5,1.13,1.13,0,0,1-.29.43,3.35,3.35,0,0,1-.82.57l-.16-.36a1.36,1.36,0,0,1,1.66.62,1.26,1.26,0,0,1,.05,1.06,1.13,1.13,0,0,1-.93.65l0-.48a2,2,0,0,1,1.82,1.61,1.64,1.64,0,0,1-2.07,1.48,6.62,6.62,0,0,1-2.5-1.55,1.33,1.33,0,0,0-1.05-.38,1.39,1.39,0,0,0-.93.48l-.23.26-.16-.29-.8-1.47-.16-.29.33,0a3,3,0,0,0,1.81-1c.47-.46.83-.91,1.15-1.26C443.94,358.66,444.4,358.35,444.43,358.39Z" style="fill:#e0e0e0"></path><path d="M409.3,375.39l1.17,14.9a6.18,6.18,0,0,0,6.65,5.68h0c3,.25,5.82-3.09,5.68-6.65l-1.17-14.89a6.18,6.18,0,0,0-6.65-5.68h0A6.18,6.18,0,0,0,409.3,375.39Z" style="fill:#ebebeb"></path><path d="M409.3,375.39a3,3,0,0,1-.06-.7,5.74,5.74,0,0,1,.35-2,6.15,6.15,0,0,1,1.81-2.64,6.24,6.24,0,0,1,3.94-1.52,6.4,6.4,0,0,1,4.73,1.92,6.51,6.51,0,0,1,1.5,2.5,13.91,13.91,0,0,1,.42,3c.33,4.1.69,8.61,1.07,13.34a7.18,7.18,0,0,1-3.15,6.14,5.29,5.29,0,0,1-1.61.67,4.27,4.27,0,0,1-.87.08h-.81a6.37,6.37,0,0,1-3.14-.83,6.7,6.7,0,0,1-2.24-2.12,6.48,6.48,0,0,1-1-2.75c-.13-1.82-.26-3.52-.37-5.08-.21-3.06-.38-5.56-.5-7.35,0-.83-.08-1.5-.11-2a3.19,3.19,0,0,1,0-.7,3.07,3.07,0,0,1,.11.7c0,.5.12,1.17.2,2,.16,1.79.39,4.28.66,7.34.14,1.55.28,3.24.44,5.06a6.15,6.15,0,0,0,.92,2.55,6.25,6.25,0,0,0,2.09,2,6.1,6.1,0,0,0,2.9.75l.39,0h.42a3.84,3.84,0,0,0,.76-.07,5,5,0,0,0,1.45-.61,6.71,6.71,0,0,0,2.9-5.68c-.37-4.73-.71-9.23-1-13.34a13.39,13.39,0,0,0-.38-2.92,6.12,6.12,0,0,0-1.37-2.33,6,6,0,0,0-10,2A8,8,0,0,0,409.3,375.39Z" style="fill:#e0e0e0"></path><rect x="380.5" y="387.36" width="3.33" height="12.59" rx="1.5" transform="translate(-142.39 554.45) rotate(-62.89)" style="fill:#ebebeb"></rect><path d="M377.14,393s-.5-.07-.83-.81a1.64,1.64,0,0,1,.12-1.4,1.68,1.68,0,0,1,1.49-1.1,1.91,1.91,0,0,1,1.08.3c.33.16.67.32,1,.5l2.23,1.11,5.08,2.58a1.77,1.77,0,0,1,.82,2.23,3.61,3.61,0,0,1-.38.69,1.74,1.74,0,0,1-2.18.5l-.59-.31-4.12-2.17-2.75-1.5a4.87,4.87,0,0,1-1-.62,5.17,5.17,0,0,1,1.07.44l2.83,1.35,4.17,2.07.59.3a1.31,1.31,0,0,0,.55.13,1.22,1.22,0,0,0,1-.5,3.19,3.19,0,0,0,.31-.58,1.18,1.18,0,0,0,.09-.59,1.26,1.26,0,0,0-.67-1L382,392l-2.2-1.15-1-.53a1.6,1.6,0,0,0-.89-.28,1.41,1.41,0,0,0-1.25.86,1.45,1.45,0,0,0-.18,1.2A1.92,1.92,0,0,0,377.14,393Z" style="fill:#e0e0e0"></path><rect x="383.81" y="390.24" width="10.87" height="14.08" rx="4.89" transform="translate(-141.75 562.76) rotate(-62.89)" style="fill:#ebebeb"></rect><path d="M395.26,401s0,.15-.16.4a4.86,4.86,0,0,1-.74,1,5,5,0,0,1-4.19,1.41,4.76,4.76,0,0,1-1.46-.43l-1.43-.71-1.53-.77a14.47,14.47,0,0,1-1.62-.88,5.15,5.15,0,0,1-2-5.52,10.47,10.47,0,0,1,.89-2,5.15,5.15,0,0,1,3.35-2.65,5.24,5.24,0,0,1,3.93.61l3.12,1.63a5.15,5.15,0,0,1,2.34,2.08,4.93,4.93,0,0,1,.33,4.41,10.18,10.18,0,0,1-.57,1.07c-.14.24-.22.36-.24.35s.24-.54.62-1.5a4.8,4.8,0,0,0-.45-4.14,5,5,0,0,0-2.22-1.89l-3.15-1.58a4.76,4.76,0,0,0-3.59-.54,4.67,4.67,0,0,0-3,2.38,10.33,10.33,0,0,0-.85,1.88,4.67,4.67,0,0,0,1.79,5,16.77,16.77,0,0,0,1.56.86l1.51.79a9,9,0,0,0,2.76,1.17,4.84,4.84,0,0,0,4-1.2A9.5,9.5,0,0,0,395.26,401Z" style="fill:#e0e0e0"></path><path d="M424.54,375.81l13.94-5.4a6.18,6.18,0,0,0,3.53-8h0c-.62-2.92-4.64-4.69-8-3.53l-13.93,5.4a6.16,6.16,0,0,0-3.53,8h0A6.16,6.16,0,0,0,424.54,375.81Z" style="fill:#ebebeb"></path><path d="M424.54,375.81a2.38,2.38,0,0,1-.65.27,6.06,6.06,0,0,1-2,.23,6.23,6.23,0,0,1-5.63-4.31,6.39,6.39,0,0,1,.47-5.09,6.67,6.67,0,0,1,2-2.15,13.43,13.43,0,0,1,2.78-1.27l12.47-4.85a7.19,7.19,0,0,1,6.79,1.24,5.92,5.92,0,0,1,1.1,1.35,4.31,4.31,0,0,1,.33.81c0,.12.09.32.11.38l.13.4a6.49,6.49,0,0,1,.11,3.24,6.64,6.64,0,0,1-1.4,2.76,6.5,6.5,0,0,1-2.35,1.71L434,372.35l-6.9,2.58-1.89.68a2.93,2.93,0,0,1-.67.2,5.27,5.27,0,0,1,.64-.3l1.85-.77,6.84-2.74,4.72-1.87A5.93,5.93,0,0,0,442,366a6,6,0,0,0-.11-3l-.13-.37-.12-.41a4.7,4.7,0,0,0-.29-.7,5,5,0,0,0-1-1.21,6.67,6.67,0,0,0-6.27-1.14l-12.48,4.81a13.27,13.27,0,0,0-2.69,1.2,6.12,6.12,0,0,0-1.84,2,6,6,0,0,0-.5,4.75,5.92,5.92,0,0,0,2.39,3.21,6.09,6.09,0,0,0,2.9,1A7.86,7.86,0,0,0,424.54,375.81Z" style="fill:#e0e0e0"></path><path d="M395.3,361.37l11.08,10a6.18,6.18,0,0,0,8.73-.43h0c2.33-1.86,2.11-6.24-.43-8.73l-11.07-10a6.18,6.18,0,0,0-8.73.43h0A6.17,6.17,0,0,0,395.3,361.37Z" style="fill:#ebebeb"></path><path d="M395.3,361.37a3.46,3.46,0,0,1-.52-.46,6.19,6.19,0,0,1-1.11-1.69,6.08,6.08,0,0,1-.49-3.16,6.22,6.22,0,0,1,1.82-3.81,6.46,6.46,0,0,1,4.76-1.85,6.68,6.68,0,0,1,2.8.79,13.66,13.66,0,0,1,2.38,1.91l9.93,9a7.2,7.2,0,0,1,1.93,6.63,5.33,5.33,0,0,1-.72,1.59,4,4,0,0,1-.57.66c-.09.08-.25.22-.28.26l-.3.3a6.38,6.38,0,0,1-2.86,1.55,6.58,6.58,0,0,1-3.09,0,6.49,6.49,0,0,1-2.58-1.34l-3.76-3.44-5.4-5-1.45-1.38a3.45,3.45,0,0,1-.49-.51,3.5,3.5,0,0,1,.56.43c.38.34.89.77,1.51,1.31l5.52,4.89,3.79,3.38a6.07,6.07,0,0,0,2.41,1.23,6.32,6.32,0,0,0,2.87,0,6.11,6.11,0,0,0,2.63-1.45l.27-.28.31-.29a3.85,3.85,0,0,0,.5-.57,4.78,4.78,0,0,0,.63-1.44,6.67,6.67,0,0,0-1.79-6.12l-9.89-9a13.21,13.21,0,0,0-2.28-1.86,6.18,6.18,0,0,0-2.6-.76,6,6,0,0,0-4.48,1.69,5.9,5.9,0,0,0-1.79,3.58,6.1,6.1,0,0,0,.38,3A7.94,7.94,0,0,0,395.3,361.37Z" style="fill:#e0e0e0"></path><path d="M415.6,405.29l8.75,12.11a6.18,6.18,0,0,0,8.63,1.39h0c2.66-1.33,3.36-5.67,1.39-8.63l-8.75-12.11a6.18,6.18,0,0,0-8.63-1.39h0A6.18,6.18,0,0,0,415.6,405.29Z" style="fill:#ebebeb"></path><path d="M415.6,405.29a3,3,0,0,1-.42-.56,6,6,0,0,1-.74-1.88,6.29,6.29,0,0,1,2.75-6.54,6.39,6.39,0,0,1,5-.83,6.55,6.55,0,0,1,2.58,1.35,13.27,13.27,0,0,1,1.93,2.36L434.59,410a7.18,7.18,0,0,1,.52,6.88,5.33,5.33,0,0,1-1,1.41,3.85,3.85,0,0,1-.7.52c-.11.07-.29.17-.33.21l-.36.22a6.39,6.39,0,0,1-3.11.93,6.67,6.67,0,0,1-3-.65,6.49,6.49,0,0,1-2.25-1.85l-3-4.14-4.25-6L416,405.89a3,3,0,0,1-.36-.6,3.48,3.48,0,0,1,.45.54l1.21,1.59,4.38,5.92,3,4.1a6.31,6.31,0,0,0,2.11,1.7,6.17,6.17,0,0,0,2.8.58,6,6,0,0,0,2.88-.87l.32-.21.36-.22a3.9,3.9,0,0,0,.61-.46,5.29,5.29,0,0,0,.92-1.27,6.72,6.72,0,0,0-.48-6.36c-2.78-3.85-5.41-7.52-7.82-10.86a13.07,13.07,0,0,0-1.84-2.29,6,6,0,0,0-7.12-.56,6,6,0,0,0-2.5,3.13,6.17,6.17,0,0,0-.25,3.06A7.67,7.67,0,0,0,415.6,405.29Z" style="fill:#e0e0e0"></path><path d="M390.31,411.39l.68,14.92a6.2,6.2,0,0,0,6.46,5.9h0c3,.34,5.92-2.9,5.89-6.46l-.68-14.93a6.17,6.17,0,0,0-6.45-5.89h0A6.19,6.19,0,0,0,390.31,411.39Z" style="fill:#ebebeb"></path><path d="M390.31,411.39a3.51,3.51,0,0,1,0-.71,5.88,5.88,0,0,1,.42-2,6.23,6.23,0,0,1,5.88-4,6.37,6.37,0,0,1,4.67,2.07,6.52,6.52,0,0,1,1.41,2.54,12.9,12.9,0,0,1,.32,3c.2,4.12.41,8.63.63,13.37a7.18,7.18,0,0,1-3.34,6,5.38,5.38,0,0,1-1.63.62,4.24,4.24,0,0,1-.87.05c-.13,0-.33,0-.39,0H397a6.34,6.34,0,0,1-5.28-3.13,6.46,6.46,0,0,1-.87-2.78c-.08-1.82-.15-3.53-.21-5.09-.11-3.06-.19-5.56-.26-7.36,0-.83,0-1.49,0-2a3.75,3.75,0,0,1,0-.7,3,3,0,0,1,.09.69c0,.51.08,1.17.14,2,.1,1.8.24,4.29.41,7.36.09,1.55.18,3.25.28,5.07a6,6,0,0,0,.83,2.58,6.19,6.19,0,0,0,2,2A6,6,0,0,0,397,432h.81a4,4,0,0,0,.77-.05,5.12,5.12,0,0,0,1.46-.56,6.7,6.7,0,0,0,3.08-5.58c-.21-4.74-.4-9.25-.59-13.37a13.07,13.07,0,0,0-.28-2.93,6,6,0,0,0-9.45-3.12,6.2,6.2,0,0,0-1.89,2.43A8,8,0,0,0,390.31,411.39Z" style="fill:#e0e0e0"></path><path d="M410.81,391,397,396.72a6.18,6.18,0,0,0-3.36,8.07h0c.67,2.9,4.73,4.58,8.07,3.36l13.81-5.7a6.18,6.18,0,0,0,3.36-8.07h0A6.19,6.19,0,0,0,410.81,391Z" style="fill:#ebebeb"></path><path d="M410.81,391a3.19,3.19,0,0,1,.65-.27,5.79,5.79,0,0,1,2-.28,6.16,6.16,0,0,1,3.06.91,6.25,6.25,0,0,1,2.66,3.29,6.44,6.44,0,0,1-.37,5.09,6.56,6.56,0,0,1-1.92,2.19,13.09,13.09,0,0,1-2.74,1.33l-12.37,5.12a7.18,7.18,0,0,1-6.81-1.11,5.15,5.15,0,0,1-1.13-1.33,3.81,3.81,0,0,1-.35-.8c0-.11-.09-.31-.12-.37l-.14-.39a6.42,6.42,0,0,1,1.16-6,6.42,6.42,0,0,1,2.32-1.76l4.72-1.92,6.85-2.73,1.87-.72a4.81,4.81,0,0,1,.66-.22,3,3,0,0,1-.62.32l-1.84.81L401.57,395l-4.68,2a6,6,0,0,0-3.36,4.25,6,6,0,0,0,.18,3l.13.37.13.4a4.34,4.34,0,0,0,.3.7,4.85,4.85,0,0,0,1,1.19,6.67,6.67,0,0,0,6.29,1L414,402.83a12.56,12.56,0,0,0,2.66-1.25,6.22,6.22,0,0,0,1.8-2,6,6,0,0,0,.4-4.76,5.94,5.94,0,0,0-2.46-3.16,6.15,6.15,0,0,0-2.92-1A8.19,8.19,0,0,0,410.81,391Z" style="fill:#e0e0e0"></path><path d="M433.72,411.77a14,14,0,0,1-1.68-2.06l-3.78-5.15-3.83-5.12a15.33,15.33,0,0,1-1.54-2.16,11.53,11.53,0,0,1,1.83,1.93c1.07,1.25,2.48,3,4,5s2.76,3.88,3.66,5.25A12.57,12.57,0,0,1,433.72,411.77Z" style="fill:#fff"></path><path d="M401,426c-.15,0,0-2.88.05-6.42s-.12-6.41,0-6.42A39.15,39.15,0,0,1,401,426Z" style="fill:#fff"></path><path d="M411.08,392.25c0-.05.43-.26,1.22-.31a5.88,5.88,0,0,1,5.21,2.7c.41.67.5,1.15.44,1.17s-.29-.39-.74-1a6.85,6.85,0,0,0-2.19-1.79,6.75,6.75,0,0,0-2.72-.75C411.56,392.26,411.1,392.34,411.08,392.25Z" style="fill:#fff"></path><path d="M405.65,394.53c0-.14.8-.59,1.9-1s2-.66,2.08-.52-.8.58-1.9,1A4.58,4.58,0,0,1,405.65,394.53Z" style="fill:#fff"></path><path d="M389.8,392.9a4.65,4.65,0,0,1,3,.78c1.52.85,2.31,2.06,2.19,2.13s-1-.89-2.45-1.68S389.77,393.06,389.8,392.9Z" style="fill:#fff"></path><path d="M379.34,391.54c.06-.13.81.1,1.67.51s1.52.84,1.46,1-.82-.1-1.68-.5S379.27,391.67,379.34,391.54Z" style="fill:#fff"></path><path d="M420.81,387a20.38,20.38,0,0,1-.6-4.49,19.94,19.94,0,0,1-.08-4.53,20.29,20.29,0,0,1,.6,4.5A19.82,19.82,0,0,1,420.81,387Z" style="fill:#fff"></path><path d="M435.22,360.77c0-.06.19-.25.63-.4a3.11,3.11,0,0,1,1.79,0,3,3,0,0,1,1.49,1c.29.36.36.64.31.67s-.74-.81-1.95-1.15A7.83,7.83,0,0,0,435.22,360.77Z" style="fill:#fff"></path><path d="M401.79,352.52c.1-.14,3,2.12,6.17,5.29l4.08,4a12.82,12.82,0,0,1,1.64,1.73c-.11.13-2.9-2.23-6.08-5.39-1.61-1.57-3.06-3-4.12-4A12.9,12.9,0,0,1,401.79,352.52Z" style="fill:#fff"></path></g><g id="freepik--Floor--inject-17"><path d="M466.41,485.11c0,.14-96.9.26-216.4.26s-216.42-.12-216.42-.26,96.88-.26,216.42-.26S466.41,485,466.41,485.11Z" style="fill:#263238"></path></g><g id="freepik--Confetti--inject-17"><path d="M161.93,130s-8-8.13-15.3-1.84L144.7,121s14.93-6,19.22,4.7Z" style="fill:#455a64"></path><path d="M45.55,412.87s-2.61-11.06-12.16-9.47l2-7.13s15.87,2.59,14,14Z" style="fill:#455a64"></path><path d="M419.19,456.63s-10.41-4.56-14.88,4l-4.47-5.92s11.6-11.13,19.58-2.84Z" style="fill:#455a64"></path><path d="M283.08,49.46s-14.1,2.89-12.45,15l-8.95-2.85s3.87-20,18.19-17.25Z" style="fill:#455a64"></path><path d="M64.06,183.48s-11.3,1.26-10.88,10.92l-6.83-2.89s4.5-15.44,15.55-12.24Z" style="fill:#BA68C8"></path><path d="M156.77,266.89s-1.91,11.2,7.5,13.47l-4.67,5.77s-13.6-8.59-7.47-18.33Z" style="fill:#BA68C8"></path><path d="M392.51,318.21s-.45-11.35-10.12-11.62l3.37-6.61s15.08,5.58,11.1,16.38Z" style="fill:#BA68C8"></path><path d="M161.23,63.43s-.45-11.35-10.12-11.62l3.36-6.61s15.09,5.58,11.11,16.38Z" style="fill:#BA68C8"></path><path d="M321.28,173s10.62,4,14.65-4.76l4.77,5.68s-11,11.7-19.42,3.81Z" style="fill:#BA68C8"></path><path d="M88,104.26a3,3,0,1,1-3-3A3,3,0,0,1,88,104.26Z" style="fill:#455a64"></path><path d="M68.53,268a3,3,0,1,1-3-3A3,3,0,0,1,68.53,268Z" style="fill:#455a64"></path><path d="M462.37,302.47a3,3,0,1,1-3-3A3,3,0,0,1,462.37,302.47Z" style="fill:#455a64"></path><path d="M141.92,422.71a3,3,0,1,1-3-3A3,3,0,0,1,141.92,422.71Z" style="fill:#455a64"></path><path d="M442.82,183.84a3,3,0,1,1-3-3A3,3,0,0,1,442.82,183.84Z" style="fill:#BA68C8"></path><path d="M359.81,404.57a3,3,0,1,1-3-3A3,3,0,0,1,359.81,404.57Z" style="fill:#BA68C8"></path></g><g id="freepik--Character--inject-17"><path d="M189.42,471.1a17.78,17.78,0,0,1,.56,10.33l.17,0a1.85,1.85,0,0,1,1.5,2h0a1.85,1.85,0,0,1-2.17,1.6L103.9,469.21a1.73,1.73,0,0,1-1.39-2h0a1.72,1.72,0,0,1,1.86-1.41l1.9.17s4.23-15.9,18.58-12.76,14,12.7,25.37,14.65,11.46-6.38,11.46-6.38Z" style="fill:#BA68C8"></path><path d="M190,481.43a5.82,5.82,0,0,1-.88-.1l-2.5-.4c-2.16-.35-5.3-.88-9.17-1.57C169.7,478,159,476,147.25,473.78l-30.17-5.61-9.15-1.66-2.49-.47a7.74,7.74,0,0,1-.86-.19,4.86,4.86,0,0,1,.88.09l2.5.37c2.17.33,5.31.84,9.18,1.49,7.75,1.31,18.43,3.25,30.21,5.47L177.5,479l9.14,1.73,2.48.49A5.23,5.23,0,0,1,190,481.43Z" style="fill:#263238"></path><path d="M124.05,455.11c0,.09-1.1-.12-2.85,0a13.66,13.66,0,0,0-11.06,6.95c-.87,1.52-1.16,2.59-1.24,2.56a1.9,1.9,0,0,1,.14-.76,10.36,10.36,0,0,1,.78-2,13,13,0,0,1,11.36-7.13,10.73,10.73,0,0,1,2.12.15A2.14,2.14,0,0,1,124.05,455.11Z" style="fill:#fff"></path><path d="M250.07,471a17.79,17.79,0,0,0-2.47,10h-.18a1.85,1.85,0,0,0-1.84,1.71h0a1.83,1.83,0,0,0,1.83,2l87,.39a1.73,1.73,0,0,0,1.74-1.73h0a1.74,1.74,0,0,0-1.57-1.73l-1.89-.18s-1.19-16.42-15.87-16-16.14,9.86-27.66,9.66-10.07-8.41-10.07-8.41Z" style="fill:#BA68C8"></path><path d="M247.6,481.07a7.44,7.44,0,0,1,.88,0H291c12,0,22.84.11,30.7.27,3.92.08,7.1.16,9.3.24l2.53.11a5.66,5.66,0,0,1,.88.07,5.11,5.11,0,0,1-.89,0H331l-9.3-.08L291,481.54c-12,0-22.84-.05-30.69-.15-3.93-.05-7.11-.11-9.3-.17l-2.53-.08A5.48,5.48,0,0,1,247.6,481.07Z" style="fill:#263238"></path><path d="M317.28,467.53a1.94,1.94,0,0,1,.78-.07,11,11,0,0,1,2.11.25,13,13,0,0,1,9.83,9.13,10.77,10.77,0,0,1,.4,2.08c0,.5,0,.78,0,.78s-.17-1.09-.74-2.75a13.66,13.66,0,0,0-9.57-8.89C318.39,467.62,317.28,467.62,317.28,467.53Z" style="fill:#fff"></path><path d="M272.64,145a7.92,7.92,0,0,0-2.53-6.84,8.43,8.43,0,0,0-6.53-13.43,8.07,8.07,0,0,0-10.79-8.1c1.25-2.66-.85-5.92-3.59-7s-5.81-.56-8.7,0a11.18,11.18,0,0,0-17.4-2.54,9.75,9.75,0,0,0-17.29,5.68,11.05,11.05,0,0,0-12.07,13.12,10.26,10.26,0,0,0-4.68,17.68c-2.24,2.64-3.9,6.09-3.27,9.49s4.35,6.26,7.58,5l.37,1.05a7.49,7.49,0,0,0,7.83,12.42,10.27,10.27,0,0,0,15.85,5.69A11.71,11.71,0,0,0,228,183.3a14.69,14.69,0,0,0,11-5.83,2.35,2.35,0,0,1,.94-.86,2.24,2.24,0,0,1,1.55.23c3.8,1.49,8.12,2.1,11.95.71s7-5.12,6.78-9.19a10.58,10.58,0,0,0,8.14-17.45A7.91,7.91,0,0,0,272.64,145Z" style="fill:#BA68C8"></path><g style="opacity:0.30000000000000004"><path d="M228,183.3a11.71,11.71,0,0,1-10.59-6.1,10.27,10.27,0,0,1-15.85-5.69,7.49,7.49,0,0,1-7.83-12.42s3.42,4.85,8.79,3.31c0,0,.55,5.65,8,4.93l1.29-.7,8.35,1.55Z"></path></g><path d="M249.82,138a21.31,21.31,0,0,0-24.88-14.71l-1.08.23c-11.49,3.18-15.21,14.71-11.72,26.11l11.07,37.09.71,2.66,22.51,8,3.4-10.45-1.34-7.34s10.81-4.14,8.55-15.35C256,158.84,252.79,147.88,249.82,138Z" style="fill:#ffbf9d"></path><path d="M216.7,160.94c1.67,9.24,8.39,13.92,17.41,16.5,2.63.75,7.23,1.61,9.95,1.37a19.44,19.44,0,0,0,7.36-1.67,10.43,10.43,0,0,0,5.49-6.55,19,19,0,0,0,.36-4.35s-.86-5.07-1.79-8.49c-.68-2.48-7.35-27-7.35-27s-28.76-2.06-29.11-2-7,15.35-7.22,15.76S216.7,160.94,216.7,160.94Z" style="fill:#fff"></path><path d="M248.47,179.63a27.66,27.66,0,0,1-15.47-1.2s5.16,7.33,16,4Z" style="fill:#ff9a6c"></path><path d="M247.25,149.18a1.63,1.63,0,0,1-1.19,1.94,1.57,1.57,0,0,1-2-1.09,1.63,1.63,0,0,1,1.19-1.94A1.56,1.56,0,0,1,247.25,149.18Z" style="fill:#263238"></path><path d="M248.84,144.51c-.16.25-1.56-.39-3.28,0s-2.79,1.5-3,1.33,0-.49.47-1a4.51,4.51,0,0,1,2.37-1.32,4.2,4.2,0,0,1,2.66.27C248.66,144.06,248.92,144.4,248.84,144.51Z" style="fill:#263238"></path><path d="M232.14,152.93a1.64,1.64,0,0,1-1.2,1.94,1.56,1.56,0,0,1-1.95-1.09,1.63,1.63,0,0,1,1.19-1.94A1.57,1.57,0,0,1,232.14,152.93Z" style="fill:#263238"></path><path d="M232.34,147.8c-.15.25-1.55-.39-3.27,0s-2.79,1.51-3,1.34,0-.5.47-1a4.44,4.44,0,0,1,2.37-1.33,4.35,4.35,0,0,1,2.66.27C232.16,147.34,232.42,147.68,232.34,147.8Z" style="fill:#263238"></path><path d="M240.74,159.32a11.34,11.34,0,0,1,2.68-1.1c.43-.14.83-.32.83-.63a2.18,2.18,0,0,0-.57-1.24l-2-3.07c-2.82-4.37-5-8-4.79-8.11s2.61,3.34,5.43,7.71c.69,1.08,1.34,2.11,2,3.1a2.55,2.55,0,0,1,.6,1.67,1.16,1.16,0,0,1-.58.8,3.41,3.41,0,0,1-.73.26A11.08,11.08,0,0,1,240.74,159.32Z" style="fill:#263238"></path><path d="M243.93,163.68a2,2,0,0,0-1.45-.63c-.54,0-1.08.08-1.62.08-2.06,0-3.18-2.44-4.12-3.11a1.83,1.83,0,0,0-2.46.52,4.69,4.69,0,0,0-.58,3.14,5.39,5.39,0,0,0,2,3,6.27,6.27,0,0,0,4.17,1.4,5,5,0,0,0,3.83-2A2.06,2.06,0,0,0,243.93,163.68Z" style="fill:#BA68C8"></path><path d="M235.93,161.59c.28-.07.68,1.79,2.56,2.77s3.83.35,3.9.61-.37.46-1.2.66a4.73,4.73,0,0,1-3.23-.4,4.14,4.14,0,0,1-2-2.35C235.69,162.12,235.8,161.61,235.93,161.59Z" style="fill:#263238"></path><path d="M231.31,142.88c-.11.49-1.67.41-3.46.82s-3.21,1.11-3.49.71c-.13-.19.08-.67.63-1.18a5.58,5.58,0,0,1,2.52-1.28,5.24,5.24,0,0,1,2.78.12C231,142.31,231.36,142.65,231.31,142.88Z" style="fill:#263238"></path><path d="M247.44,139.88c-.18.47-1.46.42-2.86.83s-2.5,1-2.89.71c-.18-.15-.11-.59.3-1.11a4.14,4.14,0,0,1,2.13-1.33,4,4,0,0,1,2.5.09C247.23,139.31,247.51,139.65,247.44,139.88Z" style="fill:#263238"></path><path d="M216.27,160.11a3.11,3.11,0,0,0-3.91-2.23c-2,.65-4.11,2.33-3,6.61,1.88,7.6,9.11,4.14,9.07,3.92S217.09,163.28,216.27,160.11Z" style="fill:#ffbf9d"></path><path d="M216,166s-.11.13-.3.28a1.36,1.36,0,0,1-1,.27c-.87-.1-1.86-1.2-2.24-2.56a4.53,4.53,0,0,1-.1-2,1.57,1.57,0,0,1,.74-1.26.69.69,0,0,1,.87.17c.16.19.15.35.19.35s.13-.16,0-.46a.84.84,0,0,0-.41-.4,1,1,0,0,0-.78,0,1.92,1.92,0,0,0-1.09,1.52,4.58,4.58,0,0,0,.06,2.23c.43,1.52,1.57,2.76,2.75,2.81a1.49,1.49,0,0,0,1.16-.51C216.07,166.15,216.06,166,216,166Z" style="fill:#ff9a6c"></path><path d="M250,128.16a15.52,15.52,0,0,0-7.27-6.86,27.55,27.55,0,0,0-9.85-2.39,21.31,21.31,0,0,0-6.67.37,25.3,25.3,0,0,0-7,3.24,19.24,19.24,0,0,0-3.6,2.59,15.45,15.45,0,0,0-2.67,3.64c-4.89,8.82-10.28,8.62-4.89,17.15,1.13,1.52,6.86,15.61,8.72,15.09,3.08-.85,2.47-10.19,1.86-14.41,4.24-1.93,5.91-7.18,4.64-11.66a8.92,8.92,0,0,0,13.84-2.65c1,2.53,4.11,3.51,6.84,3.56a9.1,9.1,0,0,0,4-.69,4.78,4.78,0,0,0,2.69-3A5.89,5.89,0,0,0,250,128.16Z" style="fill:#BA68C8"></path><g style="opacity:0.30000000000000004"><path d="M237.41,123.88c-1.08-1.85-3.7-3.41-5.66-2.55a6.78,6.78,0,0,0,.17-8.07,6.24,6.24,0,0,0-7.41-2.1c-.08-1.32-1-2.89-1.46-4.12a10,10,0,0,0-6.25-3.44c-.51-.06-1.05-.09-1.62-.1a9.07,9.07,0,0,0-1.27.11h-.08a8.15,8.15,0,0,0-1.38.33,10,10,0,0,0-6.26,6.45,11,11,0,0,0-.38,1.85c0,.16,0,.31-.05.48a11.11,11.11,0,0,0-6.37,1.23,19.36,19.36,0,0,0-1.8,1.17,10.74,10.74,0,0,0-4,7.32,13.07,13.07,0,0,0,0,3c0,.14,0,.27.07.4a5.71,5.71,0,0,0-3.25,9.55c1.23,1.44,5.65,2.83,8.18,2.23-1.53.76-1.11,3.44-.2,4.88a11.19,11.19,0,0,0,7.06,5,6.41,6.41,0,0,0,7.13-3.43c1.57,2.89,6.07,3.06,8.11,1.09l0,0c.39-.29,1.25-1.15,2.41-3.66a10,10,0,0,0,.09-6.59,9.08,9.08,0,0,0,7.57,2.06c.48-.11,1.6-.49,2-.62a9.55,9.55,0,0,0,4.45-4.47,11,11,0,0,0,.74-2.25C238.34,127.52,238.5,125.73,237.41,123.88Z"></path></g><path d="M222.17,143.4a5.89,5.89,0,0,1-.42.73,6.74,6.74,0,0,1-1.66,1.7,5.18,5.18,0,0,1-3.59,1,5.25,5.25,0,0,1-4.07-2.59h.38a6.88,6.88,0,0,1-6.33,3.67,10,10,0,0,1-7.47-4.1,7.85,7.85,0,0,1-1.67-3,3.78,3.78,0,0,1-.06-1.74,2,2,0,0,1,1.07-1.41l.12.48a11.37,11.37,0,0,1-8.07-2.28,5.57,5.57,0,0,1-1.61-3.3,6.31,6.31,0,0,1,.29-3.13,4.86,4.86,0,0,1,1.47-2.1,5.47,5.47,0,0,1,1.64-1,5.25,5.25,0,0,1,1.14-.34,1.84,1.84,0,0,1,.41-.07,1.22,1.22,0,0,1-.38.15,6.57,6.57,0,0,0-1.1.42,5.17,5.17,0,0,0-2.87,3,5.91,5.91,0,0,0-.22,3,5.22,5.22,0,0,0,1.51,3,11.1,11.1,0,0,0,7.76,2.11l1.34-.09-1.21.57c-.86.4-1,1.57-.73,2.57a7.54,7.54,0,0,0,1.58,2.85,9.56,9.56,0,0,0,7.06,3.92,6.42,6.42,0,0,0,5.94-3.35l.18-.38.2.37a4.91,4.91,0,0,0,3.74,2.45,5,5,0,0,0,3.41-.82,7.21,7.21,0,0,0,1.7-1.58A4.4,4.4,0,0,1,222.17,143.4Z" style="fill:#263238"></path><path d="M236.41,132.31a2.22,2.22,0,0,0,.88-.77,6.71,6.71,0,0,0,.7-3.2,8.45,8.45,0,0,0-1-4.77,5,5,0,0,0-2.14-1.88,3.66,3.66,0,0,0-3-.12L231,122l.57-.78a6.64,6.64,0,0,0,1.12-2.47,7.09,7.09,0,0,0-.34-4.17,6.18,6.18,0,0,0-2.46-2.92,7,7,0,0,0-6-.78l-.2.07v-.21a18.19,18.19,0,0,0-.73-3.87,3.61,3.61,0,0,1,.43,1,11.43,11.43,0,0,1,.61,2.89l-.21-.14a7.22,7.22,0,0,1,6.34.68,6.68,6.68,0,0,1,2.68,3.13,7.55,7.55,0,0,1,.38,4.48,7.18,7.18,0,0,1-1.21,2.66l-.31-.39a4.12,4.12,0,0,1,3.39.14,5.41,5.41,0,0,1,2.33,2.09,8.58,8.58,0,0,1,1,5,6.69,6.69,0,0,1-.88,3.29C236.93,132.33,236.39,132.33,236.41,132.31Z" style="fill:#263238"></path><g style="opacity:0.30000000000000004"><path d="M255.28,157c1.78.82,5.1,1.25,6.76.2a6,6,0,0,0,2.75-4.92,9.84,9.84,0,0,0,6.38-3.72,8.93,8.93,0,0,0,1.3-6.91s-.84-2.73-2.36-3.51a8.72,8.72,0,0,0,.8-8.69,8.25,8.25,0,0,0-7.33-4.74h0a5.39,5.39,0,0,1-1.19,4.47,6.22,6.22,0,0,1-4.29,2.55,9.2,9.2,0,0,1-6.46,12.12Z"></path></g><path d="M263.42,124.21a1.92,1.92,0,0,1,.21.76,5.8,5.8,0,0,1-.09,2.19,6.12,6.12,0,0,1-1.6,2.91,6.37,6.37,0,0,1-3.73,1.84l.21-.34a9.86,9.86,0,0,1-.48,7.58,9.48,9.48,0,0,1-2.61,3.21,9,9,0,0,1-2.42,1.39,2.81,2.81,0,0,1-1,.26,14.27,14.27,0,0,0,3.17-1.93,9.75,9.75,0,0,0,2.42-3.14,9.63,9.63,0,0,0,.91-4.74,9,9,0,0,0-.48-2.46l-.1-.3.31,0a6,6,0,0,0,5.07-4.32A8.85,8.85,0,0,0,263.42,124.21Z" style="fill:#263238"></path><path d="M210.51,167.33s-.2.25-.74.42a3.92,3.92,0,0,1-2.31-.18A13.69,13.69,0,0,1,204.4,166a4.4,4.4,0,0,1-2.13-3.64l.35.26-.17,0a7,7,0,0,1-4.29.07,6.77,6.77,0,0,1-3-1.86,6.39,6.39,0,0,1-1.27-2,1.86,1.86,0,0,1-.22-.83,10,10,0,0,0,1.75,2.55,6.67,6.67,0,0,0,6.83,1.56l.16-.05.36-.12v.37a4,4,0,0,0,1.88,3.23,15.56,15.56,0,0,0,2.91,1.59,4,4,0,0,0,2.15.32C210.24,167.46,210.49,167.28,210.51,167.33Z" style="fill:#263238"></path><path d="M272.33,141.26a3.66,3.66,0,0,1,.25,1,11.13,11.13,0,0,1,0,2.9,7.64,7.64,0,0,1-1.64,4,9.13,9.13,0,0,1-4.49,2.79,15.35,15.35,0,0,1-1.66.4l.21-.26a6.21,6.21,0,0,1-1.88,4.31,5.81,5.81,0,0,1-3.42,1.62,5.89,5.89,0,0,1-2.51-.23,2.22,2.22,0,0,1-.82-.4,7.88,7.88,0,0,0,3.28.29,5.63,5.63,0,0,0,3.15-1.61,5.88,5.88,0,0,0,1.69-4v-.21l.21,0a14.3,14.3,0,0,0,1.6-.39,8.9,8.9,0,0,0,4.27-2.59,7.52,7.52,0,0,0,1.65-3.74A21.35,21.35,0,0,0,272.33,141.26Z" style="fill:#263238"></path><path d="M189.68,142.47s-.09-.09-.21-.27a8.14,8.14,0,0,1-.47-.86,10.64,10.64,0,0,1-1-3.45,11,11,0,0,1,.72-5.28,11.3,11.3,0,0,1,4.1-5.06,10.76,10.76,0,0,1,3.1-1.48l-.18.26a23.27,23.27,0,0,1,0-5.29,8.37,8.37,0,0,1,1.61-3.93,5.64,5.64,0,0,1,2.18-1.77,3,3,0,0,1,.72-.24c.17,0,.26,0,.26,0s-.34.12-.9.43a6,6,0,0,0-2,1.8,8.31,8.31,0,0,0-1.43,3.8,24.5,24.5,0,0,0,0,5.2l0,.2-.2.06a10.82,10.82,0,0,0-2.95,1.42,10.82,10.82,0,0,0-4.75,9.87A14.56,14.56,0,0,0,189.68,142.47Z" style="fill:#fff"></path><path d="M189.72,155.26c0,.05-.52-.22-1.12-.88a5.45,5.45,0,0,1-1.41-3.16,4.31,4.31,0,0,1,1.15-3.27c.65-.65,1.23-.77,1.24-.72s-.45.31-1,1a4.38,4.38,0,0,0-.91,3,6,6,0,0,0,1.17,3C189.38,154.83,189.77,155.2,189.72,155.26Z" style="fill:#fff"></path><path d="M217,105.34a11.54,11.54,0,0,1-1.59.27,9.88,9.88,0,0,0-3.49,1.46,9.69,9.69,0,0,0-2.65,2.7c-.53.82-.75,1.4-.84,1.37a3.4,3.4,0,0,1,.53-1.56,8.42,8.42,0,0,1,6.4-4.33A3.5,3.5,0,0,1,217,105.34Z" style="fill:#fff"></path><path d="M236.29,113.63s.24-.09.64.1a2.43,2.43,0,0,1,1.11,1.4,9.37,9.37,0,0,1-.2,5.91l-.14-.33a5.73,5.73,0,0,1,1.28.74,6,6,0,0,1,2.18,3.17,5.82,5.82,0,0,1,0,3.14,5.33,5.33,0,0,1-.95,1.88c-.31.39-.53.56-.56.54a8.7,8.7,0,0,0,1.15-2.51,5.58,5.58,0,0,0-2.12-5.81,5.21,5.21,0,0,0-1.16-.67l-.23-.1.09-.23a9.71,9.71,0,0,0,.36-5.62,2.4,2.4,0,0,0-.88-1.35C236.52,113.67,236.28,113.67,236.29,113.63Z" style="fill:#fff"></path><path d="M216.88,148.11s-.15.14-.47.3a5.53,5.53,0,0,1-1.45.5,7.38,7.38,0,0,1-5.15-.78l.35-.1a4,4,0,0,1-1.75,1.71,7,7,0,0,1-3.77.6,8.58,8.58,0,0,1-3-.73,4.55,4.55,0,0,1-1.66-1.27c-.3-.4-.39-.67-.36-.68a5.6,5.6,0,0,0,2.17,1.61,8.74,8.74,0,0,0,2.89.59,6.83,6.83,0,0,0,3.49-.58,3.59,3.59,0,0,0,1.55-1.48l.12-.24.23.14a7.58,7.58,0,0,0,4.85.89C216.16,148.41,216.85,148,216.88,148.11Z" style="fill:#fff"></path><path d="M265.3,155.43a2.48,2.48,0,0,1-.21,1.51,5.67,5.67,0,0,1-5.91,3.76,2.64,2.64,0,0,1-1.46-.45c0-.08.58.08,1.48.08a6,6,0,0,0,5.55-3.52C265.13,156,265.22,155.41,265.3,155.43Z" style="fill:#fff"></path><path d="M200.34,170.29a5.42,5.42,0,0,1-2-.22,8.31,8.31,0,0,1-4.34-2.39,5.91,5.91,0,0,1-1.42-4.72,3.34,3.34,0,0,1,.73-1.92,17.22,17.22,0,0,0-.37,2,6,6,0,0,0,1.45,4.34,9,9,0,0,0,4.05,2.37A15,15,0,0,1,200.34,170.29Z" style="fill:#fff"></path><circle cx="242.5" cy="156.48" r="4.7" style="fill:#BA68C8"></circle><path d="M239.65,159.73s-.49-.24-.92-.95a4.44,4.44,0,0,1-.55-3.14A4.49,4.49,0,0,1,239.9,153c.68-.48,1.2-.57,1.22-.52s-.42.29-1,.81a4.74,4.74,0,0,0-1.45,2.5,4.8,4.8,0,0,0,.36,2.87C239.37,159.3,239.71,159.67,239.65,159.73Z" style="fill:#fff"></path><path d="M243.91,152.66c0,.13-.51.12-1.06,0s-1-.19-1-.34.48-.26,1.08-.17S244,152.52,243.91,152.66Z" style="fill:#fff"></path><path d="M201.85,199.68c1,1,6.39,33.1,9.79,45.75,5.05,18.8,4.2,41.07,4.2,41.07L183,390l-22.18,60.45-.21,2.37,1.92,7,31.24,7.67,5.49-7.46,31.32-73.54,22.09-48.8,1.67,48.46L244.76,455a14.62,14.62,0,0,0,1,7.65l1.84,4.38,34-2.5c.21.11,2.35-5.21,2.63-6.72,4.33-23.76,10.45-97.26,10.45-97.26l5.74-63.66s-3.19-18.72-9.58-41.71-19.2-68.59-19.2-68.59l-56.8,6.66Z" style="fill:#455a64"></path><g style="opacity:0.5"><circle cx="246.08" cy="229.25" r="9.07" transform="translate(-33.75 415.82) rotate(-76.66)" style="fill:#fff"></circle></g><path d="M203.07,199.27s-4,1.57-12.33,13.06c-6.59,9.13-8,10.39-10.13,14l-3.94,5.8-19.08-23-13.33,9.34c20.82,31.77,24.81,33.92,30.27,38.44,8.8,7.28,19.08-4.88,19.08-4.88l18.47-19.64Z" style="fill:#455a64"></path><path d="M271.67,186.62s10.87,0,19.56,13.86a253.26,253.26,0,0,1,15.4,29.23l4.94,1.78L329,221.41l8.3,16.38s-20.55,18.38-34,17.59S285.93,242.73,284.32,238s-5.14-14.22-5.14-14.22Z" style="fill:#455a64"></path><path d="M249.18,198.3a1.63,1.63,0,0,1,.11.35c.06.27.14.61.25,1,.21,1,.51,2.3.9,4,.78,3.5,1.88,8.56,3.17,14.83,2.53,12.54,5.95,30,7.35,49.48a270,270,0,0,1,.69,27.56A124.85,124.85,0,0,1,259,317.92a105.42,105.42,0,0,1-4.26,14.56c-.59,1.69-1.17,3-1.52,3.84l-.41,1a2.29,2.29,0,0,1-.16.33,1.73,1.73,0,0,1,.11-.35c.09-.25.21-.59.37-1,.31-.89.86-2.17,1.42-3.86a114.73,114.73,0,0,0,4.09-14.57,127.22,127.22,0,0,0,2.56-22.28c.28-8.45-.07-17.76-.73-27.5-1.4-19.48-4.75-36.89-7.19-49.45-1.27-6.25-2.29-11.32-3-14.86-.34-1.73-.62-3.09-.81-4-.08-.44-.15-.79-.2-1.05S249.18,198.3,249.18,198.3Z" style="fill:#263238"></path><g style="opacity:0.30000000000000004"><path d="M269.24,192.9c-.71-.76-1.94-1-2.45-1.86a2.77,2.77,0,0,1,.43-2.74,6.56,6.56,0,0,0,1.3-2.58c.12-1-.71-2.11-1.65-1.84l-60,14.35c-.19,1.58,1.5,2.7,3,3.17s3.29.83,4.06,2.21.08,3.25.12,4.91a5.43,5.43,0,0,0,5.53,5.09c2.82-.18,5.22-2.59,8-2.44,3,.16,5,3.1,7.63,4.66a9.17,9.17,0,0,0,10-.54c2.05-1.54,3.54-4,6-4.64,1.63-.41,3.33.09,5,.34s3.58.14,4.68-1.13c1.87-2.18-.12-5.79,1.19-8.35a6.36,6.36,0,0,1,3.21-2.59,10.5,10.5,0,0,0,3.56-2.2C269.88,195.67,270.2,193.92,269.24,192.9Z"></path></g><path d="M269.9,184a3.85,3.85,0,0,0-3.32-1.55,14.7,14.7,0,0,0-3.74.8c-1.23.35-4.16.48-5.8,1l-44.61,6.91a11,11,0,0,0-5.19,2.1c-1.41,1.26-2,3.62-.8,5,1.79,2.1,5.67.71,7.61,2.65s.56,5.47,2.26,7.53c1.48,1.8,4.32,1.41,6.49.58s4.55-1.94,6.71-1.08,3.16,3.31,5,4.72a6.17,6.17,0,0,0,8-.64c1.58-1.67,2.33-4.35,4.52-5,1.68-.53,3.43.39,5.06,1.08s3.76,1,4.95-.26.71-3.06.91-4.67a6.23,6.23,0,0,1,4.33-5.08c.82-.24,1.68-.3,2.48-.6a2.48,2.48,0,0,0,1.72-1.72,2.9,2.9,0,0,0-1.2-2.49l-1.95-2.14a1.33,1.33,0,0,1,1-1.62c1.06-.31,2.74-.37,3.76-.79a3.79,3.79,0,0,0,2-1.94A3.05,3.05,0,0,0,269.9,184Z" style="fill:#BA68C8"></path><path d="M211.64,245.43a5.4,5.4,0,0,1-.34-1.23c-.19-.79-.43-1.94-.82-3.34a42.86,42.86,0,0,0-4.17-10.49,36.52,36.52,0,0,0-7.2-8.67l-2.55-2.32a7.33,7.33,0,0,1-.9-.9,5.42,5.42,0,0,1,1,.75c.64.5,1.56,1.25,2.67,2.2a33.57,33.57,0,0,1,7.4,8.68,38.94,38.94,0,0,1,4.08,10.66c.35,1.42.53,2.59.66,3.4A6.73,6.73,0,0,1,211.64,245.43Z" style="fill:#263238"></path><path d="M200.59,467.2c-1-.6-2.13-.78-3.06-1.43a3.94,3.94,0,0,1-.71-5.49l-34.54-2.47c-1.32.68-6,2.82-7.18,3.63s-2,2.5-1.13,3.64a3.25,3.25,0,0,0,2.65.94,31.83,31.83,0,0,0,4-.19,2.52,2.52,0,0,1,2.19.4c.71.75.27,2,.3,3a3.1,3.1,0,0,0,3,2.94c1.6,0,2.88-1.29,4.11-2.34s2.94-2,4.37-1.24a4,4,0,0,1,1.71,2.81,11.85,11.85,0,0,0,.88,3.29,3.89,3.89,0,0,0,5,1.58,12.64,12.64,0,0,0,2.33-1.88,3.54,3.54,0,0,1,2.71-1.06c1.39.23,2.17,1.7,3.2,2.68a5.44,5.44,0,0,0,5.39,1.24c1.11-.37,2.2-1.34,2.07-2.52-.1-1-1-1.9-.72-2.85s1.26-1,2.1-1.08,1.8-.05,2.31-.72C202.26,469.18,201.56,467.8,200.59,467.2Z" style="fill:#455a64"></path><path d="M196,463.94s-.09.1-.29.25a5.56,5.56,0,0,1-.94.52,14.06,14.06,0,0,1-3.84,1c-1.65.23-3.61.52-5.81.7a29.79,29.79,0,0,1-7.18-.23A27.51,27.51,0,0,1,166,461.09a25.47,25.47,0,0,1-3-2.61,6.82,6.82,0,0,1-.93-1.1,9.26,9.26,0,0,1,1.07,1,35.27,35.27,0,0,0,3.05,2.45A28.67,28.67,0,0,0,178,465.62a31.07,31.07,0,0,0,7.07.27c2.18-.15,4.14-.4,5.79-.58a16.23,16.23,0,0,0,3.81-.78C195.56,464.2,196,463.91,196,463.94Z" style="fill:#263238"></path><path d="M286.82,467.46c-1.07-.38-2.26-.3-3.31-.74a4,4,0,0,1-1.9-5.2l-34.23,5.15c-1.14.95-5.28,4.07-6.22,5.11s-1.37,2.88-.3,3.8a3.24,3.24,0,0,0,2.78.34,30.66,30.66,0,0,0,3.89-1.07,2.56,2.56,0,0,1,2.22-.09c.86.58.69,1.87.95,2.88a3.11,3.11,0,0,0,3.55,2.22c1.57-.37,2.53-1.89,3.5-3.19s2.43-2.58,4-2.16a4,4,0,0,1,2.29,2.36,11.86,11.86,0,0,0,1.57,3,3.89,3.89,0,0,0,5.22.45,12.71,12.71,0,0,0,1.87-2.35,3.5,3.5,0,0,1,2.41-1.61c1.4-.09,2.49,1.17,3.7,1.91a5.49,5.49,0,0,0,5.54,0,2.7,2.7,0,0,0,1.47-2.92c-.32-.95-1.44-1.62-1.34-2.62.09-.85,1-1.29,1.82-1.51s1.74-.44,2.1-1.21C288.87,469,287.88,467.83,286.82,467.46Z" style="fill:#455a64"></path><path d="M281.63,464.56a1.08,1.08,0,0,1-.22.31,7.14,7.14,0,0,1-.8.73,14.09,14.09,0,0,1-3.51,1.83c-1.54.62-3.38,1.36-5.48,2a29.43,29.43,0,0,1-7,1.47,27.58,27.58,0,0,1-12.8-2.09,25.93,25.93,0,0,1-3.5-1.83,6.85,6.85,0,0,1-1.17-.86,8.38,8.38,0,0,1,1.27.68,33.62,33.62,0,0,0,3.54,1.67,28.68,28.68,0,0,0,12.62,1.91,30.59,30.59,0,0,0,6.93-1.4c2.08-.66,3.93-1.36,5.49-1.93a16.1,16.1,0,0,0,3.52-1.65C281.25,464.92,281.6,464.53,281.63,464.56Z" style="fill:#263238"></path><g style="opacity:0.5"><circle cx="210.91" cy="387.69" r="9.07" transform="translate(-212.37 262.69) rotate(-45)" style="fill:#fff"></circle></g><g style="opacity:0.5"><circle cx="275.72" cy="399.83" r="9.07" transform="translate(-204.91 329.96) rotate(-47.14)" style="fill:#fff"></circle></g><g style="opacity:0.5"><circle cx="258.62" cy="431.77" r="9.07" style="fill:#fff"></circle></g><g style="opacity:0.5"><path d="M204.46,328.63a9,9,0,0,0-2.09.24l-4.71,14.82a9.07,9.07,0,1,0,6.8-15.06Z" style="fill:#fff"></path></g><g style="opacity:0.5"><path d="M239,367.82a9.5,9.5,0,0,1-9.47-9.16A9.07,9.07,0,0,1,245.66,353" style="fill:#fff"></path></g><g style="opacity:0.5"><circle cx="233" cy="264.47" r="9.07" style="fill:#fff"></circle></g><g style="opacity:0.5"><circle cx="230.51" cy="309.1" r="9.07" transform="translate(-123.14 462.75) rotate(-76.77)" style="fill:#fff"></circle></g><g style="opacity:0.5"><circle cx="284.79" cy="290.36" r="9.07" style="fill:#fff"></circle></g><g style="opacity:0.5"><path d="M255.63,365.91a8.79,8.79,0,0,0-1.9.92l.44,15.54a9.07,9.07,0,1,0,1.46-16.46Z" style="fill:#fff"></path></g><g style="opacity:0.5"><path d="M287.23,350.2a9.07,9.07,0,0,0-5.34,11.66A9.5,9.5,0,0,0,294,367.14l1.57-15.74C293.25,350,289.92,349.2,287.23,350.2Z" style="fill:#fff"></path></g><g style="opacity:0.5"><circle cx="276.19" cy="326.02" r="9.07" transform="translate(-151.09 323.49) rotate(-49.39)" style="fill:#fff"></circle></g><g style="opacity:0.5"><circle cx="275.72" cy="248.89" r="9.07" style="fill:#fff"></circle></g><g style="opacity:0.5"><circle cx="278.56" cy="204.27" r="9.07" transform="translate(-62.86 256.8) rotate(-45)" style="fill:#fff"></circle></g><g style="opacity:0.5"><circle cx="303.45" cy="241.67" r="9.07" transform="translate(16.18 502.36) rotate(-80.76)" style="fill:#fff"></circle></g><g style="opacity:0.5"><path d="M201.86,453.81a9.07,9.07,0,1,1,6.86-15.87" style="fill:#fff"></path></g><g style="opacity:0.5"><path d="M280.53,440a9.06,9.06,0,0,0,4,17.67l2.36-17.13A9,9,0,0,0,280.53,440Z" style="fill:#fff"></path></g><g style="opacity:0.5"><path d="M177.54,404.71a9,9,0,0,1,1.56-.14,9.07,9.07,0,1,1-7,14.87" style="fill:#fff"></path></g><g style="opacity:0.5"><circle cx="214.25" cy="220.19" r="9.07" transform="translate(-91.85 246.39) rotate(-50.68)" style="fill:#fff"></circle></g><g style="opacity:0.5"><circle cx="163.44" cy="230.17" r="8.16" transform="translate(-98.21 336.13) rotate(-76.67)" style="fill:#fff"></circle></g><g style="opacity:0.5"><path d="M192.56,239.68a9.07,9.07,0,0,0,.55,12.82l12.42-13.13A9.26,9.26,0,0,0,192.56,239.68Z" style="fill:#fff"></path></g><path d="M288.74,247.7a1.85,1.85,0,0,1-.19-.44c-.12-.35-.26-.78-.44-1.28-.37-1.12-.88-2.75-1.48-4.77-1.21-4-2.75-9.65-4.22-15.91s-2.59-12-3.3-16.13c-.36-2.08-.63-3.76-.79-4.93l-.18-1.34a1.61,1.61,0,0,1,0-.48,2.47,2.47,0,0,1,.13.46c.07.36.16.8.27,1.33l1,4.89c.81,4.13,2,9.83,3.45,16.08s2.95,11.87,4.06,15.93c.54,2,1,3.59,1.33,4.81.13.52.25,1,.34,1.31A1.36,1.36,0,0,1,288.74,247.7Z" style="fill:#263238"></path><circle cx="255.98" cy="236.98" r="11.92" transform="translate(-71.57 116.99) rotate(-22.67)" style="fill:#BA68C8"></circle><path d="M267.89,237a21.54,21.54,0,0,0-.47-2.89A11.75,11.75,0,0,0,252,226a11.27,11.27,0,0,0-2.95,1.59,10.93,10.93,0,0,0-2.46,2.48,11.61,11.61,0,0,0,0,13.79,10.93,10.93,0,0,0,2.46,2.48,11.27,11.27,0,0,0,2.95,1.59,11.79,11.79,0,0,0,15.42-8.08,21.85,21.85,0,0,0,.47-2.88,3.4,3.4,0,0,1,0,.76,5.47,5.47,0,0,1-.07.92,8.48,8.48,0,0,1-.22,1.25,11.87,11.87,0,0,1-4.32,6.68,12,12,0,0,1-11.46,1.8,11.51,11.51,0,0,1-3.09-1.64,11.24,11.24,0,0,1-2.57-2.58,12.07,12.07,0,0,1,0-14.39,12.1,12.1,0,0,1,5.66-4.22,12,12,0,0,1,11.46,1.8,11.87,11.87,0,0,1,4.32,6.68,8.71,8.71,0,0,1,.22,1.25,5.47,5.47,0,0,1,.07.92A3.53,3.53,0,0,1,267.89,237Z" style="fill:#263238"></path><path d="M248.55,243.31a5.73,5.73,0,0,1-.31-6.3,30,30,0,0,0-.27,3.17A31.67,31.67,0,0,0,248.55,243.31Z" style="fill:#263238"></path><path d="M250.31,244.81a4.36,4.36,0,0,1-.9-5.47,16,16,0,0,0,0,2.82A17.24,17.24,0,0,0,250.31,244.81Z" style="fill:#263238"></path><path d="M254.06,246.74a4.89,4.89,0,0,1-3-4.31c.15,0,.48,1.13,1.32,2.3S254.15,246.61,254.06,246.74Z" style="fill:#263238"></path><circle cx="262.92" cy="275.02" r="11.92" transform="translate(-117.1 293.83) rotate(-49.12)" style="fill:#BA68C8"></circle><path d="M274.84,275a27.23,27.23,0,0,0-.47-2.88A11.91,11.91,0,0,0,270,265.7a11.68,11.68,0,0,0-11.08-1.64,11.64,11.64,0,0,0-5.41,4.07,11.65,11.65,0,0,0,0,13.79,11.64,11.64,0,0,0,5.41,4.07A11.68,11.68,0,0,0,270,284.35a11.91,11.91,0,0,0,4.35-6.44,26.69,26.69,0,0,0,.47-2.89,4.15,4.15,0,0,1,0,.77,5.47,5.47,0,0,1-.07.92,7.51,7.51,0,0,1-.22,1.25,11.82,11.82,0,0,1-4.32,6.68,12,12,0,0,1-11.46,1.8,12.1,12.1,0,0,1-5.66-4.22,12.11,12.11,0,0,1,0-14.39,12.1,12.1,0,0,1,5.66-4.22,12,12,0,0,1,11.46,1.8,11.82,11.82,0,0,1,4.32,6.68,7.34,7.34,0,0,1,.22,1.25,5.47,5.47,0,0,1,.07.92A4,4,0,0,1,274.84,275Z" style="fill:#263238"></path><path d="M255.5,281.36a5.73,5.73,0,0,1-.31-6.3,27.17,27.17,0,0,0-.27,3.17A28.56,28.56,0,0,0,255.5,281.36Z" style="fill:#263238"></path><path d="M257.25,282.86a3.46,3.46,0,0,1-1.43-2.57,3.51,3.51,0,0,1,.53-2.9,17.82,17.82,0,0,0,0,2.81A16.53,16.53,0,0,0,257.25,282.86Z" style="fill:#263238"></path><path d="M261,284.79a4.89,4.89,0,0,1-3-4.31c.14,0,.47,1.13,1.31,2.3S261.09,284.66,261,284.79Z" style="fill:#263238"></path><circle cx="259.49" cy="315.75" r="11.92" transform="translate(-107.65 495.31) rotate(-76.65)" style="fill:#BA68C8"></circle><path d="M271.4,315.75a21.85,21.85,0,0,0-.47-2.88,11.85,11.85,0,0,0-4.35-6.44,11.66,11.66,0,0,0-11.07-1.64,10.84,10.84,0,0,0-2.95,1.59,10.73,10.73,0,0,0-2.46,2.48,11.59,11.59,0,0,0,0,13.78,10.73,10.73,0,0,0,2.46,2.48,10.87,10.87,0,0,0,2.95,1.6,11.75,11.75,0,0,0,11.08-1.64,11.92,11.92,0,0,0,4.34-6.44,21.82,21.82,0,0,0,.47-2.89,4.41,4.41,0,0,1,0,.76,5.51,5.51,0,0,1-.07.93,8.71,8.71,0,0,1-.22,1.25,11.87,11.87,0,0,1-4.32,6.68,12,12,0,0,1-5.08,2.3,12.23,12.23,0,0,1-6.38-.5,11.26,11.26,0,0,1-3.09-1.65,11.65,11.65,0,0,1-2.58-2.57,12.09,12.09,0,0,1,0-14.39,11.24,11.24,0,0,1,2.57-2.58,11.51,11.51,0,0,1,3.09-1.64,12,12,0,0,1,15.78,8.48,8.48,8.48,0,0,1,.22,1.25,5.47,5.47,0,0,1,.07.92A4.41,4.41,0,0,1,271.4,315.75Z" style="fill:#263238"></path><path d="M252.06,322.09a5.75,5.75,0,0,1-.31-6.31,30.73,30.73,0,0,0-.27,3.18A31.67,31.67,0,0,0,252.06,322.09Z" style="fill:#263238"></path><path d="M253.81,323.59a3.56,3.56,0,0,1-1.42-2.57,3.53,3.53,0,0,1,.52-2.9,17.82,17.82,0,0,0,0,2.81A19.19,19.19,0,0,0,253.81,323.59Z" style="fill:#263238"></path><path d="M257.57,325.52a4.89,4.89,0,0,1-3-4.31c.15,0,.48,1.12,1.32,2.3S257.66,325.39,257.57,325.52Z" style="fill:#263238"></path><path d="M180.73,242.55a49.1,49.1,0,0,0-1.65-5.42,45.94,45.94,0,0,0-2.77-4.93,14.56,14.56,0,0,1,4.42,10.35Z" style="fill:#263238"></path><path d="M246.8,240.61a4.82,4.82,0,0,1-.58-2,11.15,11.15,0,0,1,2.94-9.12,4.85,4.85,0,0,1,1.6-1.25,18.09,18.09,0,0,1-1.33,1.5,12.62,12.62,0,0,0-2.27,4.14,12.42,12.42,0,0,0-.57,4.69C246.68,239.84,246.88,240.58,246.8,240.61Z" style="fill:#fff"></path><path d="M252.73,276.51a4.74,4.74,0,0,1-.23-2,10.63,10.63,0,0,1,4.53-8.26,4.57,4.57,0,0,1,1.81-.87c0,.08-.64.42-1.59,1.16a12.15,12.15,0,0,0-3,3.56,11.79,11.79,0,0,0-1.39,4.43C252.74,275.74,252.82,276.5,252.73,276.51Z" style="fill:#fff"></path><path d="M250.29,317.4a4.73,4.73,0,0,1-.39-2,10,10,0,0,1,.94-4.74,10.06,10.06,0,0,1,3-3.75,4.33,4.33,0,0,1,1.76-.94c0,.07-.62.44-1.53,1.23a11.33,11.33,0,0,0-2.81,3.68,11.22,11.22,0,0,0-1,4.51C250.24,316.63,250.38,317.38,250.29,317.4Z" style="fill:#fff"></path><path d="M202.39,201.41a6.67,6.67,0,0,1-.78.92l-2.23,2.42c-1.88,2.05-4.43,4.91-7.1,8.19s-5,6.36-6.59,8.62l-1.92,2.67a5.18,5.18,0,0,1-.75,1,5.39,5.39,0,0,1,.58-1.06c.4-.67,1-1.62,1.79-2.77,1.55-2.32,3.8-5.44,6.48-8.73s5.29-6.14,7.24-8.12c1-1,1.78-1.78,2.35-2.31A4.64,4.64,0,0,1,202.39,201.41Z" style="fill:#fff"></path><path d="M155.28,205.91s-.47-7.18-1.5-9.4L148,186s-2-1.51-2.42,1.14a10.75,10.75,0,0,0,.75,5.3l1.15,2.46-1.86-2.34-5-6.91s-4.06-5.41-5.56-4c-.94.89-.46,2.72,1.26,5.21,1.09,1.59,2.36,3.45,3.15,4.59-1.82-2-6.05-8.14-6.92-9-1.16-1.12-2.51-2.49-4.06-1.7s.39,3.93.39,3.93l6.52,9.86s-3.33-4.63-4-5.28-2-2.6-3.09-3.72a3,3,0,0,0-3.35-.69c-1.23.67.29,3.06.29,3.06l5.66,7.32c0,.12,1.44,2.45,2.16,3.51-.49-.45-1.24-1-1.24-1l-2.46-2.51s-2.59-2.72-3.89-2.35-.94,1.29-.94,1.29l4.75,6.44,7.77,7.59,5.6,5.63s2.44,8.91,3,9,15.19-12.76,15.19-12.76Z" style="fill:#e0e0e0"></path><path d="M155.28,205.91s.14.08.38.25l1.09.78,4.17,3.05.1.07-.09.07c-2.28,2-5.34,4.71-9.09,7.93l-3,2.5-1.59,1.31-.83.65-.44.32a1.25,1.25,0,0,1-.34.15c-.27-.05-.26-.19-.33-.26a30.56,30.56,0,0,1-1.53-4.25c-.45-1.47-.89-3-1.33-4.57l.05.09-6.35-6.33-7-6.86h0l0,0-4.76-6.44,0,0v0a1.15,1.15,0,0,1,.48-1.32,2.28,2.28,0,0,1,.62-.28,1.63,1.63,0,0,1,.73,0,6.15,6.15,0,0,1,2.21,1.31,20.6,20.6,0,0,1,1.85,1.77L132,197.6l0,0c.39.32.83.68,1.26,1.05l-.38.32c-.36-.54-.72-1.11-1.09-1.7l-.55-.9-.28-.46a5,5,0,0,1-.28-.54l0,.1-5.66-7.31h0a6.39,6.39,0,0,1-.67-1.48,2.67,2.67,0,0,1-.13-.86,1.3,1.3,0,0,1,.35-.9,2.37,2.37,0,0,1,1.71-.45A3.43,3.43,0,0,1,128,185a13.08,13.08,0,0,1,2.27,2.45l1,1.29c.34.41.74.84,1.07,1.28,1.13,1.48,2.22,3,3.29,4.46l-.43.3-4.64-7L129.39,186a16.48,16.48,0,0,1-1.1-1.77,6.3,6.3,0,0,1-.65-2,1.79,1.79,0,0,1,.22-1.14,1.56,1.56,0,0,1,1-.64,2.59,2.59,0,0,1,2.11.42,10.1,10.1,0,0,1,1.57,1.31,29.62,29.62,0,0,1,2.47,3.12c1.56,2.08,3,4.19,4.65,6.06l-.38.3-2.36-3.45a20.53,20.53,0,0,1-2.13-3.51,4.16,4.16,0,0,1-.4-2,1.76,1.76,0,0,1,.45-1,1.13,1.13,0,0,1,1.09-.35,4.23,4.23,0,0,1,1.78,1,13.71,13.71,0,0,1,1.4,1.34,25.37,25.37,0,0,1,2.35,2.91l2.11,2.91,2,2.81c.67.91,1.38,1.76,2,2.62l-.33.2c-.44-1-.91-1.9-1.3-2.87a11.85,11.85,0,0,1-.65-2.94,6.56,6.56,0,0,1,.29-2.86,1.32,1.32,0,0,1,1.13-.9,2.25,2.25,0,0,1,1.33.46l0,0,0,0,5.73,10.49h0a18.86,18.86,0,0,1,.92,4c.16,1.18.26,2.17.33,3s.11,1.42.13,1.83a5.77,5.77,0,0,1,0,.62s0-.21-.07-.62-.11-1-.19-1.81-.21-1.8-.39-3a17.89,17.89,0,0,0-.95-4h0l-5.82-10.44,0,0a1.94,1.94,0,0,0-1.12-.38,1,1,0,0,0-.84.7,6.35,6.35,0,0,0-.25,2.7,11.65,11.65,0,0,0,.65,2.84c.37.92.86,1.87,1.3,2.84l.66,1.45-1-1.25c-.67-.86-1.38-1.71-2.06-2.62l-2.05-2.8-2.12-2.9a26.34,26.34,0,0,0-2.33-2.87,15,15,0,0,0-1.36-1.29,3.93,3.93,0,0,0-1.57-.88c-.55-.15-1,.39-1,1a3.84,3.84,0,0,0,.38,1.81,20.19,20.19,0,0,0,2.09,3.43l2.37,3.43-.38.3c-1.67-1.91-3.13-4-4.69-6.09a30,30,0,0,0-2.42-3.05,9.61,9.61,0,0,0-1.49-1.24,2.06,2.06,0,0,0-1.71-.36,1.13,1.13,0,0,0-.68.42,1.31,1.31,0,0,0-.14.82,5.52,5.52,0,0,0,.6,1.84,15.74,15.74,0,0,0,1.07,1.72l1.14,1.73,4.65,7-.43.3c-1.07-1.48-2.16-3-3.29-4.45-.32-.45-.68-.82-1-1.27l-1-1.3a12.71,12.71,0,0,0-2.15-2.33,2.84,2.84,0,0,0-1.38-.46,1.93,1.93,0,0,0-1.32.3,1.31,1.31,0,0,0-.09,1.24,6.19,6.19,0,0,0,.62,1.36l0,0,5.66,7.31-.17.15.22-.05h0l0,.06.06.11.13.23.27.45.55.89c.36.59.72,1.16,1.08,1.69l1,1.46L132.93,199l-1.22-1,0,0h0l-1.8-1.85a24.62,24.62,0,0,0-1.81-1.74,5.93,5.93,0,0,0-2-1.2,1.12,1.12,0,0,0-.48,0,1.4,1.4,0,0,0-.48.21.67.67,0,0,0-.31.75l0-.06,4.75,6.46,0,0,7,6.88,6.32,6.36,0,0v.05c.43,1.57.87,3.09,1.31,4.56a29.92,29.92,0,0,0,1.47,4.17c0,.08.13.11,0,.12s.09-.07.15-.12l.42-.3.83-.64,1.59-1.29,3-2.48L160.8,210v.15L156.67,207l-1-.8Z" style="fill:#263238"></path><path d="M148.15,196.21c0,.07-.44.41-1.09,1.09a9.27,9.27,0,0,0-2,3,9.47,9.47,0,0,0-.61,3.55,10.74,10.74,0,0,1,.07,1.53,3,3,0,0,1-.44-1.51,8,8,0,0,1,.5-3.76,7.72,7.72,0,0,1,2.19-3.09A3.16,3.16,0,0,1,148.15,196.21Z" style="fill:#263238"></path><path d="M143,192a26.8,26.8,0,0,0-4.83,3.69,27.14,27.14,0,0,0-3.44,5,11.19,11.19,0,0,1,3.06-5.37A11,11,0,0,1,143,192Z" style="fill:#263238"></path><path d="M328.69,144.93c7.14-8.64,10.78-21.6,12.27-32.72s-1.33-23.06-8.91-31.32-20.16-12.1-30.62-8.07c-11.21,4.31-18,16.78-17.73,28.78s9.26,24.23,19.2,31c11.21,7.62,14.55,10.28,25.79,12.35" style="fill:#455a64"></path><path d="M325.52,148.48a11.32,11.32,0,0,0,1-5.89l1.4.64c1.56.6,3.7,3.15,4.62,4.55.26.4.49,1,.19,1.34s-1,.26-1.4,0a3.65,3.65,0,0,0-1.31-.8,3.58,3.58,0,0,1,.41,1.55,1.25,1.25,0,0,1-.87,1.21,1.27,1.27,0,0,1-1.3-.79,3.79,3.79,0,0,1-.2-1.61,3.73,3.73,0,0,1-.88,1.79,1.28,1.28,0,0,1-1.8,0C324.94,149.94,325.24,149.13,325.52,148.48Z" style="fill:#455a64"></path><path d="M326.15,144.41c-.12.19.68.77,1.79.56s1.64-1,1.46-1.17-.79.21-1.62.36S326.24,144.2,326.15,144.41Z" style="fill:#263238"></path><path d="M290.73,111.5a6.44,6.44,0,0,0,.71,1.54,41.93,41.93,0,0,0,2.36,4,61.07,61.07,0,0,0,22.41,20.3,41.12,41.12,0,0,0,4.19,2,7.11,7.11,0,0,0,1.6.55c.06-.13-2.15-1.1-5.51-3A71.32,71.32,0,0,1,304.28,128a70.67,70.67,0,0,1-10-11.28C292,113.53,290.86,111.43,290.73,111.5Z" style="fill:#f5f5f5"></path><path d="M287.49,99.12c-.22,0-.1,1.68.27,3.67s.85,3.56,1.08,3.52.1-1.68-.27-3.67S287.71,99.07,287.49,99.12Z" style="fill:#f5f5f5"></path><path d="M346.14,107.8C334.49,101.06,325,88,318.65,76.11s-8.13-26.51-3-39,17.63-22,31.09-21.87c14.41.17,27.26,11.36,32,25s-.3,31.14-8.66,42.88c-9.45,13.26-12.08,17.65-23.87,24.68" style="fill:#BA68C8"></path><path d="M351.19,110.47a13.53,13.53,0,0,1-3.6-6.21l-1.3,1.31c-1.51,1.33-2.85,5.09-3.31,7.05-.13.56-.14,1.28.35,1.58s1.21-.11,1.56-.61.6-1.14,1.14-1.44a4.55,4.55,0,0,0,.18,1.91,1.51,1.51,0,0,0,1.49,1,1.48,1.48,0,0,0,1.13-1.42,4.37,4.37,0,0,0-.44-1.9,4.49,4.49,0,0,0,1.74,1.64,1.54,1.54,0,0,0,2-.7C352.45,111.87,351.77,111.08,351.19,110.47Z" style="fill:#BA68C8"></path><path d="M348.78,106.15c.17.12-.51,1-1.8,1.26s-2.23-.42-2.12-.58,1,0,2-.16S348.63,106,348.78,106.15Z" style="fill:#263238"></path><g style="opacity:0.30000000000000004"><path d="M335.05,22.77c-14,7.23-19.22,21.16-16.23,36.61.95,4.94,3,9.86,7.49,12.64a10.44,10.44,0,0,0,3.84,1.46c6.92,1.14,10.9-4.55,12-10.18.85-4.16.47-8.46.79-12.7s1.5-8.7,4.7-11.5,8.16-3.78,8.9-8.55a7.45,7.45,0,0,0-2.22-6.25,12.23,12.23,0,0,0-4.46-2.84,17.43,17.43,0,0,0-13.15.58Z" style="fill:#fff"></path></g><path d="M374.89,54.32a10.8,10.8,0,0,1-.19,2c-.16,1.3-.51,3.16-1,5.44a72.59,72.59,0,0,1-2.34,7.89,81.58,81.58,0,0,1-4,9.23,83.7,83.7,0,0,1-5.24,8.61A72.39,72.39,0,0,1,356.93,94a52.61,52.61,0,0,1-3.86,4,9.84,9.84,0,0,1-1.54,1.32,10.19,10.19,0,0,1,1.34-1.52c.9-.94,2.16-2.34,3.66-4.12s3.2-4,5-6.49a90,90,0,0,0,5.14-8.56,89.6,89.6,0,0,0,4.05-9.13c1.06-2.88,1.9-5.52,2.48-7.78s1-4.08,1.26-5.36A10.41,10.41,0,0,1,374.89,54.32Z" style="fill:#fff"></path><path d="M373.36,39c.21,0,.71,1.87,1.12,4.26s.58,4.36.37,4.4-.7-1.88-1.11-4.27S373.16,39.06,373.36,39Z" style="fill:#fff"></path><path d="M375.88,164c-7.15-8.64-10.78-21.6-12.28-32.72s1.34-23.06,8.92-31.32,20.16-12.1,30.62-8.07c11.2,4.31,18,16.78,17.73,28.78s-9.27,24.23-19.2,31c-11.22,7.62-14.55,10.28-25.79,12.35" style="fill:#BA68C8"></path><path d="M379.05,167.52a11.34,11.34,0,0,1-1-5.89l-1.4.64c-1.56.6-3.7,3.15-4.62,4.55-.27.4-.49,1-.19,1.34s1,.26,1.4,0a3.56,3.56,0,0,1,1.3-.8,3.89,3.89,0,0,0-.41,1.55,1.11,1.11,0,0,0,2.17.42,3.64,3.64,0,0,0,.21-1.61,3.73,3.73,0,0,0,.88,1.79,1.28,1.28,0,0,0,1.8,0C379.63,169,379.33,168.17,379.05,167.52Z" style="fill:#BA68C8"></path><path d="M378.42,163.45c.12.19-.68.76-1.79.55s-1.64-1-1.47-1.16.79.21,1.62.36S378.32,163.24,378.42,163.45Z" style="fill:#263238"></path><path d="M413.84,130.54a7,7,0,0,1-.71,1.54,41.93,41.93,0,0,1-2.36,4,61.07,61.07,0,0,1-22.41,20.3,43.44,43.44,0,0,1-4.19,2,7.11,7.11,0,0,1-1.6.55c-.06-.13,2.14-1.1,5.51-3a69,69,0,0,0,22.21-20.12C412.53,132.57,413.71,130.47,413.84,130.54Z" style="fill:#f5f5f5"></path><path d="M417.08,118.16c.22,0,.1,1.68-.27,3.67s-.86,3.56-1.08,3.52-.1-1.69.27-3.67S416.86,118.11,417.08,118.16Z" style="fill:#f5f5f5"></path><path d="M338.34,207.07c-1.94.48-3,3.24-4.45,6.68a74.43,74.43,0,0,1-3.37,6.69c-2.27.57-7.38,1.95-7.2,2.89.24,1.21,11.09,18.3,12,17.49s4.24-7.48,4.24-7.48l8.19-5c4.48-9.16-3-16-3-16s.13-.68,3.39-1.2a9.41,9.41,0,0,0,3.54-1.09,3.26,3.26,0,0,0,1.92-2.91S340.28,206.59,338.34,207.07Z" style="fill:#e0e0e0"></path><path d="M342.75,211.21a6,6,0,0,1-.59,1.28c-.41.79-1,1.9-1.76,3.22v-.26a13.34,13.34,0,0,1,2.39,10.31,11.19,11.19,0,0,1-.54,1.93c-.18.43-.3.67-.33.65s.29-1,.51-2.63a14.77,14.77,0,0,0-.58-6.34,14.08,14.08,0,0,0-1.83-3.64l-.09-.13.08-.13c.78-1.29,1.44-2.37,1.92-3.12A4.67,4.67,0,0,1,342.75,211.21Z" style="fill:#263238"></path><path d="M348.73,109.2s0,.16.09.49.13.84.22,1.46c.2,1.28.45,3.18.74,5.63.55,4.89,1.22,12,1.4,20.82a231.78,231.78,0,0,1-1.4,30.92c-1.27,11.59-3.76,24.18-5.12,37.53s-1.77,26.18-2.31,37.81-1,22.11-1.39,30.92-.75,15.9-1,20.84c-.13,2.44-.23,4.35-.3,5.66,0,.63-.06,1.12-.09,1.48s0,.5,0,.5a3.91,3.91,0,0,1,0-.51c0-.35,0-.84,0-1.47,0-1.32.11-3.23.19-5.67.2-4.94.48-12.06.82-20.85s.8-19.28,1.28-30.92.91-24.45,2.27-37.84,3.87-26,5.17-37.54a237.46,237.46,0,0,0,1.5-30.85c-.13-8.8-.74-15.91-1.23-20.81-.27-2.45-.47-4.35-.64-5.63-.07-.63-.13-1.12-.17-1.47S348.73,109.2,348.73,109.2Z" style="fill:#263238"></path><path d="M335.83,309.1a1.91,1.91,0,0,1,0-.39c0-.28,0-.66.05-1.14.06-1,.15-2.51.26-4.39.25-3.83.61-9.33,1.05-16.11s1-14.91,1.62-23.9c.31-4.49.64-9.21,1-14.11s.74-10,1.37-15.13c1.26-10.32,3.61-20.14,7.73-28.23s9.19-14.51,13.25-20,7.34-9.9,9.37-13.13c1-1.63,1.76-2.89,2.24-3.77l.57-1c.13-.22.21-.33.21-.33a1.36,1.36,0,0,1-.16.36l-.53,1c-.45.9-1.19,2.18-2.16,3.82-2,3.27-5.15,7.8-9.24,13.25s-9.09,11.9-13.12,19.95-6.38,17.79-7.65,28.09c-.62,5.15-1,10.21-1.37,15.1s-.69,9.61-1,14.11c-.65,9-1.24,17.08-1.73,23.89s-.93,12.27-1.22,16.1c-.15,1.88-.27,3.34-.35,4.37l-.11,1.14A2.94,2.94,0,0,1,335.83,309.1Z" style="fill:#263238"></path><path d="M340.78,278.61a1.77,1.77,0,0,1-.07-.33c0-.25-.08-.58-.13-1-.1-.87-.32-2.14-.44-3.8a116.54,116.54,0,0,1-.3-14.07c.18-6,.8-13,1.46-20.83a182.59,182.59,0,0,0,.77-25.48A97.36,97.36,0,0,0,340.42,200c-.79-4.19-1.73-8.21-2.74-12-2-7.59-4.06-14.36-5.59-20.1s-2.62-10.43-3.2-13.71c-.34-1.63-.49-2.91-.63-3.77-.06-.41-.11-.74-.14-1s0-.33,0-.34a1.83,1.83,0,0,1,.09.33l.19,1c.18.86.36,2.13.73,3.75.64,3.26,1.77,7.93,3.36,13.65s3.67,12.48,5.69,20.08c1,3.79,2,7.82,2.78,12a96.58,96.58,0,0,1,1.67,13.15,177.19,177.19,0,0,1-.81,25.55c-.69,7.83-1.34,14.87-1.57,20.8a125.39,125.39,0,0,0,.13,14c.09,1.66.28,2.94.34,3.81q.06.62.09,1A2.17,2.17,0,0,1,340.78,278.61Z" style="fill:#263238"></path><path d="M341.09,211.7c3.88.61,12.44-.89,12.63-4.49l-13-.32s-3.74-1.57-6,4.94-4.18,8.61-4.18,8.61" style="fill:#e0e0e0"></path><path d="M330.52,220.44s.27-.41.72-1.18a32,32,0,0,0,1.69-3.42c.32-.75.66-1.58,1-2.49s.65-1.89,1.11-2.92a8.11,8.11,0,0,1,2-2.9,3.9,3.9,0,0,1,3.77-.87l-.09,0,4.55.1,8.44.22H354l0,.25a3.6,3.6,0,0,1-1.78,2.58,10.63,10.63,0,0,1-2.56,1.18,20.35,20.35,0,0,1-4.5.88,17.47,17.47,0,0,1-3,0,6,6,0,0,1-.78-.11,1.23,1.23,0,0,1-.27-.07,6.14,6.14,0,0,1,1.06,0,20.05,20.05,0,0,0,2.94-.15,22.4,22.4,0,0,0,4.4-1,10.61,10.61,0,0,0,2.43-1.17,3.17,3.17,0,0,0,1.56-2.24l.23.26-8.43-.19-4.55-.11h0l-.06,0a3.4,3.4,0,0,0-3.25.77,7.6,7.6,0,0,0-1.95,2.72c-.45,1-.78,2-1.14,2.87s-.72,1.73-1.05,2.48a25.73,25.73,0,0,1-1.85,3.38A4.46,4.46,0,0,1,330.52,220.44Z" style="fill:#263238"></path><path d="M350.27,210.68a4.51,4.51,0,0,1,1.9,0,2.21,2.21,0,0,1,1.72,1.34c.53,1.6-.77,3.42-.77,3.42a2.14,2.14,0,0,1,1.6,1.91c.15,1.6-1.92,2.88-1.92,2.88s1.73.83,1.49,2.43a2.86,2.86,0,0,1-1.62,2.15,2.92,2.92,0,0,1,.61,2.38c-.58,1.83-3.13,1.62-4.28,1.47a42.15,42.15,0,0,1-5.09-1.72s-3.13-1.6-.39-3.8a1.71,1.71,0,0,1-.76-1.76c.31-1.06,2-2.27,2-2.27s-.87-.58-.87-1.24a1.84,1.84,0,0,1,1.6-1.74s-2.56,0-2.85-1.72,1.72-2.42,2.08-2.55C345.59,211.59,348.9,210.94,350.27,210.68Z" style="fill:#e0e0e0"></path><path d="M350.27,210.68a5.62,5.62,0,0,1-.89.23l-2.51.58c-1.06.29-2.53.4-3.57,1.51a1.57,1.57,0,0,0-.16,2.05,3.27,3.27,0,0,0,2.37.89l1.88.07-1.86.35a1.67,1.67,0,0,0-1.32,1,1.33,1.33,0,0,0-.07.45.69.69,0,0,0,.1.39,2.1,2.1,0,0,0,.67.69l.27.19-.27.2a7.14,7.14,0,0,0-1.69,1.69,1.29,1.29,0,0,0-.23,1,1.63,1.63,0,0,0,.67.89l.28.2-.26.21a2.2,2.2,0,0,0-1,1.76,2.43,2.43,0,0,0,1.36,1.62h0c.87.34,1.8.69,2.75,1a13.67,13.67,0,0,0,2.42.7,6.48,6.48,0,0,0,2.41-.07,1.87,1.87,0,0,0,1.49-1.39,2.65,2.65,0,0,0-.59-2l-.19-.26.29-.13a2.58,2.58,0,0,0,1.49-2.14,2.3,2.3,0,0,0-1.36-2l-.34-.18.32-.21a3.69,3.69,0,0,0,1.83-2.42,1.91,1.91,0,0,0-1.44-2l-.24-.07.14-.21a4.43,4.43,0,0,0,.86-3,2,2,0,0,0-1.54-1.56,5.81,5.81,0,0,0-2-.15s.17-.08.52-.12a4,4,0,0,1,1.56.09,2.91,2.91,0,0,1,1,.49,1.94,1.94,0,0,1,.71,1.2,4.64,4.64,0,0,1-.85,3.22l-.1-.27a2.43,2.43,0,0,1,1.28.82,2.4,2.4,0,0,1,.48,1.56,2.82,2.82,0,0,1-.68,1.57,5.65,5.65,0,0,1-1.32,1.2l0-.39a3.58,3.58,0,0,1,1.15.94,2.29,2.29,0,0,1,.49,1.49,3.06,3.06,0,0,1-1.78,2.58l.1-.38a3.13,3.13,0,0,1,.71,2.4,2.3,2.3,0,0,1-.67,1.18,2.82,2.82,0,0,1-1.19.61,7.11,7.11,0,0,1-2.6.09,16,16,0,0,1-2.53-.72c-1-.34-1.89-.69-2.77-1h0a3.94,3.94,0,0,1-1-.81,2.16,2.16,0,0,1-.59-1.22,2,2,0,0,1,.35-1.29c.12-.18.27-.34.4-.5l.46-.41,0,.41a2.17,2.17,0,0,1-.88-1.2,1.79,1.79,0,0,1,.3-1.42,7.31,7.31,0,0,1,1.83-1.81v.38a2.66,2.66,0,0,1-.81-.86,1.12,1.12,0,0,1-.15-.62,1.85,1.85,0,0,1,.09-.58,2.11,2.11,0,0,1,1.69-1.32l0,.42a3.54,3.54,0,0,1-2.66-1.08,1.92,1.92,0,0,1,.2-2.51,4.22,4.22,0,0,1,2-1.12c.66-.17,1.26-.29,1.81-.4,1.1-.22,2-.37,2.55-.46A4.35,4.35,0,0,1,350.27,210.68Z" style="fill:#263238"></path><path d="M352.59,224.74c.05,0-.3.54-1.2.77a6,6,0,0,1-3.39-.44,21.39,21.39,0,0,1-4.41-1.74,21.18,21.18,0,0,1,4.58,1.25,4.69,4.69,0,0,0,4.42.16Z" style="fill:#263238"></path><path d="M352.9,220.16c0,.06-.43.25-1.2.32a13.55,13.55,0,0,1-3-.19,11,11,0,0,1-4-1.23,36.77,36.77,0,0,1,4.08.72c1.12.16,2.15.3,2.88.33S352.89,220.08,352.9,220.16Z" style="fill:#263238"></path><path d="M353,215.52a13.45,13.45,0,0,1-7.22.57,26.37,26.37,0,0,1,3.61-.31A22.92,22.92,0,0,1,353,215.52Z" style="fill:#263238"></path></g><g id="freepik--Balloon--inject-17"><path d="M71.55,326.56a1.56,1.56,0,0,0-1.68.3,1.24,1.24,0,0,0,.08,1.47,2.79,2.79,0,0,0,1.34.39,1.35,1.35,0,0,0-1.16.8,1.15,1.15,0,0,0,.38,1.33,1,1,0,0,0,.83.11,3.1,3.1,0,0,0-.77.67,1.51,1.51,0,0,0-.3,1.5,1.48,1.48,0,0,0,1.81.67,3.1,3.1,0,0,0,1.54-1.39,19.46,19.46,0,0,1,1.11-1.81,1.76,1.76,0,0,1,2.12-.31l.26-1.82C75.22,329,73.21,327.09,71.55,326.56Z" style="fill:#455a64"></path><path d="M71.55,326.56a3.84,3.84,0,0,1,1.54.59c.47.24,1,.56,1.69.84a3.33,3.33,0,0,0,2.26.27l.32-.1,0,.34c-.08.58-.15,1.19-.23,1.82l0,.34-.3-.16a1.6,1.6,0,0,0-1.18-.13,1.52,1.52,0,0,0-.94.83,7.26,7.26,0,0,1-1.94,2.59,1.63,1.63,0,0,1-2.45-2.12,3.23,3.23,0,0,1,1-.91l.19.43a1.19,1.19,0,0,1-1.19-.29,1.37,1.37,0,0,1-.37-1.09,1.47,1.47,0,0,1,1.44-1.28v.39a4,4,0,0,1-1.08-.26,1.24,1.24,0,0,1-.46-.32,1,1,0,0,1-.2-.5,1.8,1.8,0,0,1,.14-.88.94.94,0,0,1,.57-.51,1.9,1.9,0,0,1,1,0c.22.06.32.12.31.14a3,3,0,0,0-1.23.09,1,1,0,0,0-.48,1.15c0,.54.77.66,1.47.73v.39a1.08,1.08,0,0,0-1,.93.79.79,0,0,0,1,.88l1.73-.6-1.54,1a2.63,2.63,0,0,0-.81.78,1.22,1.22,0,0,0-.18,1,1.28,1.28,0,0,0,1.92.39,7.14,7.14,0,0,0,1.79-2.42,3.49,3.49,0,0,1,.5-.64,1.77,1.77,0,0,1,.74-.39,2,2,0,0,1,1.54.19l-.35.17c.1-.64.19-1.25.27-1.82l.28.23a3.61,3.61,0,0,1-2.53-.37,17.55,17.55,0,0,1-1.67-.94C72.09,326.81,71.54,326.6,71.55,326.56Z" style="fill:#263238"></path><path d="M114.58,329.92l4.8,15.82a6.84,6.84,0,0,1-4.56,8.52h0c-3,1.45-7.24-.84-8.53-4.56l-4.79-15.81a6.84,6.84,0,0,1,4.55-8.53h0A6.85,6.85,0,0,1,114.58,329.92Z" style="fill:#455a64"></path><path d="M114.58,329.92a8.48,8.48,0,0,0-1.53-2.51,6.89,6.89,0,0,0-2.87-1.84,6.65,6.65,0,0,0-8.73,6.76,14.43,14.43,0,0,0,.78,3.16l4.32,14.15a7.45,7.45,0,0,0,5.29,4.71,5.66,5.66,0,0,0,1.74,0,4.31,4.31,0,0,0,.82-.23l.44-.17.4-.15a6.49,6.49,0,0,0,2.7-1.95,6.56,6.56,0,0,0,1.28-5.87c-.57-1.93-1.1-3.74-1.58-5.39-1-3.26-1.73-5.92-2.29-7.82l-.6-2.13a3.74,3.74,0,0,1-.17-.76,4.42,4.42,0,0,1,.27.73q.27.78.69,2.1c.6,1.89,1.43,4.53,2.45,7.77.5,1.65,1.06,3.46,1.65,5.39a7,7,0,0,1-1.33,6.29,7.07,7.07,0,0,1-2.89,2.11l-.43.16-.41.16a5.7,5.7,0,0,1-.92.26,6.19,6.19,0,0,1-1.92,0,7.92,7.92,0,0,1-5.69-5.05c-1.51-5-3-9.81-4.27-14.17a14.86,14.86,0,0,1-.79-3.27,7.24,7.24,0,0,1,.54-3.16,7,7,0,0,1,4.08-3.87,7,7,0,0,1,7.59,1.94,6.69,6.69,0,0,1,1.16,1.91c.09.23.14.42.18.55A.67.67,0,0,1,114.58,329.92Z" style="fill:#263238"></path><rect x="142.92" y="335.96" width="13.93" height="3.69" rx="1.5" transform="translate(-202.37 226.02) rotate(-48.47)" style="fill:#455a64"></rect><path d="M154.88,334.93a1.8,1.8,0,0,0,.26-1.17,1.7,1.7,0,0,0-.81-1.12,1.4,1.4,0,0,0-1.64-.35,2.68,2.68,0,0,0-.78.74l-.82,1-1.82,2.09-4.2,4.77a1.27,1.27,0,0,0-.22,1.29,1.38,1.38,0,0,0,.42.55,7.24,7.24,0,0,0,.58.49,1.25,1.25,0,0,0,1.24.06c.36-.18.66-.65,1-1l3.48-3.85,2.38-2.56a6.84,6.84,0,0,1,.93-.9,5.68,5.68,0,0,1-.77,1l-2.26,2.67-3.4,3.93c-.16.18-.32.37-.49.55a2,2,0,0,1-.63.56,1.77,1.77,0,0,1-1.75-.07,7.76,7.76,0,0,1-.65-.53,2,2,0,0,1-.56-.74,1.75,1.75,0,0,1,.31-1.83l4.23-4.75,1.86-2.06.84-.93.4-.44a1.8,1.8,0,0,1,.52-.36,1.72,1.72,0,0,1,2,.46,3.15,3.15,0,0,1,.59.62,1.61,1.61,0,0,1,.23.69,1.47,1.47,0,0,1-.22,1C155,334.87,154.89,334.94,154.88,334.93Z" style="fill:#263238"></path><rect x="136.26" y="338.37" width="15.57" height="12.02" rx="4.89" transform="translate(-209.26 223.87) rotate(-48.47)" style="fill:#455a64"></rect><path d="M139.73,351a7.25,7.25,0,0,0,1.6.84,4.78,4.78,0,0,0,2.08.22,4.68,4.68,0,0,0,2.5-1.05,9.12,9.12,0,0,0,1.12-1.18l1.18-1.36,1.27-1.45a15.36,15.36,0,0,0,1.27-1.55,4.66,4.66,0,0,0-.77-5.83L148.2,338a4.63,4.63,0,0,0-6-.09,17.69,17.69,0,0,0-1.45,1.54l-2.65,3a4.82,4.82,0,0,0-1.44,2.93,4.7,4.7,0,0,0,.49,2.68,5.48,5.48,0,0,0,1.32,1.63l1,.94a2,2,0,0,1,.32.35s-.15-.08-.39-.27l-1.06-.87a5.39,5.39,0,0,1-1.43-1.64,4.9,4.9,0,0,1-.61-2.85,5.23,5.23,0,0,1,1.48-3.19l2.62-3a19.8,19.8,0,0,1,1.49-1.6,5,5,0,0,1,2.08-1.06,5.15,5.15,0,0,1,4.63,1.14l1.79,1.59a5.17,5.17,0,0,1,1.32,2,5.11,5.11,0,0,1-.49,4.43,14.66,14.66,0,0,1-1.33,1.6q-.68.74-1.29,1.44L147.33,350a9.08,9.08,0,0,1-1.19,1.21,5,5,0,0,1-2.71,1.05,4.74,4.74,0,0,1-2.17-.32,4.49,4.49,0,0,1-1.19-.69C139.83,351.08,139.72,351,139.73,351Z" style="fill:#263238"></path><path d="M99.05,336.49l-16.53.05a6.83,6.83,0,0,1-6.85-6.81h0c-.54-3.25,2.88-6.69,6.81-6.86L99,322.82a6.83,6.83,0,0,1,6.85,6.82h0A6.82,6.82,0,0,1,99.05,336.49Z" style="fill:#455a64"></path><path d="M99.05,336.49a8.39,8.39,0,0,0,2.85-.75,6.81,6.81,0,0,0,2.58-2.21,6.59,6.59,0,0,0,1.18-4.28,6.58,6.58,0,0,0-5.14-6,13.91,13.91,0,0,0-3.26-.16l-14.79.06a7.45,7.45,0,0,0-6,3.72,5.57,5.57,0,0,0-.54,1.66,4,4,0,0,0,0,.85l0,.46,0,.44A6.65,6.65,0,0,0,77,333.4a6.85,6.85,0,0,0,2.35,2.14,7,7,0,0,0,2.91.78l5.62,0,8.14.06,2.22,0a4.69,4.69,0,0,1,.77.05,3.93,3.93,0,0,1-.77.06l-2.22.05-8.14.11-5.64,0a7.12,7.12,0,0,1-3.1-.81,7.33,7.33,0,0,1-2.54-2.27,7.08,7.08,0,0,1-1.19-3.37l0-.47c0-.07,0-.29,0-.43a4.4,4.4,0,0,1,0-1,5.88,5.88,0,0,1,.59-1.82,7.9,7.9,0,0,1,6.47-4l14.8,0a14.53,14.53,0,0,1,3.36.19,7.17,7.17,0,0,1,2.87,1.42,7,7,0,0,1,2.54,5,6.91,6.91,0,0,1-4,6.71,6.79,6.79,0,0,1-2.15.57c-.26,0-.45,0-.58,0S99.05,336.5,99.05,336.49Z" style="fill:#263238"></path><path d="M123.35,309.84,116,324.64a6.83,6.83,0,0,1-9.17,3.07h0c-3.14-1-4.69-5.58-3.07-9.16l7.36-14.8a6.83,6.83,0,0,1,9.16-3.07h0A6.83,6.83,0,0,1,123.35,309.84Z" style="fill:#455a64"></path><path d="M123.35,309.84A8.3,8.3,0,0,0,124,307a6.65,6.65,0,0,0-11.8-4.37,14.31,14.31,0,0,0-1.61,2.84c-2,4.08-4.24,8.55-6.56,13.25a7.4,7.4,0,0,0,.62,7.05,5.17,5.17,0,0,0,1.24,1.23,3.83,3.83,0,0,0,.75.39l.43.18.4.17a6.48,6.48,0,0,0,3.3.43,6.55,6.55,0,0,0,5-3.39l2.54-5,3.71-7.26,1-2a5,5,0,0,1,.39-.67,5.21,5.21,0,0,1-.3.72c-.24.5-.55,1.17-.94,2-.86,1.78-2.07,4.28-3.56,7.33L116.06,325a7.12,7.12,0,0,1-2.11,2.41,7.37,7.37,0,0,1-3.17,1.25,7.15,7.15,0,0,1-3.55-.45l-.42-.18-.41-.16a4.9,4.9,0,0,1-.85-.44,6,6,0,0,1-1.36-1.35,7.91,7.91,0,0,1-.69-7.57c2.35-4.7,4.58-9.17,6.61-13.25a15.37,15.37,0,0,1,1.68-2.92,7.32,7.32,0,0,1,2.56-1.93,7.06,7.06,0,0,1,5.63,0,6.94,6.94,0,0,1,3.41,3.17,6.86,6.86,0,0,1,.77,3.45,6.71,6.71,0,0,1-.46,2.18,5.31,5.31,0,0,1-.25.52C123.39,309.79,123.36,309.85,123.35,309.84Z" style="fill:#263238"></path><path d="M120.14,363.25l-4.14,16a6.83,6.83,0,0,1-8.33,4.9h0c-3.28-.3-5.74-4.48-4.91-8.32l4.14-16a6.83,6.83,0,0,1,8.33-4.91h0A6.84,6.84,0,0,1,120.14,363.25Z" style="fill:#455a64"></path><path d="M120.14,363.25a8.9,8.9,0,0,0,0-2.95,6.76,6.76,0,0,0-1.49-3.06,6.7,6.7,0,0,0-9-1.06,6.9,6.9,0,0,0-2,2.29,14.9,14.9,0,0,0-1,3.11c-1.13,4.41-2.37,9.25-3.68,14.33a7.42,7.42,0,0,0,2.08,6.77,5.28,5.28,0,0,0,1.46.94,4,4,0,0,0,.82.23l.46.08.42.09a6.56,6.56,0,0,0,6-2,6.66,6.66,0,0,0,1.49-2.61c.52-2,1-3.76,1.45-5.43.88-3.28,1.61-6,2.12-7.87l.6-2.13a3.36,3.36,0,0,1,.25-.73,7.21,7.21,0,0,1-.15.76c-.12.54-.29,1.26-.5,2.15-.48,1.93-1.15,4.61-2,7.91l-1.39,5.46a7.11,7.11,0,0,1-1.57,2.8,7.22,7.22,0,0,1-2.84,1.88,7.13,7.13,0,0,1-3.56.3l-.46-.09-.43-.08a5,5,0,0,1-.92-.25,6,6,0,0,1-1.62-1,7.9,7.9,0,0,1-2.23-7.26c1.32-5.08,2.57-9.92,3.72-14.33a14.26,14.26,0,0,1,1-3.2,7.19,7.19,0,0,1,2.1-2.43,7,7,0,0,1,5.5-1.17,6.92,6.92,0,0,1,4,2.4,6.81,6.81,0,0,1,1.46,3.21,7.14,7.14,0,0,1,0,2.23c0,.25-.11.43-.14.56A.94.94,0,0,1,120.14,363.25Z" style="fill:#263238"></path><path d="M148.63,359.34,153.94,375a6.83,6.83,0,0,1-4.27,8.67h0c-2.91,1.55-7.27-.6-8.67-4.27l-5.31-15.65a6.83,6.83,0,0,1,4.27-8.67h0A6.83,6.83,0,0,1,148.63,359.34Z" style="fill:#455a64"></path><path d="M148.63,359.34a8.52,8.52,0,0,0-1.61-2.46,6.8,6.8,0,0,0-2.93-1.74A6.67,6.67,0,0,0,136,359.2a6.74,6.74,0,0,0-.38,3,14.62,14.62,0,0,0,.89,3.14c1.47,4.3,3.08,9,4.77,14a7.42,7.42,0,0,0,5.45,4.53,5.64,5.64,0,0,0,1.74,0,4.5,4.5,0,0,0,.81-.26l.43-.18.4-.16a6.64,6.64,0,0,0,2.63-2,6.89,6.89,0,0,0,1.28-2.91,6.71,6.71,0,0,0-.19-3L152,369.94c-1.06-3.22-1.93-5.86-2.54-7.74l-.67-2.11a4.63,4.63,0,0,1-.2-.75,4.21,4.21,0,0,1,.3.72l.76,2.08c.65,1.87,1.57,4.48,2.7,7.69l1.82,5.32a7.15,7.15,0,0,1,.23,3.2,7.26,7.26,0,0,1-1.35,3.13,7.06,7.06,0,0,1-2.81,2.21l-.44.17c-.07,0-.26.12-.39.17a4.37,4.37,0,0,1-.91.29,6,6,0,0,1-1.93,0,7.92,7.92,0,0,1-5.85-4.86l-4.74-14a15.19,15.19,0,0,1-.89-3.25,7.34,7.34,0,0,1,.43-3.18,7.11,7.11,0,0,1,4-4,6.92,6.92,0,0,1,7.64,1.7,6.77,6.77,0,0,1,1.23,1.86c.1.24.15.43.2.55A.67.67,0,0,1,148.63,359.34Z" style="fill:#263238"></path><path d="M119.32,346.63l16.52.3a6.82,6.82,0,0,1,6.71,6.95h0c.47,3.26-3,6.63-7,6.71l-16.52-.29a6.84,6.84,0,0,1-6.71-7h0A6.83,6.83,0,0,1,119.32,346.63Z" style="fill:#455a64"></path><path d="M119.32,346.63a8.35,8.35,0,0,0-2.86.69,6.71,6.71,0,0,0-3.9,6.41,6.68,6.68,0,0,0,2.33,4.77,6.88,6.88,0,0,0,2.68,1.36,14.23,14.23,0,0,0,3.25.23l14.79.24a7.44,7.44,0,0,0,6.11-3.59,5.42,5.42,0,0,0,.57-1.64,4.89,4.89,0,0,0,0-.85l0-.47v-.43a6.69,6.69,0,0,0-1-3.17A7,7,0,0,0,139,348a6.63,6.63,0,0,0-2.89-.84l-5.61-.15-8.15-.23-2.21-.09a3.81,3.81,0,0,1-.77-.06,4.12,4.12,0,0,1,.77,0h2.22l8.14.06,5.64.09a6.92,6.92,0,0,1,3.08.87,7.25,7.25,0,0,1,2.49,2.32,7,7,0,0,1,1.12,3.4l0,.46c0,.08,0,.3,0,.44a4.32,4.32,0,0,1,0,.95,5.87,5.87,0,0,1-.63,1.82,7.91,7.91,0,0,1-6.54,3.86l-14.8-.28a15.1,15.1,0,0,1-3.36-.26,7.21,7.21,0,0,1-2.85-1.49,7,7,0,0,1-2.42-5.07,6.9,6.9,0,0,1,4.18-6.62,6.81,6.81,0,0,1,2.17-.52,5.45,5.45,0,0,1,.58,0C119.25,346.61,119.32,346.62,119.32,346.63Z" style="fill:#263238"></path><path d="M104.08,377.22a17.07,17.07,0,0,1,.52-2.89c.39-1.77,1-4.21,1.67-6.88s1.45-5.07,2-6.78a15,15,0,0,1,1.08-2.73,16.9,16.9,0,0,1-.73,2.84c-.5,1.73-1.18,4.14-1.89,6.8s-1.3,4.93-1.81,6.84A16.21,16.21,0,0,1,104.08,377.22Z" style="fill:#fff"></path><path d="M143.54,378.66a7.86,7.86,0,0,1-1.07-1.8c-.59-1.14-1.34-2.76-2.07-4.59s-1.29-3.52-1.65-4.76a8.19,8.19,0,0,1-.46-2.05c.15,0,1.14,3,2.59,6.62S143.68,378.59,143.54,378.66Z" style="fill:#fff"></path><path d="M119.54,348c0,.09-.5.19-1.24.53a7.47,7.47,0,0,0-4,4.61c-.23.78-.27,1.3-.36,1.3a2.55,2.55,0,0,1,0-1.39,6.54,6.54,0,0,1,4.27-4.87A2.43,2.43,0,0,1,119.54,348Z" style="fill:#fff"></path><path d="M126,348.16a5.65,5.65,0,0,1-2.35.27,5.44,5.44,0,0,1-2.36-.26,5.72,5.72,0,0,1,2.36-.27A5.41,5.41,0,0,1,126,348.16Z" style="fill:#fff"></path><path d="M141.72,340.1c.08.13-1.18.93-2.31,2.34s-1.68,2.78-1.83,2.73a5.28,5.28,0,0,1,1.42-3.06A5.35,5.35,0,0,1,141.72,340.1Z" style="fill:#fff"></path><path d="M151.94,334.48c.11.1-.39.81-1.12,1.57s-1.4,1.31-1.5,1.22.4-.81,1.12-1.57S151.84,334.38,151.94,334.48Z" style="fill:#fff"></path><path d="M107.38,346.46a24.69,24.69,0,0,1-1.71-4.7,24.34,24.34,0,0,1-1.22-4.86,48.63,48.63,0,0,1,2.93,9.56Z" style="fill:#fff"></path><path d="M82,325.3a7.54,7.54,0,0,0-2.31,1,7.54,7.54,0,0,0-1.52,2c-.07,0-.1-.33,0-.81a3.43,3.43,0,0,1,1.15-1.6,3.49,3.49,0,0,1,1.82-.74C81.7,325.13,82,325.23,82,325.3Z" style="fill:#fff"></path><path d="M113.1,303.33a15.58,15.58,0,0,1-1.08,2.41c-.7,1.46-1.62,3.5-2.64,5.76s-2,4.3-2.72,5.75a11.64,11.64,0,0,1-1.35,2.27,14.65,14.65,0,0,1,1-2.43l2.58-5.8c1-2.27,2-4.29,2.78-5.72A11.55,11.55,0,0,1,113.1,303.33Z" style="fill:#fff"></path></g></svg>