<svg xmlns="http://www.w3.org/2000/svg" viewBox="0 0 500 500"><g id="freepik--Floor--inject-16"><ellipse id="freepik--floor--inject-16" cx="250" cy="389.14" rx="191.36" ry="106.73" style="fill:#f5f5f5"></ellipse></g><g id="freepik--Shadows--inject-16"><ellipse id="freepik--Shadow--inject-16" cx="246.52" cy="419.07" rx="97.16" ry="56.09" style="fill:#e0e0e0"></ellipse><ellipse id="freepik--shadow--inject-16" cx="407.06" cy="434.32" rx="36.31" ry="20.97" style="fill:#e0e0e0"></ellipse><ellipse id="freepik--shadow--inject-16" cx="92.38" cy="434.32" rx="36.31" ry="20.97" style="fill:#e0e0e0"></ellipse></g><g id="freepik--Balloons--inject-16"><g id="freepik--Ballons--inject-16"><polygon points="407.12 443.79 422.97 434.63 422.97 428.21 423.31 428.02 423.31 423.35 407.12 432.69 407.12 443.79" style="fill:#BA68C8"></polygon><polygon points="407.12 443.79 422.97 434.63 422.97 428.21 423.31 428.02 423.31 423.35 407.12 432.69 407.12 443.79" style="opacity:0.1"></polygon><polygon points="407.12 437.36 413.19 433.86 422.97 428.21 422.97 428.88 407.12 438.03 407.12 437.36" style="opacity:0.15"></polygon><polygon points="407.12 443.79 391.36 434.7 391.36 428.26 390.94 428.02 390.94 423.35 407.12 432.69 407.12 443.79" style="fill:#BA68C8"></polygon><polygon points="391.36 428.26 407.12 437.36 407.12 438.03 391.36 428.94 391.36 428.26" style="opacity:0.1"></polygon><polygon points="390.94 423.35 407.12 414 423.31 423.35 407.12 432.69 390.94 423.35" style="fill:#BA68C8"></polygon><polygon points="390.94 423.35 407.12 414 423.31 423.35 407.12 432.69 390.94 423.35" style="fill:#fff;opacity:0.4"></polygon><path d="M399,439.52a.4.4,0,0,0,.4-.4V428.24l16-9.23a.4.4,0,0,0,.15-.55.4.4,0,0,0-.55-.14l-16.18,9.34a.4.4,0,0,0-.2.35v11.11A.4.4,0,0,0,399,439.52Z" style="fill:#455a64"></path><path d="M415.35,439.51a.39.39,0,0,0,.4-.4V428a.42.42,0,0,0-.2-.35l-16.18-9.34a.4.4,0,1,0-.4.69l16,9.23v10.87A.39.39,0,0,0,415.35,439.51Z" style="fill:#455a64"></path><g id="freepik--balloons--inject-16"><path d="M407.41,416.41c-.38-4.45-1.15-8.85-2-13.24-1.67-9.07-3-18.08-3-27.33a117.87,117.87,0,0,1,.83-13.67c.53-4.48,1.35-8.93,1.73-13.43a73.19,73.19,0,0,0-2.47-26c-2.58-9-7.51-17.79-8-27.31,0-.46-.59-.75-.6-.15a30.41,30.41,0,0,0,.25,5.72,50.59,50.59,0,0,0,1.47,6.16c1.2,4.07,2.82,8,4.14,12A73.77,73.77,0,0,1,403.41,346c-.23,4.5-1,8.94-1.59,13.4a118.92,118.92,0,0,0-1.07,13.06A130.47,130.47,0,0,0,403,399.22c.9,4.95,1.89,9.89,2.45,14.89.15,1.27.22,2.54.32,3.82a7.67,7.67,0,0,0,.69,3.16c.74,1.17,1.14.4,1.16-.54A40.85,40.85,0,0,0,407.41,416.41Z" style="fill:#e0e0e0"></path><path d="M433.56,261.61c-8.51,20.74-2.18,43.82-2.15,65.37,0,11.32-2.11,22.48-5,33.4-2.65,10.19-6.82,19.72-10.72,29.46-1.32,3.28-2.59,6.58-3.65,10-.92,2.92-1.95,5.68-2.7,8.65-.69,2.75-1.18,5.54-1.62,8.34-.23,1.45-.34,2.9-.5,4.35,0,.37-.37,2.66.63,1.46,1.18-1.42,1-4.07,1.32-5.78.27-1.29.24-2.56.59-3.82.95-3.42,2.07-6.82,3.16-10.19s2.35-6.8,3.66-10.15c3.78-9.63,8.1-19,10.89-29,2.92-10.45,5.25-21.35,5.65-32.22.43-11.42-1.09-22.78-1.76-34.16-.69-11.79-.34-23.57,3.3-34.9C434.9,261.76,433.88,260.82,433.56,261.61Z" style="fill:#e0e0e0"></path><path d="M403.61,417.47c.25.37.48.75.72,1.13.42.68,1.36,2.68,2.33,2.62s.57-1,.32-1.5a21.76,21.76,0,0,0-2.65-3.92c-1.76-2.27-3.69-4.39-5.56-6.57-.89-1-1.78-2.05-2.64-3.1a84.3,84.3,0,0,1-8.46-11.77,45.53,45.53,0,0,1-2.83-5.89c-.87-2.22-1.31-4.57-2.14-6.8-.13-.36-.61-.63-.7-.08a12.89,12.89,0,0,0,.86,5.65,35.76,35.76,0,0,0,2.53,6.11,73.85,73.85,0,0,0,8,11.81c1.56,1.93,3.15,3.84,4.71,5.77,1.75,2.16,3.67,4.22,5.37,6.4Z" style="fill:#e0e0e0"></path><path d="M435.16,260.81a4.16,4.16,0,0,0,3.33,4.38,2.9,2.9,0,0,0,2.72-.93c.22-.32.33-.73,0-1a1.22,1.22,0,0,0-.94-.1,2.3,2.3,0,0,0-1.53.89,3.37,3.37,0,0,0,1.08,4.8,2.75,2.75,0,0,0,2.65-.1,2,2,0,0,0,.82-.91c.2-.52.12-1.36-.67-1.13a2.24,2.24,0,0,0-1.29,2.61,2.62,2.62,0,0,0,3.19,1.76c.4-.1.28.57,0,.68a3,3,0,0,1-3.72-1.38,3.29,3.29,0,0,1,.7-3.72,2.21,2.21,0,0,1,1.75-.75,1.25,1.25,0,0,1,1,1.17c.15,1.37-1.22,2.48-2.41,2.8-3.1.82-5.37-2.52-4.22-5.29a3.52,3.52,0,0,1,3.65-2.22,1.2,1.2,0,0,1,1,1.31,2.38,2.38,0,0,1-1.21,1.74,4.2,4.2,0,0,1-4.45,0,4.53,4.53,0,0,1-1.83-4.63c.06-.3.43-.3.43,0Z" style="fill:#e0e0e0"></path><path d="M438.3,260.64h0c.1-1.8-3.35-7-4.06-7s-4.35,4.6-4.46,6.52h0a2.15,2.15,0,0,0,1.14,1.81,6.65,6.65,0,0,0,6,.35,2.16,2.16,0,0,0,1.35-1.68Z" style="fill:#BA68C8"></path><path d="M461.05,222.71c-.79,13.79-12.59,30.57-26.93,33.06-14-4.79-23.78-22.12-23-35.91s10.4-26.15,26.48-25.23S461.83,208.93,461.05,222.71Z" style="fill:#BA68C8"></path><path d="M461.05,222.71c-.79,13.79-12.59,30.57-26.93,33.06-14-4.79-23.78-22.12-23-35.91s10.4-26.15,26.48-25.23S461.83,208.93,461.05,222.71Z" style="fill:#fff;opacity:0.5"></path><path d="M424.6,214.17a17.81,17.81,0,0,0,.85,2.35c1.11,2.16,2.16-1.69,2.42-2.39a17,17,0,0,1,.88-2.64c.36-.62,1.24-.31,1.81-.3s4.16.26,3.73-1.12c-.1-.34-.74-.81-1-1-.85-.66-2.38-1.21-2.86-2.23-.38-.8.23-1.76.48-2.51.16-.47.95-2.44-.17-2.33-.57.06-1.32.76-1.8,1-.83.47-1.64,1-2.45,1.51-1.34.83-2.92-.68-4.18-1.08-1-.3-1.56-.29-1.43.87a14.28,14.28,0,0,0,.49,2c.21.9.43,1.91-.48,2.5a8.3,8.3,0,0,0-2.18,2c-.58.78-.83,1.37.37,1.47,1.47.11,2.95-.25,4.42-.1C424.38,212.26,424.38,213.53,424.6,214.17Zm16.87-6.82a.44.44,0,0,0-.08-.11c.69,1.24-1,2.32-1.6,3.25-1,1.59,2,.75,2.53.64a14.19,14.19,0,0,1,2.08-.48c.56,0,.7.7.92,1.07s1.49,2.84,2.22,2a2.58,2.58,0,0,0,.27-1.09c.1-.82-.15-2,.33-2.76.37-.57,1.25-.55,1.84-.68.37-.09,2-.35,1.46-1-.27-.36-1-.56-1.4-.77-.64-.36-1.31-.68-2-1-1.08-.55-.72-2.19-1-3.18-.19-.77-.43-1.13-1.14-.59a12.05,12.05,0,0,0-1.13,1.13c-.51.5-1.09,1-1.84.69a6.33,6.33,0,0,0-2.15-.66c-.74-.07-1.24,0-.82.83S441,206.43,441.47,207.35Zm-.67,35.35c-.64-.36-1.31-.68-2-1-1.08-.54-.71-2.18-1-3.17-.19-.77-.42-1.13-1.13-.59a12.16,12.16,0,0,0-1.14,1.13c-.5.5-1.08,1-1.83.69a6.47,6.47,0,0,0-2.15-.66c-.75-.07-1.24,0-.82.83s1,1.83,1.42,2.75a.18.18,0,0,0-.08-.11c.69,1.24-1,2.32-1.59,3.25-1,1.59,2,.75,2.52.64a12.88,12.88,0,0,1,2.09-.48c.55,0,.7.69.92,1.07s1.49,2.83,2.22,2a2.62,2.62,0,0,0,.27-1.09c.1-.82-.16-2,.32-2.76.38-.57,1.25-.55,1.84-.69.37-.08,2-.35,1.46-1C441.93,243.11,441.17,242.9,440.8,242.7ZM428,227.4c-.19-.49.15-.79.39-1.21s1.17-1.28.44-1.64c-.51-.25-1.12,0-1.63.08-.34.06-.68,0-1,0a1.2,1.2,0,0,1-1.18-.4,13.77,13.77,0,0,0-1-1c-.51-.4-.85-.51-1,.2a11,11,0,0,0-.14,1.3,1.92,1.92,0,0,1-.32,1,3.94,3.94,0,0,1-1.22.75c-.37.15-1.31.33-1.43.78s.68.59.94.71a11.63,11.63,0,0,1,1.73.76.27.27,0,0,0-.12,0c1.08.43.54,2,.65,2.88.19,1.53,1.73-.72,2-1.12s.36-.84.73-.93a3.2,3.2,0,0,1,1.36.18c.35.08,2.38.66,2.31,0-.05-.49-.56-.92-.81-1.32A5.5,5.5,0,0,1,428,227.4Zm25.9,3.06a9.21,9.21,0,0,1-.86-1.72c-.21-.81.37-1.24.82-1.86s2.08-1.84,1-2.52c-.77-.48-1.79-.19-2.6-.15-.55,0-1.09-.13-1.63-.14a1.94,1.94,0,0,1-1.81-.84,18.91,18.91,0,0,0-1.42-1.79c-.75-.71-1.27-.95-1.66.15a15.65,15.65,0,0,0-.45,2,3.16,3.16,0,0,1-.67,1.58,6.12,6.12,0,0,1-2.08,1c-.61.19-2.12.31-2.39,1s1,1.06,1.38,1.29a20.14,20.14,0,0,1,2.6,1.49.25.25,0,0,0-.17-.06c1.63.87.53,3.26.55,4.68.05,2.47,2.87-.86,3.35-1.44.36-.42.73-1.27,1.32-1.36a5.37,5.37,0,0,1,2.13.51c.55.19,3.68,1.46,3.67.42C455,231.91,454.25,231.15,453.91,230.46Z" style="fill:#fff;opacity:0.30000000000000004"></path><path d="M434.12,255.77c8.89-1.54,16.79-8.58,21.71-17-.05,0-9.86,8.26-21.3,5.78s-22.84-14.33-23.4-21.62C411.81,236.13,421.15,251.33,434.12,255.77Z" style="fill:#BA68C8;opacity:0.4"></path><path d="M380.59,383.44a4.42,4.42,0,0,1-4.54,6.06c-1.19-.16-3.16-1.32-2.07-2.75a2.28,2.28,0,0,1,2-.59,3.22,3.22,0,0,1,2.07,1,4,4,0,0,1-2.14,6.6,3.22,3.22,0,0,1-3.38-1.55,1.48,1.48,0,0,1,1.88-2,3.13,3.13,0,0,1,1.94,3.71,3.23,3.23,0,0,1-3.6,2.23c-.37-.08,0-.69.26-.67a2.47,2.47,0,0,0,2.49-1.47,2.45,2.45,0,0,0-.62-2.55c-.32-.32-.94-.75-1.41-.56-.25.11-.26.09-.24.38a1.83,1.83,0,0,0,.07.32,1.71,1.71,0,0,0,.43.69,2.67,2.67,0,0,0,2.49.62c2.06-.5,2.47-3.22,1.4-4.78a2.58,2.58,0,0,0-2.75-1.16c-.78.22-.17,1,.24,1.32a2.91,2.91,0,0,0,1.64.48c2.63,0,3.85-2.68,3.4-5,0-.2.29-.63.42-.32Z" style="fill:#e0e0e0"></path><path d="M386.41,382.1h0c-.49-1.74-5.43-5.49-6.11-5.3s-2.62,5.77-2.09,7.61h0a2.12,2.12,0,0,0,1.67,1.35,6.64,6.64,0,0,0,5.8-1.64,2.09,2.09,0,0,0,.73-2Z" style="fill:#BA68C8"></path><path d="M395.54,338.82c3.76,13.28-1.92,33-14.66,40-14.8,0-29.7-13.15-33.45-26.44s1.3-28.11,16.79-32.49S391.79,325.53,395.54,338.82Z" style="fill:#BA68C8"></path><path d="M395.54,338.82c3.76,13.28-1.92,33-14.66,40-14.8,0-29.7-13.15-33.45-26.44s1.3-28.11,16.79-32.49S391.79,325.53,395.54,338.82Z" style="fill:#fff;opacity:0.30000000000000004"></path><path d="M382.34,334.18c1.4-.47,2.92-.43,4.33-.86,1.16-.35.78-.88.05-1.52a8.2,8.2,0,0,0-2.56-1.43c-1-.39-1-1.42-1-2.35a18.09,18.09,0,0,0,0-2.08c-.13-1.16-.69-1.06-1.58-.54-1.16.66-2.37,2.48-3.85,2-.9-.32-1.81-.66-2.72-.94-.53-.16-1.41-.69-2-.62-1.11.14.09,1.89.34,2.31.41.68,1.21,1.49,1,2.35-.25,1.1-1.63,2-2.32,2.8a3.4,3.4,0,0,0-.77,1.23c-.12,1.43,3.26.43,3.89.28s1.34-.63,1.83-.1a17.36,17.36,0,0,1,1.43,2.39c.4.62,2.26,4.15,2.87,1.81a18.7,18.7,0,0,0,.33-2.48C381.75,335.71,381.48,334.47,382.34,334.18Zm-17.81-3.8c.23-.9-.27-.87-1-.64a6.17,6.17,0,0,0-1.95,1.11c-.66.51-1.34.1-1.94-.28a14.82,14.82,0,0,0-1.36-.86c-.81-.37-1,0-1,.83,0,1,.69,2.54-.25,3.3-.57.47-1.15.93-1.7,1.42-.32.28-1,.64-1.2,1.05-.35.78,1.27.69,1.65.7.61,0,1.46-.2,1.95.27s.64,1.85.91,2.63a2.62,2.62,0,0,0,.5,1c.89.65,1.59-2,1.74-2.44s.12-1.13.66-1.24a12.75,12.75,0,0,1,2.14,0c.57,0,3.62.17,2.33-1.17-.76-.78-2.67-1.47-2.26-2.83a.21.21,0,0,0-.05.13C364,332.37,364.28,331.38,364.53,330.38Zm6.3,38.41c-.36.78,1.27.69,1.65.7.6,0,1.45-.2,1.94.27s.64,1.85.92,2.63a2.6,2.6,0,0,0,.49,1c.9.64,1.59-2,1.74-2.44s.12-1.14.67-1.25a13.79,13.79,0,0,1,2.13,0c.57,0,3.63.17,2.33-1.17-.76-.78-2.66-1.47-2.25-2.83a.16.16,0,0,0-.06.13c.25-1,.54-2,.8-3s-.27-.86-1-.63a6.52,6.52,0,0,0-2,1.1c-.66.52-1.34.11-1.94-.27a11.86,11.86,0,0,0-1.35-.86c-.81-.37-1,0-1,.83,0,1,.68,2.54-.26,3.3-.56.47-1.15.92-1.7,1.41C371.71,368,371,368.38,370.83,368.79Zm10-17.62c-.17.45-.57,1-.51,1.47.07.65,1.92-.36,2.25-.52a3.41,3.41,0,0,1,1.29-.47c.38,0,.66.52.92.76s2.33,2.2,2.18.66c-.08-.89-.94-2.3,0-2.95a.16.16,0,0,0-.1.05,11.17,11.17,0,0,1,1.52-1.11c.23-.17,1-.51.76-.9s-1.16-.38-1.55-.45a3.86,3.86,0,0,1-1.36-.47,1.93,1.93,0,0,1-.53-.93,10.63,10.63,0,0,0-.42-1.24c-.33-.65-.63-.47-1.05,0a11.6,11.6,0,0,0-.75,1.21,1.22,1.22,0,0,1-1.07.65c-.34,0-.66.18-1,.2-.52,0-1.17-.08-1.61.28-.63.5.49,1.17.79,1.5s.72.58.64,1.1A6.65,6.65,0,0,1,380.8,351.17ZM356,361.05c.22,1,3-.9,3.5-1.21a5.39,5.39,0,0,1,2-1c.6,0,1.14.71,1.58,1.05.6.46,4.08,3.1,3.59.68-.29-1.39-1.89-3.49-.48-4.69a.31.31,0,0,0-.15.1,19.44,19.44,0,0,1,2.22-2c.34-.31,1.45-1,1.06-1.55s-1.91-.42-2.55-.47a5.94,5.94,0,0,1-2.24-.5,3.13,3.13,0,0,1-1-1.4,18,18,0,0,0-.88-1.89c-.62-1-1.08-.64-1.66.21a19.49,19.49,0,0,0-1,2.06,2,2,0,0,1-1.58,1.21c-.54.13-1,.4-1.57.49-.8.13-1.86.07-2.51.7-.92.91,1,1.79,1.51,2.26s1.24.8,1.21,1.64a10.14,10.14,0,0,1-.47,1.86C356.4,359.37,355.85,360.27,356,361.05Z" style="fill:#fff;opacity:0.30000000000000004"></path><path d="M350.43,359.06s7.18,11.74,23.25,8.3c15.48-3.31,23.13-23.5,19.54-34.43a31.37,31.37,0,0,1,2.32,5.89c3.76,13.28-1.92,33-14.66,40-12.27,0-24.59-9-30.59-19.69Z" style="fill:#BA68C8;opacity:0.4"></path><path d="M390.3,295.92a4.4,4.4,0,0,1-1.59,7.37c-1.09.34-3.18.25-3.06-1.37s2.52-2,3.72-1.66c2.91.9,3.72,5.06,1.2,6.84a3.4,3.4,0,0,1-3.63.3,1.46,1.46,0,0,1,.44-2.74,3.11,3.11,0,0,1,3.54,2.49,3.24,3.24,0,0,1-2.33,3.52c-.39.1-.33-.56-.06-.68a2.37,2.37,0,0,0-.1-4.49c-.35-.11-1.57-.31-1.55.39,0,.42.68.81,1,.92a2.62,2.62,0,0,0,2.5-.57c1.49-1.31.82-3.76-.65-4.78a2.83,2.83,0,0,0-1.45-.54,2.41,2.41,0,0,0-1.8.62c-.52.65.67,1,1.11,1.07a3,3,0,0,0,1.53-.32c2.3-1.15,2.2-4.06.85-5.91-.14-.2.05-.7.31-.46Z" style="fill:#e0e0e0"></path><path d="M396.83,294.42h0c-.5-1.73-5.48-5.43-6.17-5.23s-2.55,5.79-2,7.63h0a2.14,2.14,0,0,0,1.69,1.33,6.62,6.62,0,0,0,5.78-1.7,2.11,2.11,0,0,0,.71-2Z" style="fill:#BA68C8"></path><path d="M396.83,294.42h0c-.5-1.73-5.48-5.43-6.17-5.23s-2.55,5.79-2,7.63h0a2.14,2.14,0,0,0,1.69,1.33,6.62,6.62,0,0,0,5.78-1.7,2.11,2.11,0,0,0,.71-2Z" style="opacity:0.30000000000000004"></path><path d="M405.52,251.05c3.89,13.25-1.59,33-14.26,40.19-14.79.19-29.83-12.85-33.72-26.1s1-28.12,16.46-32.66S401.62,237.8,405.52,251.05Z" style="fill:#BA68C8"></path><path d="M360.61,271.76s7.3,11.66,23.33,8.06c15.45-3.48,22.89-23.74,19.2-34.63a32.69,32.69,0,0,1,2.38,5.86c3.89,13.25-1.59,33-14.26,40.19-12.26.16-24.68-8.77-30.79-19.38Z" style="opacity:0.1"></path></g><path d="M407.24,422.69a13.1,13.1,0,0,1-4.58-.41c-1.3-.33-2.88-.84-3.58-2.1s.67-2.3,1.86-2.28a5.47,5.47,0,0,1,3.29,1.31,7.58,7.58,0,0,1,1.44,1.55,8.42,8.42,0,0,1,.56.9c.09.15.16.31.24.47.18.34.41.6.61.92s.54.26.49-.07a3.92,3.92,0,0,0-.33-1.25c-.17-.34-.37-.68-.57-1a9,9,0,0,0-1.52-1.8,6.66,6.66,0,0,0-4-1.79c-1.38-.11-3.14.6-3.23,2.19-.11,1.75,2,2.87,3.37,3.33a15.41,15.41,0,0,0,3,.68,7,7,0,0,0,3.1-.15c.25-.09,0-.52-.17-.5Z" style="fill:#455a64"></path><path d="M407.19,423.14a5.32,5.32,0,0,0,4.58.29,6.83,6.83,0,0,0,3.7-2.48,3,3,0,0,0,.67-2,1.61,1.61,0,0,0-1.34-1.24c-1.58-.38-3.09.42-4.36,1.27s-2.94,2.09-3.31,3.83c0,.12.17.44.3.27a12.2,12.2,0,0,1,2.49-2.73,8.85,8.85,0,0,1,3.49-1.94,2.08,2.08,0,0,1,1.74.21c.47.45-.06,1.35-.34,1.78a5.84,5.84,0,0,1-3.07,2.22,6.78,6.78,0,0,1-2,.45,6.9,6.9,0,0,1-2.42-.43c-.3-.09-.25.34-.09.46Z" style="fill:#455a64"></path><path d="M407,422.34c-.65-.27-1.34-.42-2-.73a7,7,0,0,1-1.57-1,5.69,5.69,0,0,1-1.92-3.12,7.13,7.13,0,0,1-.07-2,1.8,1.8,0,0,1,.25-.88,1.08,1.08,0,0,1,1-.34c1.42.14,2.47,1.47,3.09,2.64a11.67,11.67,0,0,1,1.12,5.14c0,.31.56.57.62.17a9.11,9.11,0,0,0-1-5.45,5.54,5.54,0,0,0-3.62-3.15,1.86,1.86,0,0,0-2,.64,4,4,0,0,0-.33,2.23,6.16,6.16,0,0,0,1.71,4,7.84,7.84,0,0,0,1.94,1.49,6.38,6.38,0,0,0,2.73.89c.37,0,.24-.43,0-.53Z" style="fill:#455a64"></path><path d="M407.37,423.2a7.24,7.24,0,0,0,4.29-2.45c1-1.15,2-2.94,1.46-4.51a2.47,2.47,0,0,0-3.76-1.18,5.73,5.73,0,0,0-2.12,3.48,15.18,15.18,0,0,0-.43,2.39,7.11,7.11,0,0,0,0,1,2.2,2.2,0,0,0,.3,1.06c.07.14.43.31.45,0a34.14,34.14,0,0,1,.34-3.48,7.67,7.67,0,0,1,1.24-3.16,2.63,2.63,0,0,1,1.8-1.13,1.44,1.44,0,0,1,1.46,1.07c.46,1.37-.48,3-1.39,4a7.78,7.78,0,0,1-1.85,1.47,14.13,14.13,0,0,1-2,.9c-.26.11,0,.54.21.51Z" style="fill:#455a64"></path><path d="M407.38,422.34a6,6,0,0,0,1.51,5.28c1.2,1.35,3.93,3.23,3.47,5.33-.25,1.1-.93,2-1.05,3.17a3.48,3.48,0,0,0,.7,2.61c.64.8,1.6,1.26,2.27,2a3.31,3.31,0,0,1,.18,4.3c-.14.18.2.56.39.39,1.74-1.47,1.2-3.91-.29-5.36-.82-.8-2-1.34-2.39-2.51-.41-1.35.27-2.59.75-3.8.84-2.15-.92-3.93-2.34-5.32a12.56,12.56,0,0,1-2.08-2.35,9,9,0,0,1-.93-3.72c0-.11-.16-.21-.19-.05Z" style="fill:#455a64"></path><path d="M407.34,422.3a5.89,5.89,0,0,1-2.18,2.94,5.17,5.17,0,0,0-2.13,2.49,4.49,4.49,0,0,0,.47,3,2.58,2.58,0,0,1,.14,2.15,2.71,2.71,0,0,1-1.32.93,2.17,2.17,0,0,0-1.54,2c0,1.28,1,2.29,1.06,3.54.07,1.94-2.65,2.37-2.9,4.26,0,.19.3.48.41.22.65-1.68,3.11-2.13,3.27-4.09.11-1.25-.82-2.23-1-3.41-.26-1.56,1.05-1.72,2.06-2.38,2.37-1.56-.59-4.15.14-6.11.45-1.2,1.52-1.79,2.43-2.58a4.43,4.43,0,0,0,1.39-2.86c0-.14-.19-.36-.27-.15Z" style="fill:#455a64"></path></g><g id="freepik--ballons--inject-16"><polygon points="92.32 443.86 77.07 435.05 77.07 428.87 76.75 428.68 76.75 424.19 92.32 433.18 92.32 443.86" style="fill:#BA68C8"></polygon><polygon points="92.32 443.86 77.07 435.05 77.07 428.87 76.75 428.68 76.75 424.19 92.32 433.18 92.32 443.86" style="opacity:0.1"></polygon><polygon points="92.32 437.67 86.48 434.3 77.07 428.87 77.07 429.51 92.32 438.31 92.32 437.67" style="opacity:0.15"></polygon><polygon points="92.32 443.86 107.48 435.11 107.48 428.92 107.88 428.68 107.88 424.19 92.32 433.18 92.32 443.86" style="fill:#BA68C8"></polygon><polygon points="107.48 428.92 92.32 437.67 92.32 438.31 107.48 429.57 107.48 428.92" style="opacity:0.1"></polygon><polygon points="107.88 424.19 92.32 415.2 76.75 424.19 92.32 433.18 107.88 424.19" style="fill:#BA68C8"></polygon><polygon points="107.88 424.19 92.32 415.2 76.75 424.19 92.32 433.18 107.88 424.19" style="fill:#fff;opacity:0.4"></polygon><path d="M100.1,439.74a.38.38,0,0,1-.38-.38V428.9L84.34,420a.39.39,0,1,1,.39-.67l15.56,9a.39.39,0,0,1,.19.33v10.69A.38.38,0,0,1,100.1,439.74Z" style="fill:#455a64"></path><path d="M84.4,439.74a.38.38,0,0,1-.38-.38V428.68a.39.39,0,0,1,.19-.34l15.57-9a.38.38,0,1,1,.38.66L84.79,428.9v10.46A.38.38,0,0,1,84.4,439.74Z" style="fill:#455a64"></path><g id="freepik--balloons--inject-16"><path d="M90.79,420.23c.13-4.29.65-8.56,1.2-12.82,1.13-8.8,2-17.52,1.44-26.4a114.57,114.57,0,0,0-1.5-13.08c-.75-4.28-1.76-8.51-2.36-12.82a70.46,70.46,0,0,1,1-25.07c2-8.8,6.29-17.47,6.27-26.65,0-.44.53-.74.57-.17a29.83,29.83,0,0,1,.06,5.51,49.21,49.21,0,0,1-1.09,6c-1,4-2.3,7.83-3.36,11.77A71.25,71.25,0,0,0,91,352.41c.47,4.31,1.41,8.53,2.23,12.78a119.35,119.35,0,0,1,1.7,12.49,125.15,125.15,0,0,1-.78,25.81c-.61,4.8-1.31,9.6-1.59,14.43A98.55,98.55,0,0,0,93,432.19c0,.28-.41.82-.58.36C90.85,428.61,90.66,424.43,90.79,420.23Z" style="fill:#e0e0e0"></path><path d="M65.39,260.8c8.19,19.95,2.1,42.15,2.07,62.88,0,10.88,2,21.63,4.77,32.13,2.55,9.8,6.56,19,10.31,28.34,1.27,3.15,2.49,6.32,3.51,9.57.89,2.8,1.88,5.46,2.6,8.32.66,2.64,1.13,5.33,1.56,8,.37,2.38.46,4.8.84,7.19.21,1.38.51,2.76.72,4.11-1.08.26-2-4.25-2.23-4.89a64.64,64.64,0,0,1-1.33-7.56c-.31-2-.66-4-1.16-6a138.14,138.14,0,0,0-5.37-16.1c-3.63-9.27-7.79-18.27-10.47-27.89-2.81-10-5-20.53-5.44-31-.4-11,1.06-21.91,1.7-32.85.66-11.35.33-22.68-3.17-33.57C64.1,261,65.08,260,65.39,260.8Z" style="fill:#e0e0e0"></path><path d="M94,409.49c1.73-3.93,5-7.28,7.66-10.61a82.14,82.14,0,0,0,8-11.45,43.42,43.42,0,0,0,2.63-5.71c.8-2.15,1.19-4.42,2-6.57.12-.35.58-.61.67-.08a12.35,12.35,0,0,1-.73,5.44,35.45,35.45,0,0,1-2.34,5.91,71.13,71.13,0,0,1-7.56,11.48c-1.47,1.89-3,3.74-4.44,5.62a36,36,0,0,0-4,5.63c-2,4-2.32,9.05-3,13.44-.07.43-.75.85-.78.18C91.89,418.48,92.24,413.49,94,409.49Z" style="fill:#e0e0e0"></path><path d="M63.86,260a4,4,0,0,1-3.22,4.22,2.81,2.81,0,0,1-2.61-.9c-.21-.3-.32-.7,0-1a1.19,1.19,0,0,1,.91-.1,2.21,2.21,0,0,1,1.47.85,3.26,3.26,0,0,1-1,4.63,2.65,2.65,0,0,1-2.56-.1,2,2,0,0,1-.78-.88c-.19-.49-.11-1.31.64-1.08a2.16,2.16,0,0,1,1.24,2.51,2.5,2.5,0,0,1-3.06,1.69c-.39-.1-.27.55,0,.65a2.9,2.9,0,0,0,3.58-1.33,3.16,3.16,0,0,0-.68-3.57,2.07,2.07,0,0,0-1.68-.72,1.2,1.2,0,0,0-.94,1.12c-.13,1.32,1.18,2.39,2.33,2.69,3,.79,5.15-2.42,4.06-5.09A3.41,3.41,0,0,0,58,261.54a1.17,1.17,0,0,0-.95,1.26,2.23,2.23,0,0,0,1.17,1.67,4,4,0,0,0,4.27,0A4.32,4.32,0,0,0,64.26,260c-.05-.29-.41-.29-.4,0Z" style="fill:#e0e0e0"></path><path d="M60.83,259.87h0c-.1-1.73,3.22-6.69,3.9-6.73s4.19,4.42,4.29,6.26h0a2,2,0,0,1-1.1,1.75,6.36,6.36,0,0,1-5.79.33,2.06,2.06,0,0,1-1.3-1.61Z" style="fill:#BA68C8"></path><path d="M39,223.39c.76,13.25,12.11,29.4,25.9,31.8,13.47-4.61,22.87-21.28,22.12-34.54s-10-25.16-25.48-24.27S38.19,210.13,39,223.39Z" style="fill:#BA68C8"></path><path d="M39,223.39c.76,13.25,12.11,29.4,25.9,31.8,13.47-4.61,22.87-21.28,22.12-34.54s-10-25.16-25.48-24.27S38.19,210.13,39,223.39Z" style="fill:#fff;opacity:0.5"></path><path d="M75.09,213.24c1.41-.15,2.83.2,4.25.09,1.15-.09.91-.66.35-1.41a7.68,7.68,0,0,0-2.1-1.88c-.87-.58-.66-1.55-.45-2.41a19.06,19.06,0,0,0,.47-1.95c.12-1.12-.43-1.13-1.38-.84-1.22.39-2.73,1.84-4,1-.78-.49-1.56-1-2.36-1.45-.46-.26-1.18-.94-1.73-1-1.07-.11-.31,1.78-.16,2.24.24.72.82,1.64.46,2.41-.46,1-1.93,1.51-2.75,2.15-.27.21-.89.66-1,1-.41,1.32,3,1.09,3.6,1.08s1.39-.32,1.74.29a16.43,16.43,0,0,1,.84,2.54c.25.66,1.27,4.36,2.33,2.29a17.92,17.92,0,0,0,.82-2.26C74.22,214.56,74.22,213.33,75.09,213.24ZM59.15,206c.41-.8-.07-.87-.78-.8a6.15,6.15,0,0,0-2.07.63c-.73.34-1.28-.18-1.77-.66a12.46,12.46,0,0,0-1.09-1.09c-.68-.52-.91-.17-1.09.57-.24,1,.11,2.53-.92,3-.64.32-1.28.63-1.89,1-.36.2-1.09.4-1.35.74-.49.66,1.05.91,1.41,1,.57.13,1.41.11,1.77.65.46.7.22,1.87.31,2.66a2.58,2.58,0,0,0,.26,1.05c.7.79,1.9-1.52,2.14-1.93s.35-1,.88-1a11.8,11.8,0,0,1,2,.46c.54.1,3.37.91,2.43-.62-.55-.89-2.19-1.94-1.53-3.12a.27.27,0,0,0-.08.1C58.23,207.73,58.71,206.85,59.15,206Zm-2.06,37.38c-.5.66,1,.92,1.4,1,.57.13,1.41.11,1.77.66s.22,1.87.31,2.66a2.57,2.57,0,0,0,.26,1c.7.79,1.9-1.52,2.14-1.93s.35-1,.88-1a13,13,0,0,1,2,.46c.53.1,3.37.91,2.43-.61-.56-.9-2.2-1.94-1.53-3.13a.15.15,0,0,0-.08.11c.44-.89.92-1.76,1.37-2.65s-.08-.87-.79-.8a6.15,6.15,0,0,0-2.07.63c-.72.35-1.28-.18-1.76-.66a12.45,12.45,0,0,0-1.1-1.08c-.68-.53-.91-.17-1.09.57-.23.95.12,2.52-.92,3-.63.31-1.28.62-1.89,1C58.07,242.81,57.34,243,57.09,243.35Zm13-14.48c-.25.4-.73.8-.79,1.28s1.89.06,2.23,0a3.27,3.27,0,0,1,1.31-.17c.35.1.51.62.7.9s1.73,2.55,1.92,1.08c.1-.86-.41-2.36.62-2.77a.15.15,0,0,0-.11,0,13.69,13.69,0,0,1,1.66-.73c.25-.11,1-.27.91-.68s-1-.6-1.37-.75a3.57,3.57,0,0,1-1.18-.72,1.9,1.9,0,0,1-.31-1,8.72,8.72,0,0,0-.14-1.24c-.16-.68-.49-.58-1-.2a11.22,11.22,0,0,0-1,1,1.21,1.21,0,0,1-1.14.39c-.33,0-.66,0-1,0-.49-.08-1.08-.32-1.57-.08-.7.34.21,1.2.43,1.57s.55.7.37,1.17A5.5,5.5,0,0,1,70.11,228.87ZM44.78,233c0,1,3-.22,3.53-.4a5.18,5.18,0,0,1,2-.49c.57.09.93.9,1.27,1.31.47.56,3.18,3.76,3.23,1.38,0-1.37-1-3.67.52-4.5a.25.25,0,0,0-.16.06,18.72,18.72,0,0,1,2.51-1.43c.38-.22,1.56-.61,1.32-1.24s-1.71-.79-2.3-1a5.92,5.92,0,0,1-2-.94,3,3,0,0,1-.64-1.52,16.17,16.17,0,0,0-.44-1.95c-.37-1.06-.87-.83-1.6-.15a19.08,19.08,0,0,0-1.35,1.73,1.92,1.92,0,0,1-1.74.81c-.53,0-1,.16-1.57.13-.79,0-1.77-.32-2.51.14-1,.66.55,1.87,1,2.43s1,1,.79,1.79a8.79,8.79,0,0,1-.83,1.65C45.49,231.51,44.79,232.24,44.78,233Z" style="fill:#fff;opacity:0.30000000000000004"></path><path d="M64.85,255.19C56.3,253.7,48.7,246.94,44,238.85c.05.05,9.49,7.94,20.48,5.56s22-13.78,22.51-20.79C86.31,236.29,77.33,250.92,64.85,255.19Z" style="fill:#BA68C8;opacity:0.4"></path><path d="M116.26,376.82a4.26,4.26,0,0,0,4.46,5.76c1.14-.18,3-1.32,1.94-2.68a2.2,2.2,0,0,0-2-.54,3.12,3.12,0,0,0-2,1,3.82,3.82,0,0,0,2.16,6.31,3.07,3.07,0,0,0,3.22-1.54,1.41,1.41,0,0,0-1.83-1.92,3,3,0,0,0-1.81,3.6,3.1,3.1,0,0,0,3.49,2.09c.35-.08,0-.67-.25-.65a2.36,2.36,0,0,1-2.42-1.37,2.34,2.34,0,0,1,.55-2.46c.31-.31.9-.74,1.35-.56.24.1.25.08.23.36a1.13,1.13,0,0,1-.06.31,1.64,1.64,0,0,1-.4.67,2.61,2.61,0,0,1-2.39.64c-2-.46-2.42-3.07-1.42-4.59a2.5,2.5,0,0,1,2.63-1.15c.76.2.18,1-.21,1.27a2.83,2.83,0,0,1-1.57.49c-2.53.06-3.74-2.52-3.34-4.73,0-.19-.29-.6-.41-.3Z" style="fill:#e0e0e0"></path><path d="M110.64,375.61h0c.44-1.67,5.14-5.35,5.8-5.18s2.6,5.5,2.13,7.29h0A2,2,0,0,1,117,379a6.39,6.39,0,0,1-5.61-1.49,2,2,0,0,1-.73-1.94Z" style="fill:#BA68C8"></path><path d="M101.2,334.13c-3.41,12.84,2.35,31.72,14.71,38.28,14.23-.18,28.36-13.1,31.77-25.94s-1.68-27-16.65-31S104.61,321.29,101.2,334.13Z" style="fill:#BA68C8"></path><path d="M101.2,334.13c-3.41,12.84,2.35,31.72,14.71,38.28,14.23-.18,28.36-13.1,31.77-25.94s-1.68-27-16.65-31S104.61,321.29,101.2,334.13Z" style="fill:#fff;opacity:0.30000000000000004"></path><path d="M114.49,331.58a17.39,17.39,0,0,0,.36,2.37c.62,2.25,2.36-1.17,2.73-1.78a17.71,17.71,0,0,1,1.34-2.32c.46-.52,1.23-.05,1.77.07s3.87,1,3.73-.33a3.14,3.14,0,0,0-.77-1.17c-.67-.79-2-1.6-2.26-2.66-.2-.83.56-1.61.94-2.27.24-.41,1.36-2.12.29-2.23-.55-.06-1.39.47-1.9.63-.87.28-1.74.62-2.6.94-1.42.53-2.61-1.2-3.73-1.82-.87-.48-1.41-.57-1.52.54a16.81,16.81,0,0,0,.07,2c0,.89,0,1.88-.93,2.27a8,8,0,0,0-2.43,1.42c-.7.62-1,1.14.07,1.46,1.36.39,2.82.33,4.18.76C114.66,329.74,114.41,330.93,114.49,331.58Zm17.22-3.17a.31.31,0,0,0-.06-.13c.41,1.3-1.41,2-2.13,2.76-1.22,1.31,1.72,1.08,2.26,1.09a14.07,14.07,0,0,1,2.05-.05c.53.1.53.79.66,1.19s.86,3,1.71,2.32a2.49,2.49,0,0,0,.46-1c.25-.76.25-2,.84-2.55s1.29-.27,1.87-.29c.37,0,1.93.06,1.58-.69-.18-.39-.86-.73-1.17-1-.53-.46-1.1-.89-1.66-1.33-.91-.72-.25-2.19-.29-3.17,0-.77-.18-1.16-1-.78a13.42,13.42,0,0,0-1.28.84c-.58.38-1.22.78-1.86.3a6,6,0,0,0-1.91-1c-.68-.22-1.16-.24-.93.62S131.45,327.45,131.71,328.41Zm-7.45,33.17c-.54-.46-1.1-.89-1.66-1.33-.91-.72-.25-2.19-.29-3.17,0-.76-.19-1.16-1-.78a13.57,13.57,0,0,0-1.29.84c-.57.38-1.22.78-1.86.3a5.84,5.84,0,0,0-1.9-1c-.68-.22-1.16-.24-.93.62s.55,1.91.81,2.87a.21.21,0,0,0-.05-.13c.41,1.3-1.41,2-2.13,2.76-1.23,1.31,1.71,1.09,2.26,1.09a14.07,14.07,0,0,1,2-.05c.53.1.53.79.66,1.19s.86,3,1.71,2.32a2.49,2.49,0,0,0,.46-1c.25-.76.25-2,.84-2.55s1.28-.27,1.87-.29c.36,0,1.93.06,1.58-.69C125.24,362.19,124.57,361.85,124.26,361.58Zm-9.11-16.88c-.08-.5.3-.72.6-1.06s1.36-1,.74-1.46c-.43-.33-1.06-.22-1.55-.24-.33,0-.64-.14-1-.18a1.17,1.17,0,0,1-1-.6,9.92,9.92,0,0,0-.74-1.16c-.41-.47-.7-.64-1,0a10.33,10.33,0,0,0-.39,1.19,2,2,0,0,1-.49.91,3.81,3.81,0,0,1-1.31.47c-.37.07-1.29.06-1.49.46s.53.69.75.85a12,12,0,0,1,1.48,1.05.14.14,0,0,0-.1-.05c.93.61.12,2,.06,2.84-.12,1.48,1.76-.35,2.09-.67s.51-.72.87-.74a3.11,3.11,0,0,1,1.25.43c.32.14,2.11,1.09,2.17.46s-.35-1-.51-1.41A5.63,5.63,0,0,1,115.15,344.7ZM139,352.58a9.21,9.21,0,0,1-.49-1.78c0-.81.6-1.1,1.14-1.6s2.31-1.33,1.41-2.19c-.62-.6-1.64-.52-2.42-.64-.52-.07-1-.33-1.51-.44a1.87,1.87,0,0,1-1.54-1.14,18.13,18.13,0,0,0-1-2c-.57-.81-1-1.13-1.59-.18a15.15,15.15,0,0,0-.82,1.84,3,3,0,0,1-.94,1.35,5.86,5.86,0,0,1-2.14.53c-.61.05-2.07-.12-2.45.48s.72,1.18,1,1.48a18.77,18.77,0,0,1,2.17,1.91.31.31,0,0,0-.15-.1c1.37,1.13-.14,3.18-.39,4.52-.43,2.34,2.87-.25,3.44-.71s.93-1.05,1.51-1a5,5,0,0,1,1.9.9c.49.28,3.19,2.08,3.38,1.1C139.7,354.15,139.16,353.3,139,352.58Z" style="fill:#fff;opacity:0.30000000000000004"></path><path d="M144.9,352.91s-6.73,11.4-22.24,8.34c-14.94-2.95-22.6-22.25-19.32-32.81a30.85,30.85,0,0,0-2.14,5.69c-3.41,12.84,2.35,31.72,14.71,38.28,11.8-.15,23.51-9.05,29.12-19.4Z" style="fill:#BA68C8;opacity:0.4"></path><path d="M101,303.62a4.23,4.23,0,0,0,1.91,7c1.06.27,3.06.07,2.86-1.48s-2.52-1.81-3.66-1.4a3.81,3.81,0,0,0-.8,6.63,3.28,3.28,0,0,0,3.51.1,1.4,1.4,0,0,0-.56-2.61,3,3,0,0,0-3.27,2.58,3.1,3.1,0,0,0,2.41,3.26c.38.08.29-.56,0-.66a2.28,2.28,0,0,1-.13-4.31c.33-.13,1.5-.39,1.51.29,0,.41-.61.81-.94.94a2.54,2.54,0,0,1-2.43-.42c-1.49-1.18-1-3.57.38-4.63a3,3,0,0,1,1.36-.6,2.39,2.39,0,0,1,1.77.51c.53.59-.59,1-1,1.09a2.91,2.91,0,0,1-1.49-.23c-2.27-1-2.32-3.79-1.13-5.64.13-.2-.08-.67-.31-.42Z" style="fill:#e0e0e0"></path><path d="M94.63,302.52h0c.4-1.69,5-5.5,5.66-5.35s2.75,5.43,2.33,7.23h0a2,2,0,0,1-1.55,1.36,6.36,6.36,0,0,1-5.65-1.33,2.06,2.06,0,0,1-.79-1.91Z" style="fill:#BA68C8"></path><path d="M94.63,302.52h0c.4-1.69,5-5.5,5.66-5.35s2.75,5.43,2.33,7.23h0a2,2,0,0,1-1.55,1.36,6.36,6.36,0,0,1-5.65-1.33,2.06,2.06,0,0,1-.79-1.91Z" style="opacity:0.30000000000000004"></path><path d="M84.05,261.31c-3,12.92,3.23,31.64,15.77,37.86,14.22-.58,28-13.88,31-26.81s-2.43-27-17.5-30.52S87.1,248.38,84.05,261.31Z" style="fill:#BA68C8"></path><path d="M128.25,278.88s-6.41,11.58-22,8.94c-15-2.53-23.21-21.61-20.23-32.26a30.26,30.26,0,0,0-2,5.75c-3,12.92,3.23,31.64,15.77,37.86,11.78-.48,23.25-9.7,28.57-20.2Z" style="opacity:0.1"></path></g><path d="M92.21,423.56a12.79,12.79,0,0,0,4.4-.39c1.25-.33,2.77-.81,3.44-2s-.64-2.21-1.79-2.19a5.21,5.21,0,0,0-3.16,1.25,7.86,7.86,0,0,0-1.39,1.49,9.61,9.61,0,0,0-.53.87l-.24.45a8.92,8.92,0,0,1-.58.88c-.11.19-.52.25-.47-.06a3.62,3.62,0,0,1,.32-1.2,10.44,10.44,0,0,1,.55-1A8.22,8.22,0,0,1,94.21,420,6.35,6.35,0,0,1,98,418.22c1.32-.1,3,.58,3.1,2.1.11,1.69-1.91,2.76-3.24,3.21a14.29,14.29,0,0,1-2.88.65,6.66,6.66,0,0,1-3-.14c-.24-.09-.05-.5.17-.48Z" style="fill:#455a64"></path><path d="M92.25,424a5.12,5.12,0,0,1-4.41.28,6.6,6.6,0,0,1-3.55-2.38,2.87,2.87,0,0,1-.64-1.89,1.53,1.53,0,0,1,1.28-1.19,5.47,5.47,0,0,1,4.2,1.22c1.35.89,2.83,2,3.18,3.68,0,.11-.16.43-.28.26a12,12,0,0,0-2.4-2.62,8.59,8.59,0,0,0-3.36-1.87c-.48-.1-1.28-.19-1.67.2s.05,1.31.32,1.72a5.76,5.76,0,0,0,3,2.13,6.45,6.45,0,0,0,2,.43,6.61,6.61,0,0,0,2.33-.41c.29-.09.24.33.08.44Z" style="fill:#455a64"></path><path d="M92.4,423.22c.63-.26,1.3-.4,1.92-.7a6.38,6.38,0,0,0,1.5-1,5.57,5.57,0,0,0,1.85-3,6.65,6.65,0,0,0,.06-1.89,1.69,1.69,0,0,0-.23-.85,1.06,1.06,0,0,0-1-.32c-1.37.13-2.38,1.41-3,2.54A11.22,11.22,0,0,0,92.45,423c0,.3-.54.55-.6.16a8.75,8.75,0,0,1,1-5.24,5.32,5.32,0,0,1,3.48-3,1.79,1.79,0,0,1,1.94.61,3.89,3.89,0,0,1,.31,2.14,5.88,5.88,0,0,1-1.64,3.81A7.16,7.16,0,0,1,95,422.87a6.1,6.1,0,0,1-2.63.86c-.36,0-.23-.41,0-.51Z" style="fill:#455a64"></path><path d="M92.08,424.05A7,7,0,0,1,88,421.69c-1-1.1-1.92-2.82-1.4-4.33a2.38,2.38,0,0,1,3.62-1.14,5.53,5.53,0,0,1,2,3.35,16.29,16.29,0,0,1,.41,2.3,6.55,6.55,0,0,1,0,1,2.07,2.07,0,0,1-.29,1c-.07.13-.41.3-.44,0a31.62,31.62,0,0,0-.32-3.35,7.25,7.25,0,0,0-1.2-3,2.51,2.51,0,0,0-1.72-1.09,1.38,1.38,0,0,0-1.41,1c-.44,1.32.47,2.86,1.33,3.81a7.94,7.94,0,0,0,1.79,1.42,14.15,14.15,0,0,0,1.9.86c.25.11,0,.52-.2.49Z" style="fill:#455a64"></path><path d="M92.07,423.22a5.74,5.74,0,0,1-1.45,5.08c-1.16,1.3-3.78,3.11-3.34,5.13a26.61,26.61,0,0,1,1,3.05,3.34,3.34,0,0,1-.68,2.5c-.62.77-1.54,1.22-2.19,2a3.18,3.18,0,0,0-.17,4.13c.14.18-.19.54-.37.39-1.68-1.42-1.16-3.77.28-5.16.79-.77,2-1.29,2.3-2.42.39-1.29-.26-2.49-.73-3.66-.81-2.06.88-3.77,2.25-5.11a12.71,12.71,0,0,0,2-2.26,8.68,8.68,0,0,0,.89-3.58c0-.1.15-.2.18,0Z" style="fill:#455a64"></path><path d="M92.11,423.18a5.58,5.58,0,0,0,2.1,2.83,5,5,0,0,1,2,2.4,4.27,4.27,0,0,1-.45,2.92,1.86,1.86,0,0,0,1.14,3,2.11,2.11,0,0,1,1.48,1.94c0,1.23-1,2.2-1,3.41-.07,1.85,2.55,2.27,2.79,4.09,0,.19-.29.46-.39.21-.63-1.62-3-2.05-3.15-3.93-.11-1.2.79-2.15,1-3.28.25-1.5-1-1.66-2-2.29-2.28-1.5.56-4-.14-5.88-.43-1.16-1.46-1.72-2.34-2.48a4.26,4.26,0,0,1-1.33-2.75c0-.14.19-.34.26-.15Z" style="fill:#455a64"></path></g></g><g id="freepik--Character--inject-16"><g id="freepik--Chartacter--inject-16"><g id="freepik--Bottom--inject-16"><g id="freepik--Leg--inject-16"><path d="M207.88,390.19c.62-9.83.49-37.2.76-45.36.35-10.63,6.35-15.42,16.21-16.05a10.48,10.48,0,0,1,10.45,6.64c3.26,8.34,2,19.33,2,19.33-1.82,14.49-7.66,27.14-8.17,41.26,0,0-10.11,8.32-14.91,13.58a105.46,105.46,0,0,1-13.26,12.67c-3.68,2.8-11.88,4.51-13.39,2.1,5.83-6.46,12.64-13.59,16.94-20.52C206.53,400.53,207.45,397,207.88,390.19Z" style="fill:#ffa8a7"></path><path d="M235.08,366l-.37,1.41s-3.66,4-15.59,1.58c-9.66-2-10.67-5.45-10.67-5.45l0-1.34c-.88.06-1.51.69-1.41,3.75.15,4.77.3,25.82.3,25.82s-1.25,7.71,10.92,9.36,11-8.11,11-8.11l.38-2.05s4.29-17.57,5.62-21.19S235.08,366,235.08,366Z" style="fill:#BA68C8"></path><path d="M207.15,370.94c0-.89,0-1.72,0-2.46,3.48,4.09,17.63,8.4,27.24,4.28-.19.67-.4,1.39-.61,2.17a24.82,24.82,0,0,1-6.41,1.29C219.39,376.78,211.14,374.06,207.15,370.94Z" style="fill:#37474f"></path><path d="M207.23,377.39c0-.78,0-1.54,0-2.3,4.29,4.07,18.55,7.49,25.43,4-.19.73-.38,1.47-.57,2.19a18.32,18.32,0,0,1-5,1C220,382.79,211.58,380.43,207.23,377.39Z" style="fill:#37474f"></path><path d="M207.3,384.35c0-.72,0-1.47,0-2.25,4.17,3.73,17.05,6.81,23.62,3.83-.2.77-.38,1.49-.53,2.13a18.45,18.45,0,0,1-4.41.82C219.41,389.34,211.5,387.18,207.3,384.35Z" style="fill:#37474f"></path><path d="M164.3,422c-.36,0-.87,1.85.92,3.66,2.06,2.08,11.37,6.22,23.88,5,9.82-1,13.51-5.36,17.18-8s8.93-3.11,12.91-3.45a15,15,0,0,0,8.56-3.46c1.24-1,1-3.79,1-3.79Z" style="fill:#263238"></path><path d="M229.66,390.91s1.06.33.74,2.11-1.58,3-1.1,6.76a44.16,44.16,0,0,1-.54,12.15c-.68,2.51-5.27,4.73-9.29,5.11-6.84.66-10.13.77-14.28,3.68-4.3,3-8.22,5.68-12.47,6.95-10,3-25.82-.81-28.22-5.22-2.56-5.62-.7-12.29,7.46-15.05,5.22-1.75,9.6-1,13.32-2.09,2-.58,3.52-1.92,5.85-3.15,6.32-3.31,11.83-4.79,13.27-11.76.61-2.94,9.93-.38,11.37.45,2.72,1.57,3.35,2.32,3.59,4a6.44,6.44,0,0,1-.8,3c-.14.33-.3,1,.44.61a8.38,8.38,0,0,0,1.84-1.84c1-1.28,1.32-2.23,2.73-2.41s4.43,0,5.54-1.3Z" style="fill:#455a64"></path><path d="M195,410.63a.58.58,0,0,0,.4-.11.61.61,0,0,0,.15-.84,14.57,14.57,0,0,0-10.84-5.29.61.61,0,0,0,0,1.21c4.23-.12,8.58,3,9.81,4.77A.59.59,0,0,0,195,410.63Z" style="fill:#f0f0f0"></path><path d="M201.49,407.51a.63.63,0,0,0,.4-.1.62.62,0,0,0,.15-.85c-1.56-2.24-6.31-5.44-10.84-5.29a.6.6,0,0,0-.59.62.59.59,0,0,0,.62.59c4.24-.12,8.58,3,9.81,4.77A.59.59,0,0,0,201.49,407.51Z" style="fill:#f0f0f0"></path><path d="M207.51,404.64a.63.63,0,0,0,.39-.11.61.61,0,0,0,.15-.85c-1.55-2.24-6.32-5.43-10.84-5.29a.61.61,0,0,0-.59.63.6.6,0,0,0,.63.58c4.22-.11,8.57,3,9.81,4.78A.62.62,0,0,0,207.51,404.64Z" style="fill:#f0f0f0"></path><path d="M213.3,401.51a.59.59,0,0,0,.38-.1.61.61,0,0,0,.17-.84c-2.14-3.18-7.34-5.58-11.87-5.44a.61.61,0,0,0,0,1.21c4.08-.12,8.94,2.08,10.83,4.9A.64.64,0,0,0,213.3,401.51Z" style="fill:#f0f0f0"></path></g><g id="freepik--leg--inject-16"><path d="M290.14,386c.29-9.84,3-37.09,3.45-45.23.64-10.62-4.89-15.94-14.64-17.49a10.5,10.5,0,0,0-11,5.65c-4,8-3.76,19.06-3.76,19.06.47,14.59,5.11,27.73,4.3,41.84,0,0,9.3,9.22,13.59,14.91a105.68,105.68,0,0,0,12,13.84c3.4,3.13,11.4,5.6,13.13,3.33-5.2-7-11.32-14.7-15-22C290.52,396.43,289.94,392.8,290.14,386Z" style="fill:#ffa8a7"></path><path d="M265.3,359.39l.24,1.44s3.27,4.36,15.37,3c9.81-1.09,11.13-4.44,11.13-4.44l.11-1.33c.87.14,1.44.83,1.06,3.86-.6,4.74-2.7,25.68-2.7,25.68s.52,7.8-11.74,8.31-10.19-9.1-10.19-9.1l-.19-2.07s-2.64-17.9-3.63-21.62S265.3,359.39,265.3,359.39Z" style="fill:#BA68C8"></path><path d="M292.65,366.92c.09-.89.18-1.72.27-2.46-3.84,3.76-18.34,6.74-27.52,1.74.13.68.26,1.43.4,2.21a24.55,24.55,0,0,0,6.27,1.88C279.92,371.59,288.39,369.65,292.65,366.92Z" style="fill:#37474f"></path><path d="M292,373.33c.08-.77.16-1.54.24-2.28-4.65,3.64-19.18,5.73-25.7,1.61.13.75.25,1.5.36,2.24a18.54,18.54,0,0,0,4.93,1.47C278.71,377.52,287.36,376,292,373.33Z" style="fill:#37474f"></path><path d="M291.26,380.26c.07-.72.15-1.47.23-2.24-4.51,3.32-17.61,5.19-23.88,1.61.12.79.24,1.53.33,2.18a18.74,18.74,0,0,0,4.32,1.22C278.73,384.1,286.81,382.68,291.26,380.26Z" style="fill:#37474f"></path><path d="M330.58,421.71c.35,0,.69,1.93-1.26,3.56-2.25,1.89-11.9,5.14-24.24,2.73-9.69-1.9-13-6.6-16.36-9.54s-8.61-3.93-12.54-4.63a15,15,0,0,1-8.2-4.24c-1.14-1.14-.65-3.87-.65-3.87Z" style="fill:#263238"></path><path d="M268.38,384.71s-1.08.23-.93,2,1.3,3.14.46,6.84a44.08,44.08,0,0,0-.58,12.14c.44,2.56,4.8,5.2,8.77,5.95,6.75,1.29,10,1.71,13.88,5s7.65,6.42,11.77,8.08c9.69,3.92,25.78,1.59,28.58-2.57,3.08-5.37,1.84-12.18-6-15.68-5-2.24-9.46-1.88-13.07-3.32-1.91-.77-3.32-2.24-5.53-3.68-6-3.89-11.33-5.87-12.12-12.94-.33-3-9.86-1.31-11.36-.62-2.85,1.32-3.55,2-4,3.65a6.49,6.49,0,0,0,.52,3.07c.11.35.21,1.05-.49.57a7.83,7.83,0,0,1-1.66-2c-.9-1.38-1.11-2.35-2.5-2.66s-4.41-.43-5.39-1.81Z" style="fill:#455a64"></path><path d="M301.11,407.57a.62.62,0,0,1-.46-1c1.76-2.09,6.79-4.82,11.29-4.26a.6.6,0,1,1-.15,1.2c-4.2-.51-8.81,2.18-10.21,3.84A.63.63,0,0,1,301.11,407.57Z" style="fill:#f0f0f0"></path><path d="M294.89,403.85a.59.59,0,0,1-.39-.14.61.61,0,0,1-.07-.85c1.76-2.09,6.79-4.83,11.29-4.26a.6.6,0,0,1-.15,1.2c-4.2-.51-8.82,2.18-10.21,3.84A.59.59,0,0,1,294.89,403.85Z" style="fill:#f0f0f0"></path><path d="M289.16,400.43a.6.6,0,0,1-.45-1c1.76-2.09,6.8-4.82,11.29-4.26a.6.6,0,0,1,.52.68.61.61,0,0,1-.67.53c-4.2-.51-8.82,2.18-10.21,3.84A.63.63,0,0,1,289.16,400.43Z" style="fill:#f0f0f0"></path><path d="M283.69,396.78a.59.59,0,0,1-.37-.14.6.6,0,0,1-.09-.85c2.42-3,7.82-4.87,12.32-4.31a.61.61,0,0,1,.53.68.6.6,0,0,1-.68.52c-4-.49-9.08,1.25-11.23,3.88A.61.61,0,0,1,283.69,396.78Z" style="fill:#f0f0f0"></path></g><path d="M211,219.14c-6.14,19.48-7.17,30.93-6,58.06.21,5,1.07,19.35.11,30.62C203,332.35,198.85,359.46,207,365c6.37,4.09,18.57,6.25,29.09,3.79,6.95-3.38,10.89-20.95,13.09-35.49,2.11-13.89,5.21-32.27,5.21-32.27a142.18,142.18,0,0,1,3.22,16.7c1.8,13.84-3.1,32.77,8.16,44.4,7.79,4.24,20.72,2.16,28.34-1.88,5.36-5.15,8.93-25.55,8.13-46.71C300,255.32,290,219.29,290,219.29Z" style="fill:#37474f"></path><path d="M254.35,301.07c4.51-28.14,5.67-44.29,5.67-44.29a32.73,32.73,0,0,0,20.46-11.89c-3.43,10.43-16.86,17.26-16.86,17.26l-7.47,47Z" style="fill:#263238"></path></g><g id="freepik--Top--inject-16"><path d="M376.67,138.06c-.51-.87-.63-.88-.21-1.81,1-2.31.17-4.72-1.62-6.5a3.65,3.65,0,0,0-.14-3.53,12.75,12.75,0,0,0-1.37-1.68c.67-1.27,1.39-3-.22-3.56-1.44-.48-2.67.18-3.86,1a22.38,22.38,0,0,0-5.06,5.27c-2,2.8-3.66,5.27-4.65,7a28.46,28.46,0,0,1-3,4.32c-.64.75-2.38,3.52-3.38,2.11-1.29-1.82.36-5.12.66-7a7,7,0,0,0-.74-4.15c-.74-1.45-3-2.84-3.76-.48a21.24,21.24,0,0,1-2.22,5.36,31.66,31.66,0,0,0-3.57,8.33c-.95,3.26-.15,8.69-.83,11.1s-2.88,4.52-7,9.2-25.47,23.49-25.47,23.49l28.21,1.6a146.45,146.45,0,0,1,11.25-13.86,77.52,77.52,0,0,1,5.63-5.52c4.9-4.77,11-8.62,15.07-14.19,3.08-4.16,4-6.95,5.75-11.81C376.74,141.08,377.59,139.64,376.67,138.06Z" style="fill:#f0f0f0"></path><path d="M338.7,188.47l-29.54-1.68.81-.72c.22-.19,21.38-18.84,25.43-23.45l2-2.25c2.81-3.15,4.36-4.88,4.9-6.77a20.67,20.67,0,0,0,.3-4.61,25.5,25.5,0,0,1,.53-6.5,32,32,0,0,1,3.62-8.43,21.25,21.25,0,0,0,2.18-5.26c.39-1.28,1.19-1.54,1.63-1.58a3.43,3.43,0,0,1,2.95,2,7.52,7.52,0,0,1,.79,4.42,16.16,16.16,0,0,1-.48,1.87c-.51,1.73-1.08,3.7-.27,4.84.15.21.26.21.31.21.56,0,1.52-1.25,2-1.85l.39-.5a28.1,28.1,0,0,0,2.92-4.26c.87-1.5,2.36-3.72,4.66-7a22.74,22.74,0,0,1,5.19-5.39c1.18-.77,2.59-1.55,4.24-1a1.76,1.76,0,0,1,1.15,1,3.8,3.8,0,0,1-.53,2.91,10.24,10.24,0,0,1,1.22,1.55,4,4,0,0,1,.26,3.63c1.95,2.06,2.51,4.58,1.52,6.8-.28.61-.28.61,0,1.14l.15.25c.9,1.53.35,2.92-.19,4.27-.09.23-.18.46-.26.69l-.31.86c-1.55,4.27-2.57,7.1-5.5,11.06-2.65,3.6-6.15,6.51-9.52,9.33-1.89,1.57-3.84,3.2-5.6,4.91-.57.56-1.12,1.06-1.67,1.56a45.2,45.2,0,0,0-3.94,3.94l-.89,1a135.73,135.73,0,0,0-10.32,12.81ZM311.38,186l26.89,1.53a137.91,137.91,0,0,1,10.23-12.69l.89-1a46.47,46.47,0,0,1,4-4c.54-.5,1.08-1,1.65-1.54,1.78-1.73,3.74-3.37,5.64-5,3.34-2.78,6.79-5.66,9.38-9.17,2.85-3.86,3.8-6.48,5.38-10.83l.31-.87.27-.71c.5-1.25.93-2.33.25-3.49l-.14-.24a1.61,1.61,0,0,1-.09-2c.89-2,.33-4.16-1.53-6l-.2-.21.1-.27a3.22,3.22,0,0,0-.12-3.17,11.51,11.51,0,0,0-1.29-1.57l-.22-.23.14-.29c.23-.43.92-1.74.64-2.44a.87.87,0,0,0-.6-.49c-1.28-.42-2.42.21-3.47.9a22.22,22.22,0,0,0-4.95,5.16c-2.29,3.25-3.76,5.45-4.62,6.93a29.19,29.19,0,0,1-3,4.4c-.1.11-.22.27-.36.46-.89,1.15-1.77,2.19-2.69,2.19h0a1.24,1.24,0,0,1-1-.58c-1.06-1.5-.39-3.78.14-5.61a15.78,15.78,0,0,0,.45-1.76,6.55,6.55,0,0,0-.69-3.87,2.62,2.62,0,0,0-2.08-1.51c-.39,0-.68.36-.86.95a21.9,21.9,0,0,1-2.27,5.47,30.54,30.54,0,0,0-3.52,8.21,24.65,24.65,0,0,0-.5,6.25,20.66,20.66,0,0,1-.33,4.85c-.59,2.09-2.19,3.88-5.09,7.12l-2,2.26C332.39,167.4,315.38,182.49,311.38,186Z" style="fill:#e0e0e0"></path><path d="M355.13,144c1.58,4.3,0,10.46-3.83,14.86C355.64,157.68,360.33,149.31,355.13,144Z" style="fill:#e0e0e0"></path><path d="M286.07,176.49l-6.82-40.74c11.64,1.06,13.82,3.33,21.14,12.43,4.09,5.08,12.25,14.29,20.83,24.31L341,156.2s10.56,7.8,13.39,15.43c0,0-18.1,22.28-27.13,28.76-4.88,3.5-7.78,6.61-15.78-.19S288.31,179.35,286.07,176.49Z" style="fill:#BA68C8"></path><path d="M286.07,176.49l-6.82-40.74c11.64,1.06,13.82,3.33,21.14,12.43,4.09,5.08,12.25,14.29,20.83,24.31L341,156.2s10.56,7.8,13.39,15.43c0,0-18.1,22.28-27.13,28.76-4.88,3.5-7.78,6.61-15.78-.19S288.31,179.35,286.07,176.49Z" style="fill:#fff;opacity:0.30000000000000004"></path><path d="M321.22,172.49c-3.91,3.58-7.39,9.83-7.43,14.38-.69-7.06,1.45-12.06,5.81-16.28Z" style="fill:#BA68C8"></path><path d="M212.32,138.66c-4,5-4.11,11.08-2.1,22.28,2.31,12.84,3.65,20.36,1.49,34.12-.94,6-5.46,23.05,1.51,31.89,9.39,9.88,37.28,13.19,57.08,8.14,9-2.3,16.33-6.32,19.5-12.24,8-18.74,1.38-52.38-1.74-64.48-3-11.54-5.05-17.09-8.81-22.62l-21.95-4s-15.65-2.7-21.94-1.72S222,134.61,212.32,138.66Z" style="fill:#BA68C8"></path><path d="M212.32,138.66c-4,5-4.11,11.08-2.1,22.28,2.31,12.84,3.65,20.36,1.49,34.12-.94,6-5.46,23.05,1.51,31.89,9.39,9.88,37.28,13.19,57.08,8.14,9-2.3,16.33-6.32,19.5-12.24,8-18.74,1.38-52.38-1.74-64.48-3-11.54-5.05-17.09-8.81-22.62l-21.95-4s-15.65-2.7-21.94-1.72S222,134.61,212.32,138.66Z" style="fill:#BA68C8"></path><path d="M210.22,160.94c2.31,12.84,3.65,20.36,1.49,34.12-.94,6-5.46,23.05,1.51,31.89,8.12,8.54,30.08,12.17,48.68,9.73,2.35-.36,4.64-.79,6.83-1.29,1.5-21.15-1.31-83.6-21.36-105-4.37-.47-9.15-.79-12-.34-6.29,1-13.34,4.57-23,8.62C208.32,143.7,208.21,149.74,210.22,160.94Z" style="fill:#fff;opacity:0.30000000000000004"></path><path d="M256.59,168.3a6.28,6.28,0,1,0,6-6.52A6.29,6.29,0,0,0,256.59,168.3Z" style="fill:#455a64"></path><path d="M269.1,168.86c-.27.83-1.33,3-5.1,3.07-4.65.06-7.38-4.51-4.68-9.05a6.28,6.28,0,1,0,9.78,6Z" style="opacity:0.2"></path><path d="M262.54,163.32a1.42,1.42,0,0,0-.8,1.54,1.79,1.79,0,0,0,.95.84,8.08,8.08,0,0,1,3.23,2.29c.27.38.5.85.95,1a1,1,0,0,0,1-.35c.48-.6.2-2.32-.09-3a2,2,0,0,0-.28-.47C266.35,163.6,264.41,162.22,262.54,163.32Z" style="fill:#fff;opacity:0.2"></path><path d="M260.46,192.73a6.28,6.28,0,1,0,6-6.52A6.28,6.28,0,0,0,260.46,192.73Z" style="fill:#455a64"></path><path d="M273,193.29c-.26.83-1.32,3-5.09,3.07-4.65.06-7.38-4.51-4.68-9.05a6.28,6.28,0,1,0,9.77,6Z" style="opacity:0.2"></path><path d="M266.41,187.75a1.42,1.42,0,0,0-.8,1.54,1.81,1.81,0,0,0,.94.84,8,8,0,0,1,3.24,2.29c.26.38.5.85.95,1a1,1,0,0,0,1-.35c.48-.6.2-2.32-.09-3a2.87,2.87,0,0,0-.28-.48C270.22,188,268.28,186.65,266.41,187.75Z" style="fill:#fff;opacity:0.2"></path><circle cx="268.25" cy="219.14" r="6.28" transform="translate(-50.44 354.84) rotate(-62.31)" style="fill:#455a64"></circle><path d="M274.48,219.94c-.27.83-1.33,3-5.1,3.07-4.64.06-7.38-4.51-4.68-9a6.28,6.28,0,1,0,9.78,6Z" style="opacity:0.2"></path><path d="M267.92,214.41a1.4,1.4,0,0,0-.79,1.53,1.7,1.7,0,0,0,.94.84,8.18,8.18,0,0,1,3.23,2.29c.27.38.51.85,1,1a1,1,0,0,0,1-.36c.48-.6.2-2.32-.08-3a2.83,2.83,0,0,0-.29-.47C271.73,214.68,269.8,213.3,267.92,214.41Z" style="fill:#fff;opacity:0.2"></path><g id="freepik--Head--inject-16"><path d="M254.62,89.91c-3.12-2.21-2.82-5.16-2-6.34,1.53-2.34,3.71-2.36,4.38-2a4.43,4.43,0,0,1,.33-4.59,5.69,5.69,0,0,1,10,.8c.45-2.07,3.11-3,4.11-3a4.63,4.63,0,0,1,3.89,1.87,4.44,4.44,0,0,1,.7,3.72,4.73,4.73,0,0,1,6.62-1.25A5.6,5.6,0,0,1,284.17,86a5.42,5.42,0,0,1,4.86.42A4.87,4.87,0,0,1,291,92a6.05,6.05,0,0,1-5,3.33c1.16,2.49-.29,4.84-2.67,6.22-2.17,1.25-4.51,1-6.85.32-.89-.27-.78-.14-1.1.67a6.63,6.63,0,0,1-.86,1.51,7,7,0,0,1-2.71,2.17,8.28,8.28,0,0,1-6,.17,5,5,0,0,1-2.08-1.26,6.54,6.54,0,0,1-1.31-2.79,5.49,5.49,0,0,1-6.2-1.44C251,94.73,254.58,89.88,254.62,89.91Z" style="fill:#BA68C8"></path><path d="M291,92a4.91,4.91,0,0,0-1.27-5,4.43,4.43,0,0,1-2.27,4.44c-1.93,1-4.3.83-6.41.26a4,4,0,0,1,.87,4.77,4.83,4.83,0,0,1-4.36,2.42,6.23,6.23,0,0,1-4.53-2.33,10.51,10.51,0,0,1-16.14-1c.23,1.38-.92,2.51-2.26,3.11a13.74,13.74,0,0,0,1.58,2.26,5.49,5.49,0,0,0,6.2,1.44,6.54,6.54,0,0,0,1.31,2.79,5,5,0,0,0,2.08,1.26,8.28,8.28,0,0,0,6-.17,7,7,0,0,0,2.71-2.17,6.63,6.63,0,0,0,.86-1.51c.32-.81.21-.94,1.1-.67,2.34.72,4.68.93,6.85-.32,2.38-1.38,3.83-3.73,2.67-6.22A6.05,6.05,0,0,0,291,92Z" style="opacity:0.2"></path><path d="M232.77,116.68c-.6-3-8.34-8.94-9.22-19.45a21.54,21.54,0,0,1,16.14-23c10.64-2.82,23.66-.07,28.56,11.42Z" style="fill:#ffa8a7"></path><path d="M237.27,88.91c1.7-3.43,0-5.88-1.21-6.55-2.46-1.33-4.39-.32-4.79.35a4.4,4.4,0,0,0-2.47-3.88,5.7,5.7,0,0,0-8.44,5.46c-1.37-1.61-4.14-1.14-5-.66a4.61,4.61,0,0,0-2.53,3.49A4.45,4.45,0,0,0,214,90.73a4.73,4.73,0,0,0-6.42,2,5.59,5.59,0,0,0,1.88,6.72,5.46,5.46,0,0,0-4.08,2.68,4.88,4.88,0,0,0,.89,5.82,6,6,0,0,0,5.95.57c.16,2.75,2.55,4.12,5.3,4.21,2.51.07,4.46-1.23,6.18-3,.66-.67.62-.5,1.29.06a6.29,6.29,0,0,0,1.47.93,7.15,7.15,0,0,0,3.41.62,8.23,8.23,0,0,0,5.4-2.72,4.89,4.89,0,0,0,1.24-2.1,6.59,6.59,0,0,0-.18-3.08,5.49,5.49,0,0,0,4.78-4.21C242.74,91.43,237.29,88.86,237.27,88.91Z" style="fill:#BA68C8"></path><path d="M232,109.37c-1.57-2.25-4.94-3.11-5.73-5.74a4.73,4.73,0,0,1-2.86,2.76,3.25,3.25,0,0,1-3.62-1.23c-.12,1.33-1.56,2.19-2.9,2.25a5,5,0,0,1-5-4.39,5.77,5.77,0,0,1-3,2.42,3.63,3.63,0,0,1-3.62-.74,2.78,2.78,0,0,1-.55-.8,4.75,4.75,0,0,0,1.44,4.09,6,6,0,0,0,5.95.57c.16,2.75,2.55,4.12,5.3,4.21,2.51.07,4.46-1.23,6.18-3,.66-.67.62-.5,1.29.06a6.29,6.29,0,0,0,1.47.93,7.15,7.15,0,0,0,3.41.62,7.55,7.55,0,0,0,2.8-.78A4.45,4.45,0,0,0,232,109.37Z" style="opacity:0.2"></path><path d="M226.18,116.34c3.83,2.57,6.59.34,6.59.34L234,134.63s1.18,2.77,7.07,5.74c8.35,4.2,21-2.22,15.52-8.16l-.28-4.58s3-.36,5.53-.86a11.86,11.86,0,0,0,9-8.84c1.73-7.35.86-20-3.41-32.8-5.69-4-20.56-2.83-30.15,3.78a14.25,14.25,0,0,1-3.14,12.52c-.42,1.49.48,3.81-.36,5s-1.79-1.86-3-3.31a5.13,5.13,0,0,0-8.88,1.54C220,109.23,223.31,114.4,226.18,116.34Z" style="fill:#ffa8a7"></path><path d="M256.32,127.63c-4.55-.39-12.8-2.44-15.83-5a13.72,13.72,0,0,1-4-6.72c.16,4.22,1.22,7.29,4.69,9.91,5.93,4.47,15.3,4.68,15.3,4.68Z" style="fill:#f28f8f"></path><path d="M241.46,88.11c3.1-3.27,7.23-5.27,14-6,3.89-.41,10.33.72,12.82,3.59,4.1,12.56,4.29,25,2.59,32.23-1.08,4.57-3.76,8-7.87,9a32.79,32.79,0,0,1-6.65.72c-12.15-.12-16.5-4.94-18.72-11.69S236.52,93.35,241.46,88.11Z" style="fill:#f0f0f0"></path><path d="M248.27,94.69,244.1,97.5a2.64,2.64,0,0,1,.71-3.58A2.45,2.45,0,0,1,248.27,94.69Z" style="fill:#263238"></path><path d="M267.79,94.34l-4.92-1.23a2.43,2.43,0,0,1,3-1.89A2.67,2.67,0,0,1,267.79,94.34Z" style="fill:#263238"></path><path d="M245.91,100.35a2.05,2.05,0,0,0,4.09-.3,2.05,2.05,0,0,0-4.09.3Z" style="fill:#263238"></path><path d="M263.48,97.91a2.05,2.05,0,1,0,1.9-2.2A2.06,2.06,0,0,0,263.48,97.91Z" style="fill:#263238"></path><path d="M255.08,95.36l2.17,13,6.79-2.8C262.08,100.88,259.49,97,255.08,95.36Z" style="fill:#e0e0e0"></path><path d="M254.25,106.15a6.28,6.28,0,1,0,6-6.53A6.27,6.27,0,0,0,254.25,106.15Z" style="fill:#BA68C8"></path><path d="M266.75,106.71c-.26.83-1.33,3-5.09,3.07-4.65.06-7.38-4.51-4.69-9a6.28,6.28,0,1,0,9.78,6Z" style="opacity:0.2"></path><path d="M260.2,101.17a1.42,1.42,0,0,0-.8,1.54,1.77,1.77,0,0,0,.94.84,8.11,8.11,0,0,1,3.24,2.29c.26.38.5.85.95,1a1,1,0,0,0,1-.35c.48-.6.2-2.33-.09-3a2.87,2.87,0,0,0-.28-.48C264,101.45,262.07,100.07,260.2,101.17Z" style="fill:#fff;opacity:0.2"></path><path d="M258.48,113.66a12.47,12.47,0,0,1-8.92-2.44c-2.25-1.89-4.33-3.47-6.59-1.52s-1.37,6.46,3.58,10.34c4.39,3.45,12,3.06,14.7,2,3.2-1.25,5.64-4,4.86-6.39C265,112.39,261.39,113.47,258.48,113.66Z" style="fill:#BA68C8"></path><path d="M258.48,113.66a12.47,12.47,0,0,1-8.92-2.44c-2.25-1.89-4.33-3.47-6.59-1.52s-1.37,6.46,3.58,10.34c4.39,3.45,12,3.06,14.7,2,3.2-1.25,5.64-4,4.86-6.39C265,112.39,261.39,113.47,258.48,113.66Z" style="fill:#fff;opacity:0.1"></path><path d="M256.38,117.87a11.86,11.86,0,0,1-4.53-.55,10.83,10.83,0,0,1-2-1,8.54,8.54,0,0,1-1.67-1.35,2,2,0,0,0,.63-1.9s0,0,0,0a4.61,4.61,0,0,0-.43,1,1.74,1.74,0,0,1-.66.76,5.41,5.41,0,0,1-2.14.67s-.06.12,0,.13a3.93,3.93,0,0,0,2.39-.39,9.07,9.07,0,0,0,1.9,1.63,10.43,10.43,0,0,0,2.14,1,9.06,9.06,0,0,0,2.19.44,7.71,7.71,0,0,0,1.27,0,3,3,0,0,0,.94-.19S256.41,117.87,256.38,117.87Z" style="fill:#263238"></path><g id="freepik--Hat--inject-16"><path d="M264.44,73.91a1.76,1.76,0,0,0-.09-.2l-.12-.25a3.48,3.48,0,0,0-.2-.31c-1.11-1.67-3.42-3-6.9-3.76-9-1.94-22.46.84-30,6.21-2.86,2-4.45,4.17-4.83,6.12a3.82,3.82,0,0,0-.08.58c0,.07,0,.14,0,.2v.15a8.87,8.87,0,0,0,0,1,7.89,7.89,0,0,0,.63,2.25c0,.13.12.26.18.38l0,.09a1.37,1.37,0,0,0,.15.25c1.07,1.72,3.4,3.11,7,3.88,9,1.94,22.46-.85,30-6.22,2.88-2,4.47-4.19,4.83-6.15a2.72,2.72,0,0,0,.09-.6V77.3a8.6,8.6,0,0,0,0-1.13A7.47,7.47,0,0,0,264.44,73.91Z" style="fill:#263238"></path><ellipse cx="243.51" cy="79.11" rx="21.65" ry="9.56" transform="translate(-10.99 51.08) rotate(-11.71)" style="fill:#37474f"></ellipse><path d="M260,67.17c-1.73-8.33-11.3-13.39-21.38-11.3S221.72,66.4,223.45,74.73a26.5,26.5,0,0,0,3.6,8.52h0c.64,1.27,2.5,2.24,5.53,2.69,7,1,17.46-1.16,23.44-4.86,2.61-1.61,3.92-3.25,4-4.67h0A26.47,26.47,0,0,0,260,67.17Z" style="fill:#455a64"></path><path d="M256.08,77c-6.43,4-17.7,6.31-25.18,5.22-3.23-.48-5.22-1.52-5.93-2.86l2.08,3.9c.64,1.27,2.5,2.24,5.53,2.69,7,1,17.46-1.16,23.44-4.86,2.62-1.62,3.94-3.27,4-4.69l.36-4.44C260.31,73.48,258.89,75.25,256.08,77Z" style="fill:#BA68C8"></path><path d="M232.51,58.09c-6.56,3.56-10.41,10.13-9.06,16.64a26.5,26.5,0,0,0,3.6,8.52h0c.64,1.27,2.5,2.24,5.53,2.69a31.83,31.83,0,0,0,7.52,0C230.29,80.49,224.11,66.07,232.51,58.09Z" style="opacity:0.2"></path></g></g><path d="M233.63,129.19l-15.85-1.11s-3.12,4.6,1.2,8.19Z" style="fill:#37474f"></path><path d="M256.39,128.68l13.4-1.05s3.83,4.23.64,7.34Z" style="fill:#37474f"></path><path d="M233.63,129.19l-17.07,7.07s-1.59,6.5,4.48,7.51,7.17,3.74,9.19,8.15,5.88,5.7,9.87,3.54,7-1.82,10.08.48,8.11,2.92,9.38-2,4.91-3.11,7.92-4.17c2.52-.89,3.66-3.51,2.31-6.64-1.08-2.5-.21-3.29,1.88-5.14,1.69-1.5,1.29-4.21,1.29-4.21l-16.57-5.07s.37,4.22-7.53,5.07C235.56,135.19,233.63,129.19,233.63,129.19Z" style="fill:#455a64"></path><path d="M270.89,138.67c-.62-.22-1.3-.34-1.82-.49-1.75-.51-3.42-1.09-5.17-1.54s-3.22-1.21-4.9-1.48a6.84,6.84,0,0,0-.91-.09c-.19.37.24.74.6.94,1.73,1,3.46,1.86,5.18,2.83a43.93,43.93,0,0,0,5.5,2.83C269.21,140.47,269.77,139.7,270.89,138.67Z" style="fill:#37474f"></path><path d="M254.76,138a7.54,7.54,0,0,0,.94,3.46l2.77,6.16c.64,1.42,1.29,2.85,2,4.25a4.42,4.42,0,0,1,3.68-1.63A132.64,132.64,0,0,0,254.76,138Z" style="fill:#37474f"></path><path d="M229.82,151.07a54.56,54.56,0,0,0,2.79-7c.62-1.82,1.25-3.65,1.88-5.47.15-.43.17-1.1-.28-1.17a.83.83,0,0,0-.61.26c-3.58,3-6.25,3.56-9.83,6.57C227.45,144.93,228.26,148.12,229.82,151.07Z" style="fill:#37474f"></path><path d="M248.52,154.9l-1.41-12.73a14.58,14.58,0,0,0-.66-3.42c-1,.12-1.32,1.29-1.47,2.24l-1.91,12.1a11.65,11.65,0,0,1-.28,1.25A7.5,7.5,0,0,1,248.52,154.9Z" style="fill:#37474f"></path><path d="M114.9,151.6c.41-.91.53-.94,0-1.82-1.27-2.19-.66-4.67.94-6.63a3.65,3.65,0,0,1-.23-3.53,12,12,0,0,1,1.18-1.81c-.8-1.2-1.69-2.87-.15-3.57,1.38-.63,2.68-.1,3.93.54a22.28,22.28,0,0,1,5.59,4.72c2.26,2.58,4.19,4.86,5.35,6.44a29,29,0,0,0,3.4,4c.72.67,2.73,3.25,3.58,1.74,1.09-2-.89-5.06-1.4-6.93a7.14,7.14,0,0,1,.31-4.21c.58-1.52,2.73-3.15,3.69-.87a20.88,20.88,0,0,0,2.77,5.1,31.48,31.48,0,0,1,4.42,7.9c1.28,3.15,1.06,8.63,2,11s3.33,4.19,7.92,8.42S186,192.75,186,192.75l-27.89,4.53a146.26,146.26,0,0,0-12.63-12.6,76.08,76.08,0,0,0-6.18-4.9c-5.38-4.24-11.81-7.43-16.47-12.53-3.5-3.83-4.69-6.51-7-11.15C115.14,154.62,114.14,153.27,114.9,151.6Z" style="fill:#f0f0f0"></path><path d="M157.92,197.76l-.16-.18a135.6,135.6,0,0,0-11.62-11.66l-1-.91a46,46,0,0,0-4.33-3.51c-.6-.44-1.19-.87-1.82-1.37-1.93-1.52-4-2.93-6.08-4.3-3.66-2.45-7.43-5-10.45-8.28-3.33-3.64-4.64-6.34-6.62-10.43l-.4-.82c-.11-.22-.22-.44-.34-.66-.67-1.28-1.36-2.61-.63-4.22l.12-.27c.26-.56.26-.56-.08-1.14-1.22-2.1-.92-4.67.79-6.92a4,4,0,0,1-.12-3.63,9.58,9.58,0,0,1,1.06-1.67,3.82,3.82,0,0,1-.83-2.84,1.76,1.76,0,0,1,1-1.12c1.58-.72,3.06-.09,4.32.56a22.71,22.71,0,0,1,5.72,4.81c2.63,3,4.34,5.07,5.37,6.48a29.92,29.92,0,0,0,3.34,3.93c.12.11.27.27.45.46.52.55,1.61,1.69,2.17,1.62,0,0,.15,0,.27-.23.69-1.23-.08-3.12-.77-4.78a17.57,17.57,0,0,1-.67-1.82,7.55,7.55,0,0,1,.32-4.48,3.48,3.48,0,0,1,2.72-2.28,1.93,1.93,0,0,1,1.8,1.4,20.88,20.88,0,0,0,2.71,5,32,32,0,0,1,4.49,8,25.8,25.8,0,0,1,1.2,6.4,21.23,21.23,0,0,0,.78,4.56c.73,1.82,2.45,3.38,5.58,6.22.68.61,1.42,1.28,2.23,2,4.52,4.16,27.51,20.5,27.74,20.66l.89.63Zm-40-63.35a2.65,2.65,0,0,0-1.11.24.84.84,0,0,0-.54.55c-.21.72.61,2,.88,2.36l.18.27-.19.25a11.17,11.17,0,0,0-1.12,1.7,3.17,3.17,0,0,0,.21,3.16l.13.26-.18.23c-1.66,2-2,4.26-.9,6.13a1.6,1.6,0,0,1,.12,2l-.12.25c-.55,1.22,0,2.25.62,3.45l.34.68.4.82c2,4.16,3.24,6.67,6.48,10.21,2.94,3.22,6.68,5.73,10.29,8.15,2,1.38,4.17,2.8,6.13,4.34.62.49,1.2.92,1.79,1.35a44.43,44.43,0,0,1,4.41,3.57l1,.91a137.22,137.22,0,0,1,11.51,11.54l26.58-4.32c-4.35-3.1-22.84-16.32-26.94-20.1-.81-.75-1.55-1.42-2.23-2-3.23-2.92-5-4.53-5.81-6.55A20.81,20.81,0,0,1,149,159a24.91,24.91,0,0,0-1.14-6.17,30.79,30.79,0,0,0-4.37-7.79,21.88,21.88,0,0,1-2.82-5.2c-.25-.58-.6-.83-1-.86a2.64,2.64,0,0,0-1.91,1.71,6.62,6.62,0,0,0-.28,3.93,15.71,15.71,0,0,0,.63,1.71c.72,1.76,1.62,3.95.72,5.56a1.23,1.23,0,0,1-.94.68c-.93.12-1.92-.83-2.93-1.9-.16-.17-.3-.32-.41-.42a29.47,29.47,0,0,1-3.45-4c-1-1.39-2.71-3.42-5.32-6.42a22,22,0,0,0-5.46-4.61A5.54,5.54,0,0,0,117.94,134.41Z" style="fill:#e0e0e0"></path><path d="M136.93,155.23c-1.12,4.45,1.13,10.4,5.36,14.38C137.86,168.91,132.32,161.09,136.93,155.23Z" style="fill:#e0e0e0"></path><path d="M209,180.36c9.76-14.09,9.64-34.88,3.31-41.7-12.38,3-14.17,5.22-20.51,15-3.54,5.48-10.69,15.49-18.17,26.35L152.3,165.92s-9.69,8.85-11.71,16.74c0,0,20.32,20.27,30,25.76,5.22,3,8.43,5.77,15.67-1.84S207.08,183.44,209,180.36Z" style="fill:#BA68C8"></path><path d="M209,180.36c9.76-14.09,9.64-34.88,3.31-41.7-12.38,3-14.17,5.22-20.51,15-3.54,5.48-10.69,15.49-18.17,26.35L152.3,165.92s-9.69,8.85-11.71,16.74c0,0,20.32,20.27,30,25.76,5.22,3,8.43,5.77,15.67-1.84S207.08,183.44,209,180.36Z" style="opacity:0.2"></path><path d="M173.64,180.05c4.26,3.15,8.37,9,8.89,13.52-.05-7.09-2.7-11.84-7.48-15.58Z" style="opacity:0.2"></path><path d="M205.59,31.06a1.78,1.78,0,0,0-2.41-.75,75.46,75.46,0,0,0-11.5,7.38c-2.17-1.45-5.49-1.71-9.15.1-12.28,6.1-39.76,31.2-52.17,62.94C117,135,117.14,172,121,191.6s18.15,14,16.65.52c-1.68-15.05-2-30.38.22-45.29,3.62-23.84,9.36-44.18,22.79-64,7.51-11.09,19.1-22.57,30-33.08,3.42-3.28,4.16-6.71,3.2-9.26a71.12,71.12,0,0,1,10.91-7A1.8,1.8,0,0,0,205.59,31.06Z" style="fill:#BA68C8"></path><path d="M138.74,117.21c-9.18,29.82-7.62,58.81-7.29,69s-6.61,9.22-10.91,2.8c.15.89.31,1.76.48,2.6,3.87,19.56,18.15,14,16.65.52-1.68-15.05-2-30.38.22-45.29,3.62-23.84,9.36-44.18,22.79-64,6.19-9.13,15.14-18.53,24.22-27.43C173.67,62.55,147.93,87.38,138.74,117.21Z" style="opacity:0.1"></path><path d="M130.36,203.57l-.71,6.49a8,8,0,0,0,6.19-1.19L132.75,203A2.13,2.13,0,0,0,130.36,203.57Z" style="fill:#BA68C8"></path><path d="M130.36,203.57l-.71,6.49a8,8,0,0,0,6.19-1.19L132.75,203A2.13,2.13,0,0,0,130.36,203.57Z" style="opacity:0.2"></path><g style="opacity:0.17"><path d="M124.83,186a1.34,1.34,0,0,1-1.33-1.15c-2.79-19.17-1.57-52.55,11.1-83.51,10.28-25.12,28.51-45.51,41-55.34a1.34,1.34,0,1,1,1.65,2.1c-12.23,9.63-30.09,29.62-40.18,54.26-12.46,30.46-13.67,63.27-10.92,82.1A1.34,1.34,0,0,1,125,186Z" style="fill:#fff"></path></g><g style="opacity:0.17"><path d="M183.76,43.48a1.34,1.34,0,0,1-.62-2.53c.42-.22.82-.42,1.21-.59a1.34,1.34,0,0,1,1.11,2.44c-.35.15-.71.33-1.08.52A1.27,1.27,0,0,1,183.76,43.48Z" style="fill:#fff"></path></g><path d="M138.5,151.68c1.09-2-.89-5.06-1.4-6.93a7.14,7.14,0,0,1,.31-4.21c.58-1.52,2.73-3.15,3.69-.87a20.88,20.88,0,0,0,2.77,5.1,31.48,31.48,0,0,1,4.42,7.9" style="fill:#f0f0f0"></path><path d="M147.88,152.84a30.79,30.79,0,0,0-4.37-7.79,21.88,21.88,0,0,1-2.82-5.2c-.25-.58-.53-.84-1-.86a2.64,2.64,0,0,0-1.91,1.71,6.62,6.62,0,0,0-.28,3.93,15.71,15.71,0,0,0,.63,1.71c.72,1.76,1.62,3.95.72,5.56l-.78-.44c.69-1.23-.08-3.12-.77-4.78a17.57,17.57,0,0,1-.67-1.82,7.55,7.55,0,0,1,.32-4.48,3.48,3.48,0,0,1,2.72-2.28,1.93,1.93,0,0,1,1.8,1.4,20.88,20.88,0,0,0,2.71,5,32,32,0,0,1,4.49,8Z" style="fill:#e0e0e0"></path></g></g></g><g id="freepik--Balls--inject-16"><g id="freepik--balls--inject-16"><path d="M323.69,108.94a8.57,8.57,0,1,0,8.47-8.68A8.58,8.58,0,0,0,323.69,108.94Z" style="fill:#BA68C8"></path><path d="M323.69,108.94a8.57,8.57,0,1,0,8.47-8.68A8.58,8.58,0,0,0,323.69,108.94Z" style="opacity:0.2"></path><path d="M340.72,110.16c-.39,1.12-1.92,4.06-7.06,4-6.34-.08-9.9-6.41-6.05-12.51a8.57,8.57,0,1,0,13.11,8.52Z" style="opacity:0.2"></path><path d="M332,102.37a1.92,1.92,0,0,0-1.15,2.06,2.35,2.35,0,0,0,1.26,1.18c1.6.87,3.33,1.72,4.32,3.25.35.53.66,1.18,1.27,1.36a1.34,1.34,0,0,0,1.33-.45c.68-.8.35-3.16,0-4.07a3.77,3.77,0,0,0-.37-.65C337.17,102.89,334.58,100.93,332,102.37Z" style="fill:#fff;opacity:0.2"></path><path d="M377.14,90.61a8.57,8.57,0,1,0,8.47-8.68A8.58,8.58,0,0,0,377.14,90.61Z" style="fill:#BA68C8"></path><path d="M394.17,91.83c-.39,1.12-1.92,4.06-7.06,4-6.34-.09-9.89-6.42-6.05-12.52a8.57,8.57,0,1,0,13.11,8.52Z" style="opacity:0.2"></path><path d="M385.44,84a1.92,1.92,0,0,0-1.15,2.06,2.39,2.39,0,0,0,1.26,1.18c1.6.87,3.33,1.72,4.33,3.25.34.53.65,1.18,1.26,1.36a1.34,1.34,0,0,0,1.33-.45c.68-.8.36-3.16,0-4.07a3.21,3.21,0,0,0-.37-.65C390.62,84.56,388,82.6,385.44,84Z" style="fill:#fff;opacity:0.2"></path><path d="M336.74,56.94a8.57,8.57,0,1,0,8.47-8.68A8.57,8.57,0,0,0,336.74,56.94Z" style="fill:#BA68C8"></path><path d="M336.74,56.94a8.57,8.57,0,1,0,8.47-8.68A8.57,8.57,0,0,0,336.74,56.94Z" style="fill:#fff;opacity:0.5"></path><path d="M353.77,58.16c-.39,1.12-1.92,4.06-7.06,4-6.34-.08-9.9-6.41-6-12.51a8.57,8.57,0,1,0,13.11,8.52Z" style="fill:#BA68C8;opacity:0.5"></path><path d="M345,50.37a1.92,1.92,0,0,0-1.15,2.06,2.35,2.35,0,0,0,1.26,1.18c1.6.87,3.33,1.72,4.32,3.25.35.53.66,1.18,1.27,1.36a1.34,1.34,0,0,0,1.33-.45c.68-.8.35-3.16,0-4.07a3.77,3.77,0,0,0-.37-.65C350.22,50.89,347.63,48.93,345,50.37Z" style="fill:#fff;opacity:0.2"></path><path d="M334.07,60.71a17.65,17.65,0,0,0-4.63,4.49,27,27,0,0,0-3.13,5.38,36.25,36.25,0,0,0-2.83,13.32,34.61,34.61,0,0,0,.68,8.91c0,.17.32.36.33.07.09-2.42-.06-4.86,0-7.29a47,47,0,0,1,.63-7.2,30.51,30.51,0,0,1,4.49-11.63,31.8,31.8,0,0,1,4.92-5.51C334.75,61,334.33,60.55,334.07,60.71Z" style="fill:#f0f0f0"></path><path d="M335.47,86.1a36.55,36.55,0,0,1-1.59-5.32,24.56,24.56,0,0,1-.51-5.41,23.63,23.63,0,0,1,.77-5.42,26.19,26.19,0,0,1,.86-2.59c.28-.69.92-1.62.7-2.36,0-.09-.14-.2-.24-.16a2.26,2.26,0,0,0-.93,1.19c-.2.4-.39.81-.56,1.23a22,22,0,0,0-.87,2.64,22.55,22.55,0,0,0-.75,5.48,19.29,19.29,0,0,0,2.75,10.83C335.24,86.42,335.59,86.41,335.47,86.1Z" style="fill:#f0f0f0"></path><path d="M377.83,102.08a27.61,27.61,0,0,1-17.3,11.24,41,41,0,0,1-6,.68c-.12,0-.12.27,0,.29a22.42,22.42,0,0,0,11.21-1.51,28.05,28.05,0,0,0,9.09-5.65,26.12,26.12,0,0,0,3.9-4.56C379,102.1,378.12,101.65,377.83,102.08Z" style="fill:#f0f0f0"></path></g></g><g id="freepik--Confetti--inject-16"><g id="freepik--confetti--inject-16"><path d="M371.74,30.62s-.26,4.81,3.31,7.48L378.79,37s-2.5-1.21-3.74-6.35Z" style="fill:#455a64"></path><path d="M314.24,244.52s-3.24,3.56-2.16,7.89l3.62,1.49s-1.18-2.51,1.1-7.29Z" style="fill:#455a64"></path><path d="M467.75,66.12s-2.18,4.29-6.61,4.82l-2.67-2.86s2.76.21,6.42-3.62Z" style="fill:#455a64"></path><path d="M428.38,165.66s-.85,4.74-4.95,6.51l-3.38-2a12.39,12.39,0,0,0,5.68-5.17Z" style="fill:#37474f"></path><path d="M40.28,171.4s-.86,4.74-5,6.52l-3.38-2a12.4,12.4,0,0,0,5.67-5.17Z" style="fill:#37474f"></path><path d="M135.93,39.51s.27,4.81-3.3,7.49l-3.75-1.14s2.5-1.2,3.75-6.35Z" style="fill:#455a64"></path><path d="M106.79,124.1s.26,4.81-3.31,7.49l-3.74-1.14s2.5-1.2,3.74-6.35Z" style="fill:#455a64"></path><path d="M31.47,37s2.18,4.29,6.61,4.82L40.76,39s-2.77.21-6.43-3.62Z" style="fill:#455a64"></path><path d="M25.58,280.82s2.18,4.3,6.61,4.83l2.67-2.86s-2.76.21-6.42-3.62Z" style="fill:#455a64"></path><path d="M288.6,43.45c-3.31,2.09-3.46,10.43,1.45,10.55,2.73.07,5.9-3.35,3.87-5.87a.41.41,0,0,0-.49-.08c-2.84,1.33-4.42,4.22-1.82,6.72a6.85,6.85,0,0,0,8.52.49c.15-.11-.1-.33-.23-.26-2.45,1.19-5.44,1.43-7.6-.49a3.67,3.67,0,0,1-1.36-2.68,2.9,2.9,0,0,1,.53-1.58c.27-.4,1.4-1.61,1.92-1.54,1,.15.25,2.33-.08,2.85a4.11,4.11,0,0,1-3,1.89c-2,.11-3-1.82-3.27-3.49a6.39,6.39,0,0,1,1.85-6.22c.16-.13-.17-.38-.31-.29Z" style="fill:#BA68C8"></path><path d="M423.37,35.27c3.05-.9,7.25-.65,9.81,1.41,2,1.59,3.1,5,.18,6.22-1.14.47-4.9.47-5.36-1.09-.31-1.08.85-1.73,1.78-1.87,2.74-.42,5.3,2.46,5.24,5-.09,3.87-4.6,5.15-7.78,5.18-.21,0-.16.39,0,.41,5.42.52,11.47-4.5,6.65-9.53-1.3-1.36-3.33-2.32-5.2-1.57-1.05.42-1.89,1.37-1.36,2.52.84,1.84,4.25,2.16,5.9,1.69a3.3,3.3,0,0,0,2.29-4.26c-1.34-4.89-8.19-5.91-12.25-4.44-.12,0-.07.33.07.29Z" style="fill:#BA68C8"></path><path d="M432.17,101.62c-3.65,1.08-7,7.49-3.65,10.4,2.88,2.48,8.69,1.92,7.73-2.81A.31.31,0,0,0,436,109c-3.81-.91-5.07,3.54-4.27,6.49C433,120,437.63,120,441,117.59c.11-.08.06-.39-.1-.31-2.73,1.36-6.54,2.57-8.21-.91-.89-1.86-.91-4.94.8-6.37a2.37,2.37,0,0,1,1.64-.65c1.27.15,1.05,1.53.34,2.4-1.15,1.39-3.44,1.25-5,.71-5.25-1.86-1.64-8.65,1.77-10.56.1-.06.08-.32-.06-.28Z" style="fill:#BA68C8"></path><path d="M319.76,293.43c-3.65,1.08-7,7.49-3.65,10.41,2.88,2.48,8.69,1.91,7.73-2.81a.33.33,0,0,0-.2-.24c-3.82-.91-5.08,3.55-4.28,6.49,1.24,4.57,5.86,4.52,9.19,2.13.11-.08.06-.4-.1-.32-2.73,1.36-6.54,2.57-8.21-.91-.89-1.86-.91-4.93.8-6.37a2.36,2.36,0,0,1,1.64-.64c1.27.15,1.05,1.52.34,2.4-1.15,1.39-3.44,1.24-5,.7-5.25-1.85-1.64-8.65,1.77-10.56.1-.06.08-.32-.06-.28Z" style="fill:#BA68C8"></path><path d="M464,164.47c6.2.5,5.08,12.27.08,13.85a2.41,2.41,0,0,1-1.9-.09,2.8,2.8,0,0,1-1.13-2.4c.6-2,3.93.54,4.37,1.33a5.75,5.75,0,0,1-.47,6.76c-2.55,2.8-7.42,2.9-10.61,1.29-.17-.08-.2.23-.08.31,3.42,2.2,9.18,1.88,11.72-1.6,2-2.79.63-10.18-3.81-9.52-4.14.6-1.28,5.32,1.86,4.69s4.26-4.78,4.57-7.36c.38-3.24-.59-7.62-4.61-7.55-.13,0-.12.28,0,.29Z" style="fill:#BA68C8"></path><path d="M399.68,149.74c-3.25-.42-10.24,2.32-8.42,6.75,1,2.36,5.3,3.88,6.73,1.17a.33.33,0,0,0-.16-.41c-6.78-3.83-13.91,7.25-6.72,11.32.23.13.22-.25.08-.35a5.65,5.65,0,0,1-1.4-7.95,7.47,7.47,0,0,1,3-2.73c.93-.44,3.25-1,4.11-.14.4.42.39-.11.19.38-.13.3-.54.47-.83.58a3.41,3.41,0,0,1-2.23-.08,3.11,3.11,0,0,1-2.29-3.57c.8-3.33,5-4.54,8-4.57.21,0,.07-.38-.08-.4Z" style="fill:#BA68C8"></path><path d="M367.86,212.36s-4.4,2-8.17-.44l-.27-3.9s2,1.91,7.27,1.25Z" style="fill:#BA68C8"></path><path d="M410.15,81.22s-4.78.59-7.7-2.79l.88-3.81s1.37,2.41,6.59,3.3Z" style="fill:#BA68C8"></path><path d="M478.45,269.54s-4.78.6-7.7-2.79l.88-3.81s1.37,2.41,6.59,3.3Z" style="fill:#BA68C8"></path><path d="M323.87,37.64s-4.78.59-7.7-2.79l.88-3.81s1.37,2.41,6.59,3.3Z" style="fill:#BA68C8"></path><path d="M258.49,32.27s-4.78.6-7.69-2.79l.88-3.81s1.37,2.41,6.59,3.3Z" style="fill:#BA68C8"></path><path d="M454.73,142.28s-4.79.6-7.7-2.79l.88-3.81s1.37,2.41,6.59,3.3Z" style="fill:#BA68C8"></path><path d="M207.88,56.16c4.38,1.61,6.66,11.32,1,12.71-3.17.77-7.74-2.44-6-5.9a.5.5,0,0,1,.55-.21c3.66.84,6.23,3.82,3.82,7.39a8.19,8.19,0,0,1-9.85,2.72c-.2-.08,0-.4.21-.36,3.16.78,6.72.31,8.77-2.49a4.33,4.33,0,0,0,.91-3.46,3.44,3.44,0,0,0-1-1.73c-.41-.39-2-1.52-2.62-1.31-1.17.43.28,2.79.81,3.31a4.92,4.92,0,0,0,4,1.47c2.32-.37,3-2.88,2.95-4.91-.08-2.73-1.21-5.48-3.73-6.8-.22-.12.1-.5.3-.43Z" style="fill:#BA68C8"></path><path d="M163.24,243.92c4.59.84,8.47,10,3.07,12.36-3,1.29-8-1.1-6.9-4.8a.5.5,0,0,1,.51-.3c3.74.21,6.78,2.71,5,6.64a8.2,8.2,0,0,1-9.25,4.34c-.22-.05,0-.41.15-.39,3.24.23,6.67-.83,8.21-3.93a4.34,4.34,0,0,0,.32-3.57,3.44,3.44,0,0,0-1.29-1.53c-.48-.31-2.27-1.16-2.81-.85-1.08.62.75,2.7,1.35,3.12a5,5,0,0,0,4.15.79c2.23-.76,2.47-3.34,2.08-5.33-.54-2.69-2.12-5.21-4.82-6.09-.25-.08,0-.5.22-.46Z" style="fill:#BA68C8"></path><path d="M89.83,31.4c-2.63-.77-6.23-.56-8.43,1.22C79.7,34,78.73,36.94,81.24,38c1,.4,4.22.4,4.61-.94.27-.93-.73-1.49-1.53-1.61-2.36-.36-4.56,2.12-4.5,4.33.08,3.33,4,4.42,6.68,4.45.18,0,.14.34,0,.36-4.66.44-9.85-3.87-5.72-8.19A4.23,4.23,0,0,1,85.23,35c.91.36,1.62,1.18,1.17,2.17-.72,1.58-3.65,1.85-5.07,1.44a2.83,2.83,0,0,1-2-3.65c1.14-4.21,7-5.08,10.52-3.82.1,0,.06.28-.06.25Z" style="fill:#BA68C8"></path><path d="M48.86,77c2.91,2.45,3.45,9.68-.81,11-3.63,1.12-8.73-1.72-6-5.66a.31.31,0,0,1,.28-.14c3.86.69,3.24,5.28,1.32,7.66-3,3.69-7.17,1.79-9.27-1.73-.07-.12.1-.38.22-.25,2,2.34,5,5,7.88,2.45,1.56-1.35,2.82-4.16,1.82-6.16A2.39,2.39,0,0,0,43.09,83c-1.22-.36-1.57,1-1.27,2.07.5,1.73,2.66,2.52,4.28,2.63,5.55.4,5-7.27,2.6-10.39-.08-.09,0-.32.16-.23Z" style="fill:#BA68C8"></path><path d="M32.68,319.16c-5.26,3.32,1.18,13.22,6.35,12.31a2.4,2.4,0,0,0,1.64-1,2.78,2.78,0,0,0-.11-2.64c-1.47-1.52-3.23,2.3-3.26,3.2a5.79,5.79,0,0,0,3.56,5.78c3.56,1.29,7.92-.87,10-3.78.11-.15.28.11.21.23-2,3.54-7.26,5.93-11.13,4-3.09-1.53-5.27-8.72-1-10.2,4-1.38,3.6,4.12.53,5s-6-2.26-7.45-4.4c-1.85-2.7-3-7,.58-8.83.12-.06.23.19.12.26Z" style="fill:#BA68C8"></path><path d="M98.06,86.11s4.78.6,7.69-2.78l-.88-3.82s-1.37,2.42-6.59,3.3Z" style="fill:#BA68C8"></path><path d="M167.36,30.12s4.78.6,7.7-2.78l-.88-3.82s-1.37,2.42-6.59,3.31Z" style="fill:#BA68C8"></path><path d="M176.65,128.2s4.78.59,7.69-2.79l-.88-3.81s-1.37,2.41-6.59,3.3Z" style="fill:#BA68C8"></path><path d="M175.21,319.78s4.44-1.87,5.28-6.25l-2.66-2.87s0,2.78-4.07,6.15Z" style="fill:#BA68C8"></path><path d="M95.89,183s4.78.6,7.69-2.78l-.88-3.82s-1.37,2.42-6.59,3.31Z" style="fill:#BA68C8"></path><path d="M53.84,134.87s4.78.59,7.69-2.79l-.88-3.81s-1.36,2.41-6.58,3.3Z" style="fill:#BA68C8"></path><g style="opacity:0.4"><path d="M288.6,43.45c-3.31,2.09-3.46,10.43,1.45,10.55,2.73.07,5.9-3.35,3.87-5.87a.41.41,0,0,0-.49-.08c-2.84,1.33-4.42,4.22-1.82,6.72a6.85,6.85,0,0,0,8.52.49c.15-.11-.1-.33-.23-.26-2.45,1.19-5.44,1.43-7.6-.49a3.67,3.67,0,0,1-1.36-2.68,2.9,2.9,0,0,1,.53-1.58c.27-.4,1.4-1.61,1.92-1.54,1,.15.25,2.33-.08,2.85a4.11,4.11,0,0,1-3,1.89c-2,.11-3-1.82-3.27-3.49a6.39,6.39,0,0,1,1.85-6.22c.16-.13-.17-.38-.31-.29Z" style="fill:#fff"></path><path d="M423.37,35.27c3.05-.9,7.25-.65,9.81,1.41,2,1.59,3.1,5,.18,6.22-1.14.47-4.9.47-5.36-1.09-.31-1.08.85-1.73,1.78-1.87,2.74-.42,5.3,2.46,5.24,5-.09,3.87-4.6,5.15-7.78,5.18-.21,0-.16.39,0,.41,5.42.52,11.47-4.5,6.65-9.53-1.3-1.36-3.33-2.32-5.2-1.57-1.05.42-1.89,1.37-1.36,2.52.84,1.84,4.25,2.16,5.9,1.69a3.3,3.3,0,0,0,2.29-4.26c-1.34-4.89-8.19-5.91-12.25-4.44-.12,0-.07.33.07.29Z" style="fill:#fff"></path><path d="M432.17,101.62c-3.65,1.08-7,7.49-3.65,10.4,2.88,2.48,8.69,1.92,7.73-2.81A.31.31,0,0,0,436,109c-3.81-.91-5.07,3.54-4.27,6.49C433,120,437.63,120,441,117.59c.11-.08.06-.39-.1-.31-2.73,1.36-6.54,2.57-8.21-.91-.89-1.86-.91-4.94.8-6.37a2.37,2.37,0,0,1,1.64-.65c1.27.15,1.05,1.53.34,2.4-1.15,1.39-3.44,1.25-5,.71-5.25-1.86-1.64-8.65,1.77-10.56.1-.06.08-.32-.06-.28Z" style="fill:#fff"></path><path d="M319.76,293.43c-3.65,1.08-7,7.49-3.65,10.41,2.88,2.48,8.69,1.91,7.73-2.81a.33.33,0,0,0-.2-.24c-3.82-.91-5.08,3.55-4.28,6.49,1.24,4.57,5.86,4.52,9.19,2.13.11-.08.06-.4-.1-.32-2.73,1.36-6.54,2.57-8.21-.91-.89-1.86-.91-4.93.8-6.37a2.36,2.36,0,0,1,1.64-.64c1.27.15,1.05,1.52.34,2.4-1.15,1.39-3.44,1.24-5,.7-5.25-1.85-1.64-8.65,1.77-10.56.1-.06.08-.32-.06-.28Z" style="fill:#fff"></path><path d="M464,164.47c6.2.5,5.08,12.27.08,13.85a2.41,2.41,0,0,1-1.9-.09,2.8,2.8,0,0,1-1.13-2.4c.6-2,3.93.54,4.37,1.33a5.75,5.75,0,0,1-.47,6.76c-2.55,2.8-7.42,2.9-10.61,1.29-.17-.08-.2.23-.08.31,3.42,2.2,9.18,1.88,11.72-1.6,2-2.79.63-10.18-3.81-9.52-4.14.6-1.28,5.32,1.86,4.69s4.26-4.78,4.57-7.36c.38-3.24-.59-7.62-4.61-7.55-.13,0-.12.28,0,.29Z" style="fill:#fff"></path><path d="M467,303c5,3.68-2.12,13.11-7.21,11.83a2.44,2.44,0,0,1-1.57-1.08,2.77,2.77,0,0,1,.3-2.63c1.57-1.41,3.07,2.52,3,3.42a5.76,5.76,0,0,1-3.95,5.51c-3.64,1-7.84-1.43-9.71-4.47-.1-.16-.29.09-.23.21,1.76,3.68,6.83,6.43,10.82,4.8,3.2-1.31,5.88-8.33,1.76-10.11-3.84-1.65-3.88,3.86-.89,5s6.15-1.84,7.75-3.87c2-2.56,3.51-6.79.05-8.84-.11-.07-.25.18-.14.25Z" style="fill:#BA68C8"></path><path d="M467,303c5,3.68-2.12,13.11-7.21,11.83a2.44,2.44,0,0,1-1.57-1.08,2.77,2.77,0,0,1,.3-2.63c1.57-1.41,3.07,2.52,3,3.42a5.76,5.76,0,0,1-3.95,5.51c-3.64,1-7.84-1.43-9.71-4.47-.1-.16-.29.09-.23.21,1.76,3.68,6.83,6.43,10.82,4.8,3.2-1.31,5.88-8.33,1.76-10.11-3.84-1.65-3.88,3.86-.89,5s6.15-1.84,7.75-3.87c2-2.56,3.51-6.79.05-8.84-.11-.07-.25.18-.14.25Z" style="fill:#BA68C8"></path><path d="M399.68,149.74c-3.25-.42-10.24,2.32-8.42,6.75,1,2.36,5.3,3.88,6.73,1.17a.33.33,0,0,0-.16-.41c-6.78-3.83-13.91,7.25-6.72,11.32.23.13.22-.25.08-.35a5.65,5.65,0,0,1-1.4-7.95,7.47,7.47,0,0,1,3-2.73c.93-.44,3.25-1,4.11-.14.4.42.39-.11.19.38-.13.3-.54.47-.83.58a3.41,3.41,0,0,1-2.23-.08,3.11,3.11,0,0,1-2.29-3.57c.8-3.33,5-4.54,8-4.57.21,0,.07-.38-.08-.4Z" style="fill:#fff"></path><path d="M207.88,56.16c4.38,1.61,6.66,11.32,1,12.71-3.17.77-7.74-2.44-6-5.9a.5.5,0,0,1,.55-.21c3.66.84,6.23,3.82,3.82,7.39a8.19,8.19,0,0,1-9.85,2.72c-.2-.08,0-.4.21-.36,3.16.78,6.72.31,8.77-2.49a4.33,4.33,0,0,0,.91-3.46,3.44,3.44,0,0,0-1-1.73c-.41-.39-2-1.52-2.62-1.31-1.17.43.28,2.79.81,3.31a4.92,4.92,0,0,0,4,1.47c2.32-.37,3-2.88,2.95-4.91-.08-2.73-1.21-5.48-3.73-6.8-.22-.12.1-.5.3-.43Z" style="fill:#fff"></path><path d="M163.24,243.92c4.59.84,8.47,10,3.07,12.36-3,1.29-8-1.1-6.9-4.8a.5.5,0,0,1,.51-.3c3.74.21,6.78,2.71,5,6.64a8.2,8.2,0,0,1-9.25,4.34c-.22-.05,0-.41.15-.39,3.24.23,6.67-.83,8.21-3.93a4.34,4.34,0,0,0,.32-3.57,3.44,3.44,0,0,0-1.29-1.53c-.48-.31-2.27-1.16-2.81-.85-1.08.62.75,2.7,1.35,3.12a5,5,0,0,0,4.15.79c2.23-.76,2.47-3.34,2.08-5.33-.54-2.69-2.12-5.21-4.82-6.09-.25-.08,0-.5.22-.46Z" style="fill:#fff"></path><path d="M89.83,31.4c-2.63-.77-6.23-.56-8.43,1.22C79.7,34,78.73,36.94,81.24,38c1,.4,4.22.4,4.61-.94.27-.93-.73-1.49-1.53-1.61-2.36-.36-4.56,2.12-4.5,4.33.08,3.33,4,4.42,6.68,4.45.18,0,.14.34,0,.36-4.66.44-9.85-3.87-5.72-8.19A4.23,4.23,0,0,1,85.23,35c.91.36,1.62,1.18,1.17,2.17-.72,1.58-3.65,1.85-5.07,1.44a2.83,2.83,0,0,1-2-3.65c1.14-4.21,7-5.08,10.52-3.82.1,0,.06.28-.06.25Z" style="fill:#fff"></path><path d="M48.86,77c2.91,2.45,3.45,9.68-.81,11-3.63,1.12-8.73-1.72-6-5.66a.31.31,0,0,1,.28-.14c3.86.69,3.24,5.28,1.32,7.66-3,3.69-7.17,1.79-9.27-1.73-.07-.12.1-.38.22-.25,2,2.34,5,5,7.88,2.45,1.56-1.35,2.82-4.16,1.82-6.16A2.39,2.39,0,0,0,43.09,83c-1.22-.36-1.57,1-1.27,2.07.5,1.73,2.66,2.52,4.28,2.63,5.55.4,5-7.27,2.6-10.39-.08-.09,0-.32.16-.23Z" style="fill:#fff"></path><path d="M32.68,319.16c-5.26,3.32,1.18,13.22,6.35,12.31a2.4,2.4,0,0,0,1.64-1,2.78,2.78,0,0,0-.11-2.64c-1.47-1.52-3.23,2.3-3.26,3.2a5.79,5.79,0,0,0,3.56,5.78c3.56,1.29,7.92-.87,10-3.78.11-.15.28.11.21.23-2,3.54-7.26,5.93-11.13,4-3.09-1.53-5.27-8.72-1-10.2,4-1.38,3.6,4.12.53,5s-6-2.26-7.45-4.4c-1.85-2.7-3-7,.58-8.83.12-.06.23.19.12.26Z" style="fill:#fff"></path></g></g></g></svg>